ISO-10303-21;
HEADER;
FILE_DESCRIPTION (( 'STEP AP203' ),
    '1' );
FILE_NAME ('bottom_support.STEP',
    '2026-07-06T16:12:38',
    ( '' ),
    ( '' ),
    'SwSTEP 2.0',
    'SolidWorks 2024',
    '' );
FILE_SCHEMA (( 'CONFIG_CONTROL_DESIGN' ));
ENDSEC;

DATA;
#1 = ORIENTED_EDGE ( 'NONE', *, *, #235, .T. ) ;
#2 = CARTESIAN_POINT ( 'NONE',  ( 12.50000000000000000, 10.00000000000000000, 4.999999999999986677 ) ) ;
#3 = AXIS2_PLACEMENT_3D ( 'NONE', #427, #182, #354 ) ;
#4 = VERTEX_POINT ( 'NONE', #239 ) ;
#5 = DIRECTION ( 'NONE',  ( 0.000000000000000000, -1.000000000000000000, 0.000000000000000000 ) ) ;
#6 = ORIENTED_EDGE ( 'NONE', *, *, #29, .F. ) ;
#7 = FACE_OUTER_BOUND ( 'NONE', #185, .T. ) ;
#8 = APPLICATION_CONTEXT ( 'configuration controlled 3d designs of mechanical parts and assemblies' ) ;
#9 = ORIENTED_EDGE ( 'NONE', *, *, #235, .F. ) ;
#10 = ADVANCED_FACE ( 'NONE', ( #417 ), #310, .F. ) ;
#11 = DIRECTION ( 'NONE',  ( -2.478176394252581141E-16, 0.000000000000000000, -1.000000000000000000 ) ) ;
#12 = LINE ( 'NONE', #44, #150 ) ;
#13 = LINE ( 'NONE', #222, #378 ) ;
#14 = MANIFOLD_SOLID_BREP ( '\X2\00d8\X0\6.0mm Dowel Hole1', #268 ) ;
#15 = LOCAL_TIME ( 12, 12, 38.00000000000000000, #270 ) ;
#16 = PLANE ( 'NONE',  #67 ) ;
#17 = DIRECTION ( 'NONE',  ( -1.000000000000000000, -0.000000000000000000, 1.387778780781445676E-16 ) ) ;
#18 = VECTOR ( 'NONE', #5, 1000.000000000000000 ) ;
#19 = FACE_OUTER_BOUND ( 'NONE', #351, .T. ) ;
#20 = CARTESIAN_POINT ( 'NONE',  ( 17.50000000000000000, 75.00000000000000000, 0.000000000000000000 ) ) ;
#21 = EDGE_CURVE ( 'NONE', #24, #358, #170, .T. ) ;
#22 = DIRECTION ( 'NONE',  ( 1.000000000000000000, 0.000000000000000000, -0.000000000000000000 ) ) ;
#23 = APPROVAL_STATUS ( 'not_yet_approved' ) ;
#24 = VERTEX_POINT ( 'NONE', #364 ) ;
#25 = ORIENTED_EDGE ( 'NONE', *, *, #290, .T. ) ;
#26 = LINE ( 'NONE', #386, #218 ) ;
#27 = AXIS2_PLACEMENT_3D ( 'NONE', #281, #357, #461 ) ;
#28 = ORIENTED_EDGE ( 'NONE', *, *, #300, .F. ) ;
#29 = EDGE_CURVE ( 'NONE', #379, #69, #12, .T. ) ;
#30 = DIRECTION ( 'NONE',  ( 0.000000000000000000, -0.7071067811865475727, -0.7071067811865475727 ) ) ;
#31 = CC_DESIGN_DATE_AND_TIME_ASSIGNMENT ( #275, #206, ( #57 ) ) ;
#32 = VECTOR ( 'NONE', #71, 1000.000000000000000 ) ;
#33 = DIRECTION ( 'NONE',  ( 0.000000000000000000, 0.7071067811865474617, -0.7071067811865474617 ) ) ;
#34 = VERTEX_POINT ( 'NONE', #190 ) ;
#35 = DIRECTION ( 'NONE',  ( -1.000000000000000000, 0.000000000000000000, 2.478176394252581141E-16 ) ) ;
#36 = DIRECTION ( 'NONE',  ( 0.000000000000000000, 0.000000000000000000, -1.000000000000000000 ) ) ;
#37 = EDGE_LOOP ( 'NONE', ( #307, #274, #25, #431 ) ) ;
#38 = AXIS2_PLACEMENT_3D ( 'NONE', #109, #64, #316 ) ;
#39 = FACE_BOUND ( 'NONE', #288, .T. ) ;
#40 = ORIENTED_EDGE ( 'NONE', *, *, #373, .T. ) ;
#41 = CARTESIAN_POINT ( 'NONE',  ( 12.50000000000000000, 75.00000000000000000, 4.999999999999986677 ) ) ;
#42 = VECTOR ( 'NONE', #228, 1000.000000000000000 ) ;
#43 = ADVANCED_FACE ( 'NONE', ( #295 ), #439, .T. ) ;
#44 = CARTESIAN_POINT ( 'NONE',  ( 12.50000000000000000, 75.00000000000000000, 6.195440985631455317E-16 ) ) ;
#45 = CARTESIAN_POINT ( 'NONE',  ( -17.50000000000000000, 0.000000000000000000, 0.000000000000000000 ) ) ;
#46 = FACE_OUTER_BOUND ( 'NONE', #98, .T. ) ;
#47 = DIRECTION ( 'NONE',  ( -0.000000000000000000, 1.000000000000000000, -0.000000000000000000 ) ) ;
#48 = EDGE_CURVE ( 'NONE', #34, #200, #82, .T. ) ;
#49 = FACE_OUTER_BOUND ( 'NONE', #395, .T. ) ;
#50 = LINE ( 'NONE', #303, #62 ) ;
#51 = CIRCLE ( 'NONE', #289, 3.249999999999999556 ) ;
#52 = CARTESIAN_POINT ( 'NONE',  ( 2.449293598294706907E-15, 10.00000000000000000, 20.00000000000000000 ) ) ;
#53 = AXIS2_PLACEMENT_3D ( 'NONE', #256, #433, #246 ) ;
#54 = EDGE_CURVE ( 'NONE', #403, #361, #231, .T. ) ;
#55 =( NAMED_UNIT ( * ) SI_UNIT ( $, .STERADIAN. ) SOLID_ANGLE_UNIT ( ) );
#56 = ORIENTED_EDGE ( 'NONE', *, *, #367, .F. ) ;
#57 = PRODUCT_DEFINITION ( 'UNKNOWN', '', #233, #251 ) ;
#58 = ORIENTED_EDGE ( 'NONE', *, *, #280, .T. ) ;
#59 = CALENDAR_DATE ( 2026, 6, 7 ) ;
#60 = DATE_AND_TIME ( #383, #352 ) ;
#61 = EDGE_LOOP ( 'NONE', ( #328, #56, #429 ) ) ;
#62 = VECTOR ( 'NONE', #163, 1000.000000000000000 ) ;
#63 = DATE_AND_TIME ( #418, #446 ) ;
#64 = DIRECTION ( 'NONE',  ( -0.000000000000000000, 1.000000000000000000, 0.000000000000000000 ) ) ;
#65 = VERTEX_POINT ( 'NONE', #195 ) ;
#66 = DIRECTION ( 'NONE',  ( -1.000000000000000000, -1.387778780781445676E-16, 1.387778780781445676E-16 ) ) ;
#67 = AXIS2_PLACEMENT_3D ( 'NONE', #158, #226, #297 ) ;
#68 = LINE ( 'NONE', #176, #78 ) ;
#69 = VERTEX_POINT ( 'NONE', #410 ) ;
#70 = AXIS2_PLACEMENT_3D ( 'NONE', #118, #260, #338 ) ;
#71 = DIRECTION ( 'NONE',  ( -1.000000000000000000, -0.000000000000000000, -0.000000000000000000 ) ) ;
#72 = FACE_OUTER_BOUND ( 'NONE', #248, .T. ) ;
#73 = ORIENTED_EDGE ( 'NONE', *, *, #99, .F. ) ;
#74 = ORIENTED_EDGE ( 'NONE', *, *, #448, .T. ) ;
#75 = CARTESIAN_POINT ( 'NONE',  ( -17.50000000000000000, 0.000000000000000000, 75.00000000000000000 ) ) ;
#76 = EDGE_CURVE ( 'NONE', #244, #24, #191, .T. ) ;
#77 = ORIENTED_EDGE ( 'NONE', *, *, #76, .T. ) ;
#78 = VECTOR ( 'NONE', #250, 1000.000000000000000 ) ;
#79 = CARTESIAN_POINT ( 'NONE',  ( 6.521244205459655317E-15, 10.00000000000000000, 46.75000000000000000 ) ) ;
#80 = ORIENTED_EDGE ( 'NONE', *, *, #290, .F. ) ;
#81 = DIRECTION ( 'NONE',  ( 0.000000000000000000, 0.000000000000000000, 1.000000000000000000 ) ) ;
#82 = LINE ( 'NONE', #20, #95 ) ;
#83 = CARTESIAN_POINT ( 'NONE',  ( 17.50000000000000000, 0.000000000000000000, 75.00000000000000000 ) ) ;
#84 = CARTESIAN_POINT ( 'NONE',  ( 6.521244205459654528E-15, 0.000000000000000000, 46.75000000000000711 ) ) ;
#85 = DIRECTION ( 'NONE',  ( -0.000000000000000000, 1.000000000000000000, -0.000000000000000000 ) ) ;
#86 = CARTESIAN_POINT ( 'NONE',  ( -12.50000000000000000, 75.00000000000000000, 0.000000000000000000 ) ) ;
#87 = PRODUCT ( 'bottom_support', 'bottom_support', '', ( #202 ) ) ;
#88 = CARTESIAN_POINT ( 'NONE',  ( 17.50000000000000000, 0.000000000000000000, 0.000000000000000000 ) ) ;
#89 = VECTOR ( 'NONE', #330, 1000.000000000000000 ) ;
#90 = DIRECTION ( 'NONE',  ( -0.000000000000000000, 1.000000000000000000, -0.000000000000000000 ) ) ;
#91 = LOCAL_TIME ( 12, 12, 38.00000000000000000, #348 ) ;
#92 = ADVANCED_FACE ( 'NONE', ( #19 ), #193, .F. ) ;
#93 = ORIENTED_EDGE ( 'NONE', *, *, #120, .T. ) ;
#94 = PERSON_AND_ORGANIZATION_ROLE ( 'creator' ) ;
#95 = VECTOR ( 'NONE', #125, 1000.000000000000114 ) ;
#96 = VERTEX_POINT ( 'NONE', #370 ) ;
#97 = APPROVAL_ROLE ( '' ) ;
#98 = EDGE_LOOP ( 'NONE', ( #276, #377, #329 ) ) ;
#99 = EDGE_CURVE ( 'NONE', #200, #96, #50, .T. ) ;
#100 = COORDINATED_UNIVERSAL_TIME_OFFSET ( 5, 0, .BEHIND. ) ;
#101 = ORIENTED_EDGE ( 'NONE', *, *, #131, .T. ) ;
#102 = COORDINATED_UNIVERSAL_TIME_OFFSET ( 5, 0, .BEHIND. ) ;
#103 = CARTESIAN_POINT ( 'NONE',  ( 12.50000000000001599, 10.00000000000000000, 65.00000000000000000 ) ) ;
#104 = ORIENTED_EDGE ( 'NONE', *, *, #21, .F. ) ;
#105 = AXIS2_PLACEMENT_3D ( 'NONE', #255, #398, #366 ) ;
#106 = CARTESIAN_POINT ( 'NONE',  ( -12.50000000000000000, 10.00000000000000000, 75.00000000000000000 ) ) ;
#107 = CARTESIAN_POINT ( 'NONE',  ( 17.50000000000000000, 75.00000000000000000, 0.000000000000000000 ) ) ;
#108 = VERTEX_POINT ( 'NONE', #301 ) ;
#109 = CARTESIAN_POINT ( 'NONE',  ( 17.50000000000000000, 0.000000000000000000, 75.00000000000000000 ) ) ;
#110 = EDGE_CURVE ( 'NONE', #108, #292, #332, .T. ) ;
#111 = ORIENTED_EDGE ( 'NONE', *, *, #262, .T. ) ;
#112 = CARTESIAN_POINT ( 'NONE',  ( 17.50000000000000000, 0.000000000000000000, 0.000000000000000000 ) ) ;
#113 = CARTESIAN_POINT ( 'NONE',  ( -17.50000000000000000, 75.00000000000000000, 0.000000000000000000 ) ) ;
#114 = VERTEX_POINT ( 'NONE', #84 ) ;
#115 = LINE ( 'NONE', #326, #453 ) ;
#116 = ORIENTED_EDGE ( 'NONE', *, *, #29, .T. ) ;
#117 = VECTOR ( 'NONE', #210, 1000.000000000000114 ) ;
#118 = CARTESIAN_POINT ( 'NONE',  ( -12.50000000000000000, 75.00000000000000000, 75.00000000000000000 ) ) ;
#119 = PLANE ( 'NONE',  #238 ) ;
#120 = EDGE_CURVE ( 'NONE', #359, #114, #211, .T. ) ;
#121 = CYLINDRICAL_SURFACE ( 'NONE', #312, 3.249999999999999556 ) ;
#122 = CARTESIAN_POINT ( 'NONE',  ( 2.449293598294706907E-15, 10.00000000000000000, 23.25000000000000000 ) ) ;
#123 = AXIS2_PLACEMENT_3D ( 'NONE', #52, #405, #335 ) ;
#124 = PERSON ( 'UNSPECIFIED', 'UNSPECIFIED', 'UNSPECIFIED', ('UNSPECIFIED'), ('UNSPECIFIED'), ('UNSPECIFIED') ) ;
#125 = DIRECTION ( 'NONE',  ( 0.000000000000000000, -0.7071067811865474617, 0.7071067811865474617 ) ) ;
#126 = DIRECTION ( 'NONE',  ( 0.000000000000000000, -0.7071067811865474617, 0.7071067811865474617 ) ) ;
#127 = VECTOR ( 'NONE', #36, 1000.000000000000000 ) ;
#128 = CARTESIAN_POINT ( 'NONE',  ( 17.50000000000000000, 9.999999999999994671, 65.00000000000000000 ) ) ;
#129 = VECTOR ( 'NONE', #126, 1000.000000000000114 ) ;
#130 = PERSON_AND_ORGANIZATION ( #124, #325 ) ;
#131 = EDGE_CURVE ( 'NONE', #165, #358, #13, .T. ) ;
#132 = ORIENTED_EDGE ( 'NONE', *, *, #304, .T. ) ;
#133 = PERSON_AND_ORGANIZATION ( #124, #325 ) ;
#134 = ORIENTED_EDGE ( 'NONE', *, *, #402, .T. ) ;
#135 = PERSON_AND_ORGANIZATION ( #124, #325 ) ;
#136 = ORIENTED_EDGE ( 'NONE', *, *, #243, .T. ) ;
#137 = APPROVAL_STATUS ( 'not_yet_approved' ) ;
#138 = CC_DESIGN_APPROVAL ( #375, ( #57 ) ) ;
#139 = ORIENTED_EDGE ( 'NONE', *, *, #367, .T. ) ;
#140 = PLANE ( 'NONE',  #38 ) ;
#141 = ORIENTED_EDGE ( 'NONE', *, *, #131, .F. ) ;
#142 = PLANE ( 'NONE',  #27 ) ;
#143 = ORIENTED_EDGE ( 'NONE', *, *, #229, .T. ) ;
#144 = EDGE_CURVE ( 'NONE', #4, #254, #443, .T. ) ;
#145 = ORIENTED_EDGE ( 'NONE', *, *, #149, .T. ) ;
#146 = DIRECTION ( 'NONE',  ( 0.000000000000000000, 0.000000000000000000, 1.000000000000000000 ) ) ;
#147 = LINE ( 'NONE', #209, #127 ) ;
#148 = EDGE_LOOP ( 'NONE', ( #184, #180 ) ) ;
#149 = EDGE_CURVE ( 'NONE', #65, #283, #445, .T. ) ;
#150 = VECTOR ( 'NONE', #404, 1000.000000000000114 ) ;
#151 = CARTESIAN_POINT ( 'NONE',  ( -12.49999999999999645, 9.999999999999994671, 65.00000000000000000 ) ) ;
#152 = EDGE_LOOP ( 'NONE', ( #145, #259, #419, #384 ) ) ;
#153 = ADVANCED_FACE ( 'NONE', ( #227 ), #337, .F. ) ;
#154 = DIRECTION ( 'NONE',  ( 0.000000000000000000, -1.000000000000000000, 0.000000000000000000 ) ) ;
#155 = CC_DESIGN_APPROVAL ( #458, ( #183 ) ) ;
#156 = DIRECTION ( 'NONE',  ( -0.000000000000000000, 1.000000000000000000, -0.000000000000000000 ) ) ;
#157 = DIRECTION ( 'NONE',  ( 0.000000000000000000, 0.000000000000000000, 1.000000000000000000 ) ) ;
#158 = CARTESIAN_POINT ( 'NONE',  ( 17.50000000000000000, 0.000000000000000000, 0.000000000000000000 ) ) ;
#159 = EDGE_CURVE ( 'NONE', #96, #34, #296, .T. ) ;
#160 = LINE ( 'NONE', #128, #299 ) ;
#161 = DIRECTION ( 'NONE',  ( 0.000000000000000000, 1.000000000000000000, 0.000000000000000000 ) ) ;
#162 = SHAPE_DEFINITION_REPRESENTATION ( #353, #393 ) ;
#163 = DIRECTION ( 'NONE',  ( 0.000000000000000000, 0.000000000000000000, -1.000000000000000000 ) ) ;
#164 = CALENDAR_DATE ( 2026, 6, 7 ) ;
#165 = VERTEX_POINT ( 'NONE', #267 ) ;
#166 = CALENDAR_DATE ( 2026, 6, 7 ) ;
#167 = PRODUCT_RELATED_PRODUCT_CATEGORY ( 'detail', '', ( #87 ) ) ;
#168 = ORIENTED_EDGE ( 'NONE', *, *, #179, .T. ) ;
#169 = APPROVAL_ROLE ( '' ) ;
#170 = CIRCLE ( 'NONE', #387, 3.249999999999999556 ) ;
#171 = DATE_AND_TIME ( #59, #15 ) ;
#172 = ORIENTED_EDGE ( 'NONE', *, *, #21, .T. ) ;
#173 = PLANE ( 'NONE',  #450 ) ;
#174 = AXIS2_PLACEMENT_3D ( 'NONE', #455, #308, #197 ) ;
#175 = ORIENTED_EDGE ( 'NONE', *, *, #402, .F. ) ;
#176 = CARTESIAN_POINT ( 'NONE',  ( 17.50000000000000000, 75.00000000000000000, 0.000000000000000000 ) ) ;
#177 = AXIS2_PLACEMENT_3D ( 'NONE', #291, #401, #441 ) ;
#178 = FACE_BOUND ( 'NONE', #437, .T. ) ;
#179 = EDGE_CURVE ( 'NONE', #379, #254, #160, .T. ) ;
#180 = ORIENTED_EDGE ( 'NONE', *, *, #304, .F. ) ;
#181 = CARTESIAN_POINT ( 'NONE',  ( 2.449293598294706907E-15, 0.000000000000000000, 20.00000000000000000 ) ) ;
#182 = DIRECTION ( 'NONE',  ( -0.000000000000000000, 1.000000000000000000, -0.000000000000000000 ) ) ;
#183 = SECURITY_CLASSIFICATION ( '', '', #420 ) ;
#184 = ORIENTED_EDGE ( 'NONE', *, *, #110, .F. ) ;
#185 = EDGE_LOOP ( 'NONE', ( #143, #315, #139, #271 ) ) ;
#186 = FACE_BOUND ( 'NONE', #148, .T. ) ;
#187 = EDGE_LOOP ( 'NONE', ( #74, #216, #347, #278 ) ) ;
#188 = VECTOR ( 'NONE', #161, 1000.000000000000000 ) ;
#189 = DIRECTION ( 'NONE',  ( 0.000000000000000000, 0.000000000000000000, 1.000000000000000000 ) ) ;
#190 = CARTESIAN_POINT ( 'NONE',  ( 17.50000000000000000, 75.00000000000000000, 0.000000000000000000 ) ) ;
#191 = LINE ( 'NONE', #263, #273 ) ;
#192 = DIRECTION ( 'NONE',  ( -1.000000000000000000, -0.000000000000000000, -0.000000000000000000 ) ) ;
#193 = CYLINDRICAL_SURFACE ( 'NONE', #123, 3.249999999999999556 ) ;
#194 = DIRECTION ( 'NONE',  ( -0.000000000000000000, 1.000000000000000000, -0.000000000000000000 ) ) ;
#195 = CARTESIAN_POINT ( 'NONE',  ( -17.50000000000000000, 0.000000000000000000, 0.000000000000000000 ) ) ;
#196 = ADVANCED_FACE ( 'NONE', ( #412 ), #121, .F. ) ;
#197 = DIRECTION ( 'NONE',  ( 1.000000000000000000, 0.000000000000000000, 0.000000000000000000 ) ) ;
#198 = ORIENTED_EDGE ( 'NONE', *, *, #144, .F. ) ;
#199 = APPLICATION_PROTOCOL_DEFINITION ( 'international standard', 'config_control_design', 1994, #400 ) ;
#200 = VERTEX_POINT ( 'NONE', #365 ) ;
#201 = APPROVAL_DATE_TIME ( #171, #375 ) ;
#202 = MECHANICAL_CONTEXT ( 'NONE', #400, 'mechanical' ) ;
#203 = EDGE_CURVE ( 'NONE', #165, #244, #305, .T. ) ;
#204 = CIRCLE ( 'NONE', #105, 3.250000000000002665 ) ;
#205 = EDGE_LOOP ( 'NONE', ( #322, #219, #132, #80 ) ) ;
#206 = DATE_TIME_ROLE ( 'creation_date' ) ;
#207 = PLANE ( 'NONE',  #341 ) ;
#208 = ORIENTED_EDGE ( 'NONE', *, *, #229, .F. ) ;
#209 = CARTESIAN_POINT ( 'NONE',  ( -17.50000000000000000, 0.000000000000000000, 75.00000000000000000 ) ) ;
#210 = DIRECTION ( 'NONE',  ( 0.000000000000000000, -0.7071067811865474617, 0.7071067811865474617 ) ) ;
#211 = CIRCLE ( 'NONE', #230, 3.249999999999996003 ) ;
#212 = EDGE_LOOP ( 'NONE', ( #175, #6, #168, #198 ) ) ;
#213 = CC_DESIGN_PERSON_AND_ORGANIZATION_ASSIGNMENT ( #242, #94, ( #233 ) ) ;
#214 = LINE ( 'NONE', #112, #397 ) ;
#215 = EDGE_LOOP ( 'NONE', ( #331, #257, #422 ) ) ;
#216 = ORIENTED_EDGE ( 'NONE', *, *, #269, .F. ) ;
#217 = LINE ( 'NONE', #83, #32 ) ;
#218 = VECTOR ( 'NONE', #66, 1000.000000000000000 ) ;
#219 = ORIENTED_EDGE ( 'NONE', *, *, #232, .T. ) ;
#220 = CARTESIAN_POINT ( 'NONE',  ( 6.123233995736765296E-15, 10.00000000000000000, 53.25000000000000711 ) ) ;
#221 = CARTESIAN_POINT ( 'NONE',  ( 2.449293598294706907E-15, 10.00000000000000000, 20.00000000000000000 ) ) ;
#222 = CARTESIAN_POINT ( 'NONE',  ( 2.449293598294706907E-15, 10.00000000000000000, 23.25000000000000000 ) ) ;
#223 = CARTESIAN_POINT ( 'NONE',  ( 6.521244205459655317E-15, 10.00000000000000000, 46.75000000000000000 ) ) ;
#224 = CC_DESIGN_PERSON_AND_ORGANIZATION_ASSIGNMENT ( #240, #277, ( #233 ) ) ;
#225 = CARTESIAN_POINT ( 'NONE',  ( 6.123233995736765296E-15, 10.00000000000000000, 50.00000000000000000 ) ) ;
#226 = DIRECTION ( 'NONE',  ( 1.000000000000000000, -0.000000000000000000, 0.000000000000000000 ) ) ;
#227 = FACE_OUTER_BOUND ( 'NONE', #37, .T. ) ;
#228 = DIRECTION ( 'NONE',  ( 0.000000000000000000, 1.000000000000000000, 0.000000000000000000 ) ) ;
#229 = EDGE_CURVE ( 'NONE', #379, #403, #115, .T. ) ;
#230 = AXIS2_PLACEMENT_3D ( 'NONE', #340, #447, #408 ) ;
#231 = LINE ( 'NONE', #371, #320 ) ;
#232 = EDGE_CURVE ( 'NONE', #114, #292, #406, .T. ) ;
#233 = PRODUCT_DEFINITION_FORMATION_WITH_SPECIFIED_SOURCE ( 'ANY', '', #87, .NOT_KNOWN. ) ;
#234 = APPLICATION_PROTOCOL_DEFINITION ( 'international standard', 'config_control_design', 1994, #8 ) ;
#235 = EDGE_CURVE ( 'NONE', #244, #165, #51, .T. ) ;
#236 = ORIENTED_EDGE ( 'NONE', *, *, #203, .F. ) ;
#237 = DATE_TIME_ROLE ( 'classification_date' ) ;
#238 = AXIS2_PLACEMENT_3D ( 'NONE', #333, #154, #438 ) ;
#239 = CARTESIAN_POINT ( 'NONE',  ( -12.50000000000000000, 70.00000000000000000, 4.999999999999990230 ) ) ;
#240 = PERSON_AND_ORGANIZATION ( #124, #325 ) ;
#241 = APPROVAL_PERSON_ORGANIZATION ( #245, #458, #97 ) ;
#242 = PERSON_AND_ORGANIZATION ( #124, #325 ) ;
#243 = EDGE_CURVE ( 'NONE', #4, #361, #369, .T. ) ;
#244 = VERTEX_POINT ( 'NONE', #261 ) ;
#245 = PERSON_AND_ORGANIZATION ( #124, #325 ) ;
#246 = DIRECTION ( 'NONE',  ( 0.000000000000000000, 0.000000000000000000, 1.000000000000000000 ) ) ;
#247 = AXIS2_PLACEMENT_3D ( 'NONE', #266, #411, #157 ) ;
#248 = EDGE_LOOP ( 'NONE', ( #349, #28, #73, #425 ) ) ;
#249 = CARTESIAN_POINT ( 'NONE',  ( -17.50000000000000000, 0.000000000000000000, 0.000000000000000000 ) ) ;
#250 = DIRECTION ( 'NONE',  ( -1.000000000000000000, -0.000000000000000000, -0.000000000000000000 ) ) ;
#251 = DESIGN_CONTEXT ( 'detailed design', #8, 'design' ) ;
#252 = CARTESIAN_POINT ( 'NONE',  ( -12.50000000000000000, 10.00000000000000000, 4.999999999999990230 ) ) ;
#253 = CIRCLE ( 'NONE', #413, 3.249999999999999556 ) ;
#254 = VERTEX_POINT ( 'NONE', #151 ) ;
#255 = CARTESIAN_POINT ( 'NONE',  ( 6.123233995736765296E-15, 10.00000000000000000, 50.00000000000000000 ) ) ;
#256 = CARTESIAN_POINT ( 'NONE',  ( 6.123233995736765296E-15, 0.000000000000000000, 50.00000000000000000 ) ) ;
#257 = ORIENTED_EDGE ( 'NONE', *, *, #448, .F. ) ;
#258 = DIRECTION ( 'NONE',  ( 0.000000000000000000, -1.000000000000000000, 0.000000000000000000 ) ) ;
#259 = ORIENTED_EDGE ( 'NONE', *, *, #424, .F. ) ;
#260 = DIRECTION ( 'NONE',  ( 1.000000000000000000, 0.000000000000000000, 0.000000000000000000 ) ) ;
#261 = CARTESIAN_POINT ( 'NONE',  ( 2.847303808017596533E-15, 0.000000000000000000, 16.75000000000000000 ) ) ;
#262 = EDGE_CURVE ( 'NONE', #358, #24, #253, .T. ) ;
#263 = CARTESIAN_POINT ( 'NONE',  ( 2.847303808017596533E-15, 10.00000000000000000, 16.75000000000000000 ) ) ;
#264 = CARTESIAN_POINT ( 'NONE',  ( 12.50000000000001776, 75.00000000000000000, 75.00000000000000000 ) ) ;
#265 = DIRECTION ( 'NONE',  ( -0.000000000000000000, 1.000000000000000000, -0.000000000000000000 ) ) ;
#266 = CARTESIAN_POINT ( 'NONE',  ( 6.123233995736765296E-15, 10.00000000000000000, 50.00000000000000000 ) ) ;
#267 = CARTESIAN_POINT ( 'NONE',  ( 2.449293598294706907E-15, 0.000000000000000000, 23.25000000000000000 ) ) ;
#268 = CLOSED_SHELL ( 'NONE', ( #92, #426, #444, #394, #10, #346, #407, #43, #309, #388, #342, #153, #196 ) ) ;
#269 = EDGE_CURVE ( 'NONE', #200, #317, #217, .T. ) ;
#270 = COORDINATED_UNIVERSAL_TIME_OFFSET ( 5, 0, .BEHIND. ) ;
#271 = ORIENTED_EDGE ( 'NONE', *, *, #179, .F. ) ;
#272 = APPROVAL_DATE_TIME ( #449, #306 ) ;
#273 = VECTOR ( 'NONE', #265, 1000.000000000000000 ) ;
#274 = ORIENTED_EDGE ( 'NONE', *, *, #120, .F. ) ;
#275 = DATE_AND_TIME ( #164, #382 ) ;
#276 = ORIENTED_EDGE ( 'NONE', *, *, #99, .T. ) ;
#277 = PERSON_AND_ORGANIZATION_ROLE ( 'design_supplier' ) ;
#278 = ORIENTED_EDGE ( 'NONE', *, *, #424, .T. ) ;
#279 = DIRECTION ( 'NONE',  ( 1.000000000000000000, -0.000000000000000000, 0.000000000000000000 ) ) ;
#280 = EDGE_CURVE ( 'NONE', #69, #403, #336, .T. ) ;
#281 = CARTESIAN_POINT ( 'NONE',  ( -12.50000000000000000, 75.00000000000000000, 4.999999999999990230 ) ) ;
#282 = CC_DESIGN_PERSON_AND_ORGANIZATION_ASSIGNMENT ( #135, #416, ( #57 ) ) ;
#283 = VERTEX_POINT ( 'NONE', #286 ) ;
#284 =( NAMED_UNIT ( * ) PLANE_ANGLE_UNIT ( ) SI_UNIT ( $, .RADIAN. ) );
#285 = ORIENTED_EDGE ( 'NONE', *, *, #203, .T. ) ;
#286 = CARTESIAN_POINT ( 'NONE',  ( -17.50000000000000000, 75.00000000000000000, 0.000000000000000000 ) ) ;
#287 = FACE_OUTER_BOUND ( 'NONE', #187, .T. ) ;
#288 = EDGE_LOOP ( 'NONE', ( #435, #104 ) ) ;
#289 = AXIS2_PLACEMENT_3D ( 'NONE', #181, #356, #189 ) ;
#290 = EDGE_CURVE ( 'NONE', #359, #108, #432, .T. ) ;
#291 = CARTESIAN_POINT ( 'NONE',  ( 2.449293598294706907E-15, 0.000000000000000000, 20.00000000000000000 ) ) ;
#292 = VERTEX_POINT ( 'NONE', #223 ) ;
#293 = DIRECTION ( 'NONE',  ( -0.000000000000000000, 1.000000000000000000, -0.000000000000000000 ) ) ;
#294 = APPROVAL_PERSON_ORGANIZATION ( #133, #306, #169 ) ;
#295 = FACE_OUTER_BOUND ( 'NONE', #61, .T. ) ;
#296 = LINE ( 'NONE', #88, #42 ) ;
#297 = DIRECTION ( 'NONE',  ( 0.000000000000000000, 0.000000000000000000, -1.000000000000000000 ) ) ;
#298 = DIRECTION ( 'NONE',  ( -1.000000000000000000, 0.000000000000000000, 0.000000000000000000 ) ) ;
#299 = VECTOR ( 'NONE', #298, 1000.000000000000000 ) ;
#300 = EDGE_CURVE ( 'NONE', #96, #65, #214, .T. ) ;
#301 = CARTESIAN_POINT ( 'NONE',  ( 6.123233995736765296E-15, 10.00000000000000000, 53.25000000000000711 ) ) ;
#302 = CC_DESIGN_SECURITY_CLASSIFICATION ( #183, ( #233 ) ) ;
#303 = CARTESIAN_POINT ( 'NONE',  ( 17.50000000000000000, 0.000000000000000000, 75.00000000000000000 ) ) ;
#304 = EDGE_CURVE ( 'NONE', #292, #108, #204, .T. ) ;
#305 = CIRCLE ( 'NONE', #177, 3.249999999999999556 ) ;
#306 = APPROVAL ( #137, 'UNSPECIFIED' ) ;
#307 = ORIENTED_EDGE ( 'NONE', *, *, #232, .F. ) ;
#308 = DIRECTION ( 'NONE',  ( 0.000000000000000000, 0.000000000000000000, 1.000000000000000000 ) ) ;
#309 = ADVANCED_FACE ( 'NONE', ( #49 ), #362, .T. ) ;
#310 = PLANE ( 'NONE',  #372 ) ;
#311 = APPROVAL_STATUS ( 'not_yet_approved' ) ;
#312 = AXIS2_PLACEMENT_3D ( 'NONE', #440, #90, #374 ) ;
#313 = CC_DESIGN_DATE_AND_TIME_ASSIGNMENT ( #63, #237, ( #183 ) ) ;
#314 = COORDINATED_UNIVERSAL_TIME_OFFSET ( 5, 0, .BEHIND. ) ;
#315 = ORIENTED_EDGE ( 'NONE', *, *, #54, .T. ) ;
#316 = DIRECTION ( 'NONE',  ( 0.000000000000000000, -0.000000000000000000, 1.000000000000000000 ) ) ;
#317 = VERTEX_POINT ( 'NONE', #75 ) ;
#318 = CC_DESIGN_PERSON_AND_ORGANIZATION_ASSIGNMENT ( #385, #423, ( #183 ) ) ;
#319 = DIRECTION ( 'NONE',  ( 0.000000000000000000, 0.000000000000000000, -1.000000000000000000 ) ) ;
#320 = VECTOR ( 'NONE', #17, 1000.000000000000000 ) ;
#321 = UNCERTAINTY_MEASURE_WITH_UNIT (LENGTH_MEASURE( 1.000000000000000082E-05 ), #327, 'distance_accuracy_value', 'NONE');
#322 = ORIENTED_EDGE ( 'NONE', *, *, #373, .F. ) ;
#323 = FACE_BOUND ( 'NONE', #212, .T. ) ;
#324 = ORIENTED_EDGE ( 'NONE', *, *, #76, .F. ) ;
#325 = ORGANIZATION ( 'UNSPECIFIED', 'UNSPECIFIED', '' ) ;
#326 = CARTESIAN_POINT ( 'NONE',  ( 12.50000000000001776, 10.00000000000000000, 75.00000000000000000 ) ) ;
#327 =( LENGTH_UNIT ( ) NAMED_UNIT ( * ) SI_UNIT ( .MILLI., .METRE. ) );
#328 = ORIENTED_EDGE ( 'NONE', *, *, #144, .T. ) ;
#329 = ORIENTED_EDGE ( 'NONE', *, *, #48, .T. ) ;
#330 = DIRECTION ( 'NONE',  ( -0.000000000000000000, 1.000000000000000000, -0.000000000000000000 ) ) ;
#331 = ORIENTED_EDGE ( 'NONE', *, *, #415, .F. ) ;
#332 = CIRCLE ( 'NONE', #434, 3.250000000000002665 ) ;
#333 = CARTESIAN_POINT ( 'NONE',  ( 0.000000000000000000, 10.00000000000000000, 0.000000000000000000 ) ) ;
#334 = CARTESIAN_POINT ( 'NONE',  ( 6.123233995736765296E-15, 0.000000000000000000, 53.25000000000000000 ) ) ;
#335 = DIRECTION ( 'NONE',  ( 0.000000000000000000, 0.000000000000000000, 1.000000000000000000 ) ) ;
#336 = LINE ( 'NONE', #41, #442 ) ;
#337 = CYLINDRICAL_SURFACE ( 'NONE', #247, 3.250000000000002665 ) ;
#338 = DIRECTION ( 'NONE',  ( 0.000000000000000000, 0.000000000000000000, -1.000000000000000000 ) ) ;
#339 = VECTOR ( 'NONE', #85, 1000.000000000000000 ) ;
#340 = CARTESIAN_POINT ( 'NONE',  ( 6.123233995736765296E-15, 0.000000000000000000, 50.00000000000000000 ) ) ;
#341 = AXIS2_PLACEMENT_3D ( 'NONE', #249, #279, #319 ) ;
#342 = ADVANCED_FACE ( 'NONE', ( #39, #186, #7 ), #119, .F. ) ;
#343 = APPROVAL_DATE_TIME ( #60, #458 ) ;
#344 = ORIENTED_EDGE ( 'NONE', *, *, #280, .F. ) ;
#345 = APPROVAL_ROLE ( '' ) ;
#346 = ADVANCED_FACE ( 'NONE', ( #46 ), #16, .T. ) ;
#347 = ORIENTED_EDGE ( 'NONE', *, *, #48, .F. ) ;
#348 = COORDINATED_UNIVERSAL_TIME_OFFSET ( 5, 0, .BEHIND. ) ;
#349 = ORIENTED_EDGE ( 'NONE', *, *, #415, .T. ) ;
#350 = DIRECTION ( 'NONE',  ( -0.000000000000000000, -0.000000000000000000, 1.000000000000000000 ) ) ;
#351 = EDGE_LOOP ( 'NONE', ( #9, #77, #172, #141 ) ) ;
#352 = LOCAL_TIME ( 12, 12, 38.00000000000000000, #100 ) ;
#353 = PRODUCT_DEFINITION_SHAPE ( 'NONE', 'NONE',  #57 ) ;
#354 = DIRECTION ( 'NONE',  ( 0.000000000000000000, 0.000000000000000000, 1.000000000000000000 ) ) ;
#355 = CYLINDRICAL_SURFACE ( 'NONE', #3, 3.250000000000002665 ) ;
#356 = DIRECTION ( 'NONE',  ( -0.000000000000000000, 1.000000000000000000, -0.000000000000000000 ) ) ;
#357 = DIRECTION ( 'NONE',  ( 1.387778780781445676E-16, 0.000000000000000000, 1.000000000000000000 ) ) ;
#358 = VERTEX_POINT ( 'NONE', #122 ) ;
#359 = VERTEX_POINT ( 'NONE', #334 ) ;
#360 = DIRECTION ( 'NONE',  ( 2.478176394252581141E-16, 0.000000000000000000, 1.000000000000000000 ) ) ;
#361 = VERTEX_POINT ( 'NONE', #252 ) ;
#362 = PLANE ( 'NONE',  #363 ) ;
#363 = AXIS2_PLACEMENT_3D ( 'NONE', #264, #35, #360 ) ;
#364 = CARTESIAN_POINT ( 'NONE',  ( 2.847303808017596533E-15, 10.00000000000000000, 16.75000000000000000 ) ) ;
#365 = CARTESIAN_POINT ( 'NONE',  ( 17.50000000000000000, 0.000000000000000000, 75.00000000000000000 ) ) ;
#366 = DIRECTION ( 'NONE',  ( 0.000000000000000000, 0.000000000000000000, 1.000000000000000000 ) ) ;
#367 = EDGE_CURVE ( 'NONE', #361, #254, #390, .T. ) ;
#368 = DIRECTION ( 'NONE',  ( 0.000000000000000000, 0.000000000000000000, 1.000000000000000000 ) ) ;
#369 = LINE ( 'NONE', #436, #18 ) ;
#370 = CARTESIAN_POINT ( 'NONE',  ( 17.50000000000000000, 0.000000000000000000, 0.000000000000000000 ) ) ;
#371 = CARTESIAN_POINT ( 'NONE',  ( -12.50000000000000000, 10.00000000000000000, 4.999999999999990230 ) ) ;
#372 = AXIS2_PLACEMENT_3D ( 'NONE', #452, #451, #22 ) ;
#373 = EDGE_CURVE ( 'NONE', #114, #359, #391, .T. ) ;
#374 = DIRECTION ( 'NONE',  ( 0.000000000000000000, 0.000000000000000000, 1.000000000000000000 ) ) ;
#375 = APPROVAL ( #23, 'UNSPECIFIED' ) ;
#376 =( GEOMETRIC_REPRESENTATION_CONTEXT ( 3 ) GLOBAL_UNCERTAINTY_ASSIGNED_CONTEXT ( ( #321 ) ) GLOBAL_UNIT_ASSIGNED_CONTEXT ( ( #327, #284, #55 ) ) REPRESENTATION_CONTEXT ( 'NONE', 'WORKASPACE' ) );
#377 = ORIENTED_EDGE ( 'NONE', *, *, #159, .T. ) ;
#378 = VECTOR ( 'NONE', #194, 1000.000000000000000 ) ;
#379 = VERTEX_POINT ( 'NONE', #103 ) ;
#380 = CC_DESIGN_PERSON_AND_ORGANIZATION_ASSIGNMENT ( #130, #381, ( #87 ) ) ;
#381 = PERSON_AND_ORGANIZATION_ROLE ( 'design_owner' ) ;
#382 = LOCAL_TIME ( 12, 12, 38.00000000000000000, #314 ) ;
#383 = CALENDAR_DATE ( 2026, 6, 7 ) ;
#384 = ORIENTED_EDGE ( 'NONE', *, *, #300, .T. ) ;
#385 = PERSON_AND_ORGANIZATION ( #124, #325 ) ;
#386 = CARTESIAN_POINT ( 'NONE',  ( 17.50000000000000000, 70.00000000000000000, 4.999999999999985789 ) ) ;
#387 = AXIS2_PLACEMENT_3D ( 'NONE', #221, #156, #81 ) ;
#388 = ADVANCED_FACE ( 'NONE', ( #459 ), #142, .T. ) ;
#389 = EDGE_LOOP ( 'NONE', ( #324, #236, #101, #111 ) ) ;
#390 = LINE ( 'NONE', #106, #421 ) ;
#391 = CIRCLE ( 'NONE', #53, 3.249999999999996003 ) ;
#392 = FACE_OUTER_BOUND ( 'NONE', #205, .T. ) ;
#393 = ADVANCED_BREP_SHAPE_REPRESENTATION ( 'bottom_support', ( #14, #174 ), #376 ) ;
#394 = ADVANCED_FACE ( 'NONE', ( #430, #178, #72 ), #140, .F. ) ;
#395 = EDGE_LOOP ( 'NONE', ( #116, #58, #208 ) ) ;
#396 = LINE ( 'NONE', #113, #117 ) ;
#397 = VECTOR ( 'NONE', #192, 1000.000000000000000 ) ;
#398 = DIRECTION ( 'NONE',  ( -0.000000000000000000, 1.000000000000000000, -0.000000000000000000 ) ) ;
#399 = EDGE_LOOP ( 'NONE', ( #285, #1 ) ) ;
#400 = APPLICATION_CONTEXT ( 'configuration controlled 3d designs of mechanical parts and assemblies' ) ;
#401 = DIRECTION ( 'NONE',  ( -0.000000000000000000, 1.000000000000000000, -0.000000000000000000 ) ) ;
#402 = EDGE_CURVE ( 'NONE', #69, #4, #26, .T. ) ;
#403 = VERTEX_POINT ( 'NONE', #2 ) ;
#404 = DIRECTION ( 'NONE',  ( -1.752335333352427410E-16, 0.7071067811865474617, -0.7071067811865474617 ) ) ;
#405 = DIRECTION ( 'NONE',  ( -0.000000000000000000, 1.000000000000000000, -0.000000000000000000 ) ) ;
#406 = LINE ( 'NONE', #79, #89 ) ;
#407 = ADVANCED_FACE ( 'NONE', ( #428 ), #207, .F. ) ;
#408 = DIRECTION ( 'NONE',  ( 0.000000000000000000, 0.000000000000000000, 1.000000000000000000 ) ) ;
#409 = CARTESIAN_POINT ( 'NONE',  ( 2.449293598294706907E-15, 10.00000000000000000, 20.00000000000000000 ) ) ;
#410 = CARTESIAN_POINT ( 'NONE',  ( 12.50000000000000000, 70.00000000000000000, 4.999999999999986677 ) ) ;
#411 = DIRECTION ( 'NONE',  ( -0.000000000000000000, 1.000000000000000000, -0.000000000000000000 ) ) ;
#412 = FACE_OUTER_BOUND ( 'NONE', #389, .T. ) ;
#413 = AXIS2_PLACEMENT_3D ( 'NONE', #409, #293, #146 ) ;
#414 = APPROVAL_PERSON_ORGANIZATION ( #454, #375, #345 ) ;
#415 = EDGE_CURVE ( 'NONE', #317, #65, #147, .T. ) ;
#416 = PERSON_AND_ORGANIZATION_ROLE ( 'creator' ) ;
#417 = FACE_OUTER_BOUND ( 'NONE', #152, .T. ) ;
#418 = CALENDAR_DATE ( 2026, 6, 7 ) ;
#419 = ORIENTED_EDGE ( 'NONE', *, *, #159, .F. ) ;
#420 = SECURITY_CLASSIFICATION_LEVEL ( 'unclassified' ) ;
#421 = VECTOR ( 'NONE', #350, 1000.000000000000000 ) ;
#422 = ORIENTED_EDGE ( 'NONE', *, *, #149, .F. ) ;
#423 = PERSON_AND_ORGANIZATION_ROLE ( 'classification_officer' ) ;
#424 = EDGE_CURVE ( 'NONE', #34, #283, #68, .T. ) ;
#425 = ORIENTED_EDGE ( 'NONE', *, *, #269, .T. ) ;
#426 = ADVANCED_FACE ( 'NONE', ( #392 ), #355, .F. ) ;
#427 = CARTESIAN_POINT ( 'NONE',  ( 6.123233995736765296E-15, 10.00000000000000000, 50.00000000000000000 ) ) ;
#428 = FACE_OUTER_BOUND ( 'NONE', #215, .T. ) ;
#429 = ORIENTED_EDGE ( 'NONE', *, *, #243, .F. ) ;
#430 = FACE_BOUND ( 'NONE', #399, .T. ) ;
#431 = ORIENTED_EDGE ( 'NONE', *, *, #110, .T. ) ;
#432 = LINE ( 'NONE', #220, #339 ) ;
#433 = DIRECTION ( 'NONE',  ( -0.000000000000000000, 1.000000000000000000, -0.000000000000000000 ) ) ;
#434 = AXIS2_PLACEMENT_3D ( 'NONE', #225, #47, #368 ) ;
#435 = ORIENTED_EDGE ( 'NONE', *, *, #262, .F. ) ;
#436 = CARTESIAN_POINT ( 'NONE',  ( -12.50000000000000000, 75.00000000000000000, 4.999999999999990230 ) ) ;
#437 = EDGE_LOOP ( 'NONE', ( #93, #40 ) ) ;
#438 = DIRECTION ( 'NONE',  ( 0.000000000000000000, -0.000000000000000000, -1.000000000000000000 ) ) ;
#439 = PLANE ( 'NONE',  #70 ) ;
#440 = CARTESIAN_POINT ( 'NONE',  ( 2.449293598294706907E-15, 10.00000000000000000, 20.00000000000000000 ) ) ;
#441 = DIRECTION ( 'NONE',  ( 0.000000000000000000, 0.000000000000000000, 1.000000000000000000 ) ) ;
#442 = VECTOR ( 'NONE', #258, 1000.000000000000000 ) ;
#443 = LINE ( 'NONE', #86, #129 ) ;
#444 = ADVANCED_FACE ( 'NONE', ( #287, #323 ), #173, .F. ) ;
#445 = LINE ( 'NONE', #45, #188 ) ;
#446 = LOCAL_TIME ( 12, 12, 38.00000000000000000, #102 ) ;
#447 = DIRECTION ( 'NONE',  ( -0.000000000000000000, 1.000000000000000000, -0.000000000000000000 ) ) ;
#448 = EDGE_CURVE ( 'NONE', #283, #317, #396, .T. ) ;
#449 = DATE_AND_TIME ( #166, #91 ) ;
#450 = AXIS2_PLACEMENT_3D ( 'NONE', #107, #30, #33 ) ;
#451 = DIRECTION ( 'NONE',  ( 0.000000000000000000, 0.000000000000000000, 1.000000000000000000 ) ) ;
#452 = CARTESIAN_POINT ( 'NONE',  ( 17.50000000000000000, 0.000000000000000000, 0.000000000000000000 ) ) ;
#453 = VECTOR ( 'NONE', #11, 1000.000000000000000 ) ;
#454 = PERSON_AND_ORGANIZATION ( #124, #325 ) ;
#455 = CARTESIAN_POINT ( 'NONE',  ( 0.000000000000000000, 0.000000000000000000, 0.000000000000000000 ) ) ;
#456 = CC_DESIGN_APPROVAL ( #306, ( #233 ) ) ;
#457 = ORIENTED_EDGE ( 'NONE', *, *, #54, .F. ) ;
#458 = APPROVAL ( #311, 'UNSPECIFIED' ) ;
#459 = FACE_OUTER_BOUND ( 'NONE', #460, .T. ) ;
#460 = EDGE_LOOP ( 'NONE', ( #134, #136, #457, #344 ) ) ;
#461 = DIRECTION ( 'NONE',  ( 1.000000000000000000, 0.000000000000000000, -1.387778780781445676E-16 ) ) ;
ENDSEC;
END-ISO-10303-21;
