ISO-10303-21;
HEADER;
FILE_DESCRIPTION (( 'STEP AP203' ),
    '1' );
FILE_NAME ('top_left.STEP',
    '2026-07-06T16:13:03',
    ( '' ),
    ( '' ),
    'SwSTEP 2.0',
    'SolidWorks 2024',
    '' );
FILE_SCHEMA (( 'CONFIG_CONTROL_DESIGN' ));
ENDSEC;

DATA;
#1 = ORIENTED_EDGE ( 'NONE', *, *, #611, .F. ) ;
#2 = EDGE_CURVE ( 'NONE', #290, #348, #978, .T. ) ;
#3 = CARTESIAN_POINT ( 'NONE',  ( -100.0000000000000000, 64.00000000000000000, 46.00000000000001421 ) ) ;
#4 = CARTESIAN_POINT ( 'NONE',  ( -100.0000000000000000, -4.000000000000000000, -3.999999999999988010 ) ) ;
#5 = VERTEX_POINT ( 'NONE', #604 ) ;
#6 = LINE ( 'NONE', #28, #642 ) ;
#7 = APPROVAL_DATE_TIME ( #86, #96 ) ;
#8 = DIRECTION ( 'NONE',  ( -0.000000000000000000, 1.000000000000000000, -0.000000000000000000 ) ) ;
#9 = AXIS2_PLACEMENT_3D ( 'NONE', #564, #793, #121 ) ;
#10 = EDGE_LOOP ( 'NONE', ( #821, #959, #326, #732, #944, #278, #735 ) ) ;
#11 = LOCAL_TIME ( 12, 13, 3.000000000000000000, #114 ) ;
#12 = FACE_OUTER_BOUND ( 'NONE', #788, .T. ) ;
#13 = VECTOR ( 'NONE', #868, 1000.000000000000000 ) ;
#14 = EDGE_CURVE ( 'NONE', #428, #50, #304, .T. ) ;
#15 = PLANE ( 'NONE',  #849 ) ;
#16 = ORIENTED_EDGE ( 'NONE', *, *, #60, .T. ) ;
#17 = PLANE ( 'NONE',  #62 ) ;
#18 = DIRECTION ( 'NONE',  ( 0.000000000000000000, 0.000000000000000000, 1.000000000000000000 ) ) ;
#19 = CARTESIAN_POINT ( 'NONE',  ( -45.25000000000000711, 0.000000000000000000, -25.75000000000001066 ) ) ;
#20 = EDGE_LOOP ( 'NONE', ( #617, #209, #661, #774 ) ) ;
#21 = DIRECTION ( 'NONE',  ( 1.000000000000000000, 0.000000000000000000, -1.214306433183764966E-16 ) ) ;
#22 = VERTEX_POINT ( 'NONE', #460 ) ;
#23 = DIRECTION ( 'NONE',  ( 0.000000000000000000, 0.000000000000000000, 1.000000000000000000 ) ) ;
#24 = LINE ( 'NONE', #770, #424 ) ;
#25 = VECTOR ( 'NONE', #622, 1000.000000000000000 ) ;
#26 = ADVANCED_FACE ( 'NONE', ( #233 ), #79, .F. ) ;
#27 = ORIENTED_EDGE ( 'NONE', *, *, #931, .F. ) ;
#28 = CARTESIAN_POINT ( 'NONE',  ( -6.750000000000127010, 0.000000000000000000, 6.750000000000051514 ) ) ;
#29 = VECTOR ( 'NONE', #245, 1000.000000000000000 ) ;
#30 = AXIS2_PLACEMENT_3D ( 'NONE', #47, #349, #200 ) ;
#31 = LINE ( 'NONE', #191, #346 ) ;
#32 = CARTESIAN_POINT ( 'NONE',  ( -81.00000000000000000, 60.00000000000000000, 0.000000000000000000 ) ) ;
#33 = ORIENTED_EDGE ( 'NONE', *, *, #458, .T. ) ;
#34 = DIRECTION ( 'NONE',  ( 0.000000000000000000, -1.000000000000000000, 0.000000000000000000 ) ) ;
#35 = DATE_AND_TIME ( #321, #11 ) ;
#36 = CARTESIAN_POINT ( 'NONE',  ( -45.25000000000001421, -4.000000000000000000, -10.74999999999999467 ) ) ;
#37 = ORIENTED_EDGE ( 'NONE', *, *, #2, .T. ) ;
#38 = CARTESIAN_POINT ( 'NONE',  ( -45.25000000000000711, -4.000000000000000000, -25.74999999999999645 ) ) ;
#39 = ORIENTED_EDGE ( 'NONE', *, *, #922, .F. ) ;
#40 = EDGE_CURVE ( 'NONE', #290, #485, #381, .T. ) ;
#41 = DIRECTION ( 'NONE',  ( -1.000000000000000000, 0.000000000000000000, 1.214306433183764966E-16 ) ) ;
#42 = ORIENTED_EDGE ( 'NONE', *, *, #152, .T. ) ;
#43 = VECTOR ( 'NONE', #8, 1000.000000000000000 ) ;
#44 = EDGE_LOOP ( 'NONE', ( #792, #201, #372, #601, #42 ) ) ;
#45 = CC_DESIGN_SECURITY_CLASSIFICATION ( #643, ( #520 ) ) ;
#46 = EDGE_CURVE ( 'NONE', #477, #500, #311, .T. ) ;
#47 = CARTESIAN_POINT ( 'NONE',  ( -45.25000000000000711, 0.000000000000000000, -32.24999999999998579 ) ) ;
#48 = ORIENTED_EDGE ( 'NONE', *, *, #84, .T. ) ;
#49 = CARTESIAN_POINT ( 'NONE',  ( 0.000000000000000000, -4.000000000000000000, 0.000000000000000000 ) ) ;
#50 = VERTEX_POINT ( 'NONE', #838 ) ;
#51 = CYLINDRICAL_SURFACE ( 'NONE', #977, 3.249999999999996003 ) ;
#52 = CARTESIAN_POINT ( 'NONE',  ( -34.75000000000001421, -4.000000000000000000, -10.74999999999999112 ) ) ;
#53 = ORIENTED_EDGE ( 'NONE', *, *, #480, .F. ) ;
#54 = ADVANCED_FACE ( 'NONE', ( #261 ), #560, .F. ) ;
#55 = ORIENTED_EDGE ( 'NONE', *, *, #117, .T. ) ;
#56 = PERSON_AND_ORGANIZATION_ROLE ( 'creator' ) ;
#57 = CARTESIAN_POINT ( 'NONE',  ( -29.49999999999999645, 0.000000000000000000, -38.99999999999999289 ) ) ;
#58 = LINE ( 'NONE', #659, #158 ) ;
#59 = ORIENTED_EDGE ( 'NONE', *, *, #176, .T. ) ;
#60 = EDGE_CURVE ( 'NONE', #22, #350, #844, .T. ) ;
#61 = ORIENTED_EDGE ( 'NONE', *, *, #775, .F. ) ;
#62 = AXIS2_PLACEMENT_3D ( 'NONE', #625, #536, #839 ) ;
#63 = VECTOR ( 'NONE', #634, 1000.000000000000000 ) ;
#64 = DIRECTION ( 'NONE',  ( 0.000000000000000000, 0.000000000000000000, 1.000000000000000000 ) ) ;
#65 = CARTESIAN_POINT ( 'NONE',  ( -45.25000000000001421, 0.000000000000000000, -17.24999999999998579 ) ) ;
#66 = ORIENTED_EDGE ( 'NONE', *, *, #948, .F. ) ;
#67 = CC_DESIGN_PERSON_AND_ORGANIZATION_ASSIGNMENT ( #696, #851, ( #297 ) ) ;
#68 = CARTESIAN_POINT ( 'NONE',  ( -100.0000000000000000, 64.00000000000000000, -3.999999999999988010 ) ) ;
#69 = CARTESIAN_POINT ( 'NONE',  ( -100.0000000000000000, -4.000000000000000000, -3.999999999999988010 ) ) ;
#70 = ORIENTED_EDGE ( 'NONE', *, *, #152, .F. ) ;
#71 = CARTESIAN_POINT ( 'NONE',  ( -45.25000000000001421, 0.000000000000000000, -10.74999999999999467 ) ) ;
#72 = EDGE_CURVE ( 'NONE', #667, #500, #712, .T. ) ;
#73 = DIRECTION ( 'NONE',  ( 0.000000000000000000, -0.000000000000000000, 1.000000000000000000 ) ) ;
#74 = CARTESIAN_POINT ( 'NONE',  ( -52.50000000000000711, 0.000000000000000000, -13.99999999999994671 ) ) ;
#75 = CARTESIAN_POINT ( 'NONE',  ( -45.25000000000001421, 0.000000000000000000, -10.75000000000003375 ) ) ;
#76 = CARTESIAN_POINT ( 'NONE',  ( 0.000000000000000000, 64.00000000000000000, 0.000000000000000000 ) ) ;
#77 = VECTOR ( 'NONE', #647, 1000.000000000000000 ) ;
#78 = ADVANCED_FACE ( 'NONE', ( #248 ), #178, .F. ) ;
#79 = PLANE ( 'NONE',  #629 ) ;
#80 = VECTOR ( 'NONE', #888, 1000.000000000000114 ) ;
#81 = DIRECTION ( 'NONE',  ( 0.000000000000000000, 0.000000000000000000, 1.000000000000000000 ) ) ;
#82 = LINE ( 'NONE', #4, #866 ) ;
#83 = CARTESIAN_POINT ( 'NONE',  ( -27.50000000000001066, -4.000000000000000000, -3.999999999999984457 ) ) ;
#84 = EDGE_CURVE ( 'NONE', #350, #640, #787, .T. ) ;
#85 = DIRECTION ( 'NONE',  ( 0.000000000000000000, 1.000000000000000000, 0.000000000000000000 ) ) ;
#86 = DATE_AND_TIME ( #692, #767 ) ;
#87 = DIRECTION ( 'NONE',  ( -0.000000000000000000, 1.000000000000000000, -0.000000000000000000 ) ) ;
#88 = ORIENTED_EDGE ( 'NONE', *, *, #873, .T. ) ;
#89 = DIRECTION ( 'NONE',  ( 0.000000000000000000, 0.000000000000000000, 1.000000000000000000 ) ) ;
#90 = PLANE ( 'NONE',  #110 ) ;
#91 = AXIS2_PLACEMENT_3D ( 'NONE', #779, #21, #914 ) ;
#92 = ORIENTED_EDGE ( 'NONE', *, *, #799, .F. ) ;
#93 = CC_DESIGN_APPROVAL ( #571, ( #520 ) ) ;
#94 = CARTESIAN_POINT ( 'NONE',  ( 0.000000000000000000, 64.00000000000000000, 0.000000000000000000 ) ) ;
#95 = VECTOR ( 'NONE', #802, 1000.000000000000000 ) ;
#96 = APPROVAL ( #179, 'UNSPECIFIED' ) ;
#97 = COORDINATED_UNIVERSAL_TIME_OFFSET ( 5, 0, .BEHIND. ) ;
#98 = CARTESIAN_POINT ( 'NONE',  ( -62.50000000000007816, 1.242640687119289655, -3.999999999999992450 ) ) ;
#99 = ORIENTED_EDGE ( 'NONE', *, *, #561, .F. ) ;
#100 = CARTESIAN_POINT ( 'NONE',  ( 0.000000000000000000, -4.000000000000000000, 46.00000000000001421 ) ) ;
#101 = ORIENTED_EDGE ( 'NONE', *, *, #534, .T. ) ;
#102 =( NAMED_UNIT ( * ) PLANE_ANGLE_UNIT ( ) SI_UNIT ( $, .RADIAN. ) );
#103 = ADVANCED_FACE ( 'NONE', ( #550 ), #104, .F. ) ;
#104 = PLANE ( 'NONE',  #850 ) ;
#105 = EDGE_LOOP ( 'NONE', ( #752, #284, #949, #870 ) ) ;
#106 = LINE ( 'NONE', #608, #820 ) ;
#107 =( LENGTH_UNIT ( ) NAMED_UNIT ( * ) SI_UNIT ( .MILLI., .METRE. ) );
#108 = CARTESIAN_POINT ( 'NONE',  ( 0.000000000000000000, 64.00000000000000000, -4.000000000000000000 ) ) ;
#109 = EDGE_CURVE ( 'NONE', #410, #290, #862, .T. ) ;
#110 = AXIS2_PLACEMENT_3D ( 'NONE', #240, #232, #840 ) ;
#111 = ORIENTED_EDGE ( 'NONE', *, *, #937, .F. ) ;
#112 = PLANE ( 'NONE',  #962 ) ;
#113 = VECTOR ( 'NONE', #738, 1000.000000000000000 ) ;
#114 = COORDINATED_UNIVERSAL_TIME_OFFSET ( 5, 0, .BEHIND. ) ;
#115 = ORIENTED_EDGE ( 'NONE', *, *, #506, .F. ) ;
#116 = CARTESIAN_POINT ( 'NONE',  ( -96.00000000000000000, 0.000000000000000000, 46.00000000000001421 ) ) ;
#117 = EDGE_CURVE ( 'NONE', #450, #330, #492, .T. ) ;
#118 = PERSON_AND_ORGANIZATION ( #890, #143 ) ;
#119 = DIRECTION ( 'NONE',  ( 0.7071067811865474617, -0.000000000000000000, -0.7071067811865474617 ) ) ;
#120 = ORIENTED_EDGE ( 'NONE', *, *, #40, .F. ) ;
#121 = DIRECTION ( 'NONE',  ( 1.000000000000000000, 0.000000000000000000, -0.000000000000000000 ) ) ;
#122 = APPROVAL ( #479, 'UNSPECIFIED' ) ;
#123 = ORIENTED_EDGE ( 'NONE', *, *, #799, .T. ) ;
#124 = DIRECTION ( 'NONE',  ( 0.000000000000000000, 0.000000000000000000, -1.000000000000000000 ) ) ;
#125 = ORIENTED_EDGE ( 'NONE', *, *, #236, .T. ) ;
#126 = VECTOR ( 'NONE', #593, 1000.000000000000000 ) ;
#127 = ORIENTED_EDGE ( 'NONE', *, *, #148, .T. ) ;
#128 = CLOSED_SHELL ( 'NONE', ( #746, #54, #103, #566, #528, #253, #390, #758, #897, #370, #426, #842, #668, #638, #395, #595, #337, #656, #474, #162, #187, #323, #364, #78, #623, #225, #26, #494 ) ) ;
#129 = EDGE_CURVE ( 'NONE', #547, #551, #24, .T. ) ;
#130 = CARTESIAN_POINT ( 'NONE',  ( -34.75000000000000711, 0.000000000000000000, -25.75000000000001066 ) ) ;
#131 = ORIENTED_EDGE ( 'NONE', *, *, #451, .F. ) ;
#132 = VERTEX_POINT ( 'NONE', #36 ) ;
#133 = CARTESIAN_POINT ( 'NONE',  ( 0.000000000000000000, -4.000000000000000000, -4.000000000000000000 ) ) ;
#134 = LINE ( 'NONE', #69, #740 ) ;
#135 = EDGE_CURVE ( 'NONE', #348, #538, #328, .T. ) ;
#136 = EDGE_LOOP ( 'NONE', ( #736, #798, #127, #869 ) ) ;
#137 = ORIENTED_EDGE ( 'NONE', *, *, #309, .T. ) ;
#138 = CARTESIAN_POINT ( 'NONE',  ( -45.25000000000000711, 0.000000000000000000, -25.74999999999999645 ) ) ;
#139 = CARTESIAN_POINT ( 'NONE',  ( -100.0000000000000000, -4.000000000000000000, -3.999999999999988010 ) ) ;
#140 = ORIENTED_EDGE ( 'NONE', *, *, #861, .F. ) ;
#141 = DIRECTION ( 'NONE',  ( 1.000000000000000000, -0.000000000000000000, -3.304235192336776991E-16 ) ) ;
#142 = VECTOR ( 'NONE', #141, 1000.000000000000000 ) ;
#143 = ORGANIZATION ( 'UNSPECIFIED', 'UNSPECIFIED', '' ) ;
#144 = VECTOR ( 'NONE', #697, 1000.000000000000114 ) ;
#145 = CARTESIAN_POINT ( 'NONE',  ( 0.000000000000000000, 64.00000000000000000, 0.000000000000000000 ) ) ;
#146 = CARTESIAN_POINT ( 'NONE',  ( -45.25000000000000711, 1.157291225194246046E-15, -32.24999999999997868 ) ) ;
#147 = EDGE_LOOP ( 'NONE', ( #195, #971, #340, #860 ) ) ;
#148 = EDGE_CURVE ( 'NONE', #170, #388, #707, .T. ) ;
#149 = LINE ( 'NONE', #76, #329 ) ;
#150 = ORIENTED_EDGE ( 'NONE', *, *, #968, .F. ) ;
#151 = CARTESIAN_POINT ( 'NONE',  ( -27.50000000000000711, 0.000000000000000000, -36.99999999999999289 ) ) ;
#152 = EDGE_CURVE ( 'NONE', #640, #698, #273, .T. ) ;
#153 = COORDINATED_UNIVERSAL_TIME_OFFSET ( 5, 0, .BEHIND. ) ;
#154 = LINE ( 'NONE', #452, #315 ) ;
#155 = DIRECTION ( 'NONE',  ( 0.000000000000000000, -1.000000000000000000, 0.000000000000000000 ) ) ;
#156 = DIRECTION ( 'NONE',  ( -0.000000000000000000, 1.000000000000000000, -0.000000000000000000 ) ) ;
#157 = CC_DESIGN_PERSON_AND_ORGANIZATION_ASSIGNMENT ( #795, #56, ( #520 ) ) ;
#158 = VECTOR ( 'NONE', #819, 1000.000000000000000 ) ;
#159 = LINE ( 'NONE', #457, #301 ) ;
#160 = AXIS2_PLACEMENT_3D ( 'NONE', #835, #663, #308 ) ;
#161 = ORIENTED_EDGE ( 'NONE', *, *, #407, .F. ) ;
#162 = ADVANCED_FACE ( 'NONE', ( #546 ), #943, .F. ) ;
#163 = ORIENTED_EDGE ( 'NONE', *, *, #922, .T. ) ;
#164 = LINE ( 'NONE', #3, #690 ) ;
#165 = DIRECTION ( 'NONE',  ( -0.000000000000000000, 1.000000000000000000, 0.000000000000000000 ) ) ;
#166 = ORIENTED_EDGE ( 'NONE', *, *, #979, .F. ) ;
#167 = EDGE_CURVE ( 'NONE', #50, #477, #781, .T. ) ;
#168 = CARTESIAN_POINT ( 'NONE',  ( -52.50000000000000711, 0.000000000000000000, -37.00000000000000711 ) ) ;
#169 = DIRECTION ( 'NONE',  ( 0.000000000000000000, -1.000000000000000000, -0.000000000000000000 ) ) ;
#170 = VERTEX_POINT ( 'NONE', #701 ) ;
#171 = FACE_OUTER_BOUND ( 'NONE', #607, .T. ) ;
#172 =( NAMED_UNIT ( * ) SI_UNIT ( $, .STERADIAN. ) SOLID_ANGLE_UNIT ( ) );
#173 = VECTOR ( 'NONE', #614, 1000.000000000000000 ) ;
#174 = DIRECTION ( 'NONE',  ( -1.000000000000000000, 0.000000000000000000, -0.000000000000000000 ) ) ;
#175 = CARTESIAN_POINT ( 'NONE',  ( -34.75000000000001421, -4.000000000000000000, -13.99999999999999289 ) ) ;
#176 = EDGE_CURVE ( 'NONE', #402, #428, #776, .T. ) ;
#177 = DIRECTION ( 'NONE',  ( 1.000000000000000000, -0.000000000000000000, -1.214306433183764966E-16 ) ) ;
#178 = PLANE ( 'NONE',  #302 ) ;
#179 = APPROVAL_STATUS ( 'not_yet_approved' ) ;
#180 = ORIENTED_EDGE ( 'NONE', *, *, #606, .F. ) ;
#181 = LINE ( 'NONE', #242, #247 ) ;
#182 = EDGE_CURVE ( 'NONE', #688, #198, #857, .T. ) ;
#183 = DIRECTION ( 'NONE',  ( 1.214306433183764966E-16, -0.000000000000000000, 1.000000000000000000 ) ) ;
#184 = ORIENTED_EDGE ( 'NONE', *, *, #46, .T. ) ;
#185 = CARTESIAN_POINT ( 'NONE',  ( -45.25000000000001421, -4.000000000000000000, -17.24999999999998579 ) ) ;
#186 = DIRECTION ( 'NONE',  ( 1.000000000000000000, 0.000000000000000000, -1.214306433183764966E-16 ) ) ;
#187 = ADVANCED_FACE ( 'NONE', ( #255 ), #934, .F. ) ;
#188 = AXIS2_PLACEMENT_3D ( 'NONE', #359, #367, #414 ) ;
#189 = EDGE_LOOP ( 'NONE', ( #123, #563, #466, #825 ) ) ;
#190 = FACE_OUTER_BOUND ( 'NONE', #797, .T. ) ;
#191 = CARTESIAN_POINT ( 'NONE',  ( -17.50000000000005684, 0.000000000000000000, -6.999999999999998224 ) ) ;
#192 = DIRECTION ( 'NONE',  ( -0.7071067811865515695, -0.000000000000000000, 0.7071067811865435759 ) ) ;
#193 = EDGE_CURVE ( 'NONE', #650, #794, #649, .T. ) ;
#194 = ORIENTED_EDGE ( 'NONE', *, *, #291, .T. ) ;
#195 = ORIENTED_EDGE ( 'NONE', *, *, #979, .T. ) ;
#196 = PLANE ( 'NONE',  #30 ) ;
#197 = VERTEX_POINT ( 'NONE', #68 ) ;
#198 = VERTEX_POINT ( 'NONE', #130 ) ;
#199 = PERSON_AND_ORGANIZATION_ROLE ( 'classification_officer' ) ;
#200 = DIRECTION ( 'NONE',  ( -1.000000000000000000, 0.000000000000000000, 0.000000000000000000 ) ) ;
#201 = ORIENTED_EDGE ( 'NONE', *, *, #2, .F. ) ;
#202 = AXIS2_PLACEMENT_3D ( 'NONE', #846, #620, #467 ) ;
#203 = ORIENTED_EDGE ( 'NONE', *, *, #848, .T. ) ;
#204 = VECTOR ( 'NONE', #621, 1000.000000000000000 ) ;
#205 = EDGE_CURVE ( 'NONE', #650, #330, #947, .T. ) ;
#206 = AXIS2_PLACEMENT_3D ( 'NONE', #108, #183, #186 ) ;
#207 = CARTESIAN_POINT ( 'NONE',  ( -45.25000000000001421, 0.000000000000000000, -13.99999999999998934 ) ) ;
#208 = DIRECTION ( 'NONE',  ( 9.912705577010323084E-17, 0.000000000000000000, -1.000000000000000000 ) ) ;
#209 = ORIENTED_EDGE ( 'NONE', *, *, #702, .F. ) ;
#210 = EDGE_LOOP ( 'NONE', ( #496, #298, #413, #568, #940 ) ) ;
#211 = LINE ( 'NONE', #138, #504 ) ;
#212 = CARTESIAN_POINT ( 'NONE',  ( -59.50000000000003553, 0.000000000000000000, -6.999999999999988454 ) ) ;
#213 = ORIENTED_EDGE ( 'NONE', *, *, #231, .T. ) ;
#214 = PLANE ( 'NONE',  #160 ) ;
#215 = ORIENTED_EDGE ( 'NONE', *, *, #463, .F. ) ;
#216 = APPROVAL_DATE_TIME ( #737, #571 ) ;
#217 = CARTESIAN_POINT ( 'NONE',  ( -96.00000000000000000, 64.00000000000000000, 46.00000000000001421 ) ) ;
#218 = CARTESIAN_POINT ( 'NONE',  ( -45.25000000000000711, 1.157291225194246046E-15, -25.75000000000000355 ) ) ;
#219 = VERTEX_POINT ( 'NONE', #589 ) ;
#220 = CARTESIAN_POINT ( 'NONE',  ( -81.00000000000000000, 60.00000000000000000, 0.000000000000000000 ) ) ;
#221 = VECTOR ( 'NONE', #263, 1000.000000000000000 ) ;
#222 = VECTOR ( 'NONE', #18, 1000.000000000000000 ) ;
#223 = FACE_BOUND ( 'NONE', #356, .T. ) ;
#224 = ORIENTED_EDGE ( 'NONE', *, *, #435, .F. ) ;
#225 = ADVANCED_FACE ( 'NONE', ( #497 ), #812, .F. ) ;
#226 = CARTESIAN_POINT ( 'NONE',  ( -62.50000000000008527, -4.000000000000000000, -3.999999999999992450 ) ) ;
#227 = CARTESIAN_POINT ( 'NONE',  ( -45.25000000000000711, -4.000000000000000000, -32.24999999999998579 ) ) ;
#228 = DIRECTION ( 'NONE',  ( 0.000000000000000000, -1.000000000000000000, 0.000000000000000000 ) ) ;
#229 = FACE_OUTER_BOUND ( 'NONE', #518, .T. ) ;
#230 = CC_DESIGN_PERSON_AND_ORGANIZATION_ASSIGNMENT ( #875, #199, ( #643 ) ) ;
#231 = EDGE_CURVE ( 'NONE', #345, #688, #211, .T. ) ;
#232 = DIRECTION ( 'NONE',  ( 0.000000000000000000, -1.000000000000000000, 0.000000000000000000 ) ) ;
#233 = FACE_OUTER_BOUND ( 'NONE', #241, .T. ) ;
#234 = DIRECTION ( 'NONE',  ( 0.000000000000000000, 0.000000000000000000, -1.000000000000000000 ) ) ;
#235 = AXIS2_PLACEMENT_3D ( 'NONE', #904, #156, #749 ) ;
#236 = EDGE_CURVE ( 'NONE', #219, #646, #358, .T. ) ;
#237 = LINE ( 'NONE', #254, #63 ) ;
#238 = VERTEX_POINT ( 'NONE', #145 ) ;
#239 = DIRECTION ( 'NONE',  ( -0.7071067811865435759, 0.000000000000000000, -0.7071067811865515695 ) ) ;
#240 = CARTESIAN_POINT ( 'NONE',  ( 0.000000000000000000, 60.00000000000000000, 0.000000000000000000 ) ) ;
#241 = EDGE_LOOP ( 'NONE', ( #61, #713, #276, #99 ) ) ;
#242 = CARTESIAN_POINT ( 'NONE',  ( -27.50000000000000711, 0.000000000000000000, -36.99999999999999289 ) ) ;
#243 = DIRECTION ( 'NONE',  ( 1.000000000000000000, -0.000000000000000000, -0.000000000000000000 ) ) ;
#244 = CARTESIAN_POINT ( 'NONE',  ( -96.00000000000000000, 64.00000000000000000, 0.000000000000000000 ) ) ;
#245 = DIRECTION ( 'NONE',  ( 1.000000000000000000, -0.000000000000000000, -3.304235192336776991E-16 ) ) ;
#246 = CARTESIAN_POINT ( 'NONE',  ( -18.74264068711932651, 1.411901807356133067E-15, -5.242640687119282106 ) ) ;
#247 = VECTOR ( 'NONE', #704, 1000.000000000000000 ) ;
#248 = FACE_OUTER_BOUND ( 'NONE', #210, .T. ) ;
#249 = LOCAL_TIME ( 12, 13, 3.000000000000000000, #97 ) ;
#250 = ORIENTED_EDGE ( 'NONE', *, *, #84, .F. ) ;
#251 = CARTESIAN_POINT ( 'NONE',  ( -52.50000000000000711, 0.000000000000000000, -37.00000000000000711 ) ) ;
#252 = AXIS2_PLACEMENT_3D ( 'NONE', #511, #124, #963 ) ;
#253 = ADVANCED_FACE ( 'NONE', ( #796 ), #644, .F. ) ;
#254 = CARTESIAN_POINT ( 'NONE',  ( -45.25000000000001421, 0.000000000000000000, -10.74999999999999467 ) ) ;
#255 = FACE_OUTER_BOUND ( 'NONE', #105, .T. ) ;
#256 = DESIGN_CONTEXT ( 'detailed design', #453, 'design' ) ;
#257 = ORIENTED_EDGE ( 'NONE', *, *, #574, .T. ) ;
#258 = CARTESIAN_POINT ( 'NONE',  ( -34.75000000000001421, 0.000000000000000000, -13.99999999999999289 ) ) ;
#259 = EDGE_CURVE ( 'NONE', #360, #316, #366, .T. ) ;
#260 = CALENDAR_DATE ( 2026, 6, 7 ) ;
#261 = FACE_OUTER_BOUND ( 'NONE', #664, .T. ) ;
#262 = VERTEX_POINT ( 'NONE', #969 ) ;
#263 = DIRECTION ( 'NONE',  ( 0.000000000000000000, 1.000000000000000000, 0.000000000000000000 ) ) ;
#264 = DATE_TIME_ROLE ( 'creation_date' ) ;
#265 = EDGE_CURVE ( 'NONE', #197, #721, #292, .T. ) ;
#266 = CARTESIAN_POINT ( 'NONE',  ( -34.75000000000000711, 0.000000000000000000, -28.99999999999998934 ) ) ;
#267 = CIRCLE ( 'NONE', #405, 3.249999999999988898 ) ;
#268 = ORIENTED_EDGE ( 'NONE', *, *, #382, .T. ) ;
#269 = LOCAL_TIME ( 12, 13, 3.000000000000000000, #867 ) ;
#270 = VECTOR ( 'NONE', #286, 1000.000000000000000 ) ;
#271 = CARTESIAN_POINT ( 'NONE',  ( -96.00000000000000000, 60.00000000000000000, 0.000000000000000000 ) ) ;
#272 = ORIENTED_EDGE ( 'NONE', *, *, #909, .T. ) ;
#273 =( BOUNDED_CURVE ( )  B_SPLINE_CURVE ( 3, ( #339, #98, #639, #416 ),
 .UNSPECIFIED., .F., .T. ) 
 B_SPLINE_CURVE_WITH_KNOTS ( ( 4, 4 ),
 ( 3.141592653589793116, 4.712388980384688786 ),
 .UNSPECIFIED. ) 
 CURVE ( )  GEOMETRIC_REPRESENTATION_ITEM ( )  RATIONAL_B_SPLINE_CURVE ( ( 1.000000000000000000, 0.8047378541243652705, 0.8047378541243652705, 1.000000000000000000 ) ) 
 REPRESENTATION_ITEM ( '' )  );
#274 = VERTEX_POINT ( 'NONE', #725 ) ;
#275 = CARTESIAN_POINT ( 'NONE',  ( -81.00000000000000000, 64.00000000000000000, 0.000000000000000000 ) ) ;
#276 = ORIENTED_EDGE ( 'NONE', *, *, #283, .F. ) ;
#277 = EDGE_CURVE ( 'NONE', #652, #646, #445, .T. ) ;
#278 = ORIENTED_EDGE ( 'NONE', *, *, #435, .T. ) ;
#279 = CARTESIAN_POINT ( 'NONE',  ( -81.00000000000001421, 64.00000000000000000, 6.938893903907228378E-15 ) ) ;
#280 = FACE_OUTER_BOUND ( 'NONE', #509, .T. ) ;
#281 = EDGE_LOOP ( 'NONE', ( #728, #828, #184, #33, #907, #858, #874, #88, #163, #918, #778, #960 ) ) ;
#282 = AXIS2_PLACEMENT_3D ( 'NONE', #49, #955, #299 ) ;
#283 = EDGE_CURVE ( 'NONE', #485, #567, #743, .T. ) ;
#284 = ORIENTED_EDGE ( 'NONE', *, *, #231, .F. ) ;
#285 = VECTOR ( 'NONE', #757, 1000.000000000000000 ) ;
#286 = DIRECTION ( 'NONE',  ( -0.000000000000000000, -1.000000000000000000, -0.000000000000000000 ) ) ;
#287 = PLANE ( 'NONE',  #188 ) ;
#288 = ORIENTED_EDGE ( 'NONE', *, *, #961, .T. ) ;
#289 = PLANE ( 'NONE',  #578 ) ;
#290 = VERTEX_POINT ( 'NONE', #516 ) ;
#291 = EDGE_CURVE ( 'NONE', #745, #5, #431, .T. ) ;
#292 = LINE ( 'NONE', #952, #803 ) ;
#293 = LINE ( 'NONE', #508, #361 ) ;
#294 = ORIENTED_EDGE ( 'NONE', *, *, #710, .F. ) ;
#295 = DIRECTION ( 'NONE',  ( -0.000000000000000000, -1.000000000000000000, -0.000000000000000000 ) ) ;
#296 = CARTESIAN_POINT ( 'NONE',  ( -45.25000000000001421, 1.157291225194246046E-15, -10.75000000000000000 ) ) ;
#297 = PRODUCT_DEFINITION ( 'UNKNOWN', '', #520, #256 ) ;
#298 = ORIENTED_EDGE ( 'NONE', *, *, #931, .T. ) ;
#299 = DIRECTION ( 'NONE',  ( 0.000000000000000000, -0.000000000000000000, 1.000000000000000000 ) ) ;
#300 = VECTOR ( 'NONE', #81, 1000.000000000000000 ) ;
#301 = VECTOR ( 'NONE', #392, 1000.000000000000000 ) ;
#302 = AXIS2_PLACEMENT_3D ( 'NONE', #406, #192, #412 ) ;
#303 = LINE ( 'NONE', #916, #705 ) ;
#304 = LINE ( 'NONE', #913, #545 ) ;
#305 = EDGE_CURVE ( 'NONE', #388, #368, #427, .T. ) ;
#306 = DIRECTION ( 'NONE',  ( 0.000000000000000000, 0.000000000000000000, 1.000000000000000000 ) ) ;
#307 = ORIENTED_EDGE ( 'NONE', *, *, #905, .T. ) ;
#308 = DIRECTION ( 'NONE',  ( 0.000000000000000000, 0.000000000000000000, 1.000000000000000000 ) ) ;
#309 = EDGE_CURVE ( 'NONE', #726, #342, #565, .T. ) ;
#310 = DIRECTION ( 'NONE',  ( 1.000000000000000000, 0.000000000000000000, -1.214306433183764966E-16 ) ) ;
#311 = LINE ( 'NONE', #83, #532 ) ;
#312 = DIRECTION ( 'NONE',  ( -9.912705577010323084E-17, -0.000000000000000000, 1.000000000000000000 ) ) ;
#313 = AXIS2_PLACEMENT_3D ( 'NONE', #744, #336, #964 ) ;
#314 = DIRECTION ( 'NONE',  ( 0.000000000000000000, -1.000000000000000000, 0.000000000000000000 ) ) ;
#315 = VECTOR ( 'NONE', #750, 1000.000000000000000 ) ;
#316 = VERTEX_POINT ( 'NONE', #279 ) ;
#317 = CARTESIAN_POINT ( 'NONE',  ( -96.00000000000000000, 60.00000000000000000, 15.00000000000000000 ) ) ;
#318 = CARTESIAN_POINT ( 'NONE',  ( -45.25000000000000711, -4.000000000000000000, -25.74999999999998934 ) ) ;
#319 = ORIENTED_EDGE ( 'NONE', *, *, #823, .F. ) ;
#320 = CARTESIAN_POINT ( 'NONE',  ( -50.50000000000000000, -4.000000000000000000, -38.99999999999999289 ) ) ;
#321 = CALENDAR_DATE ( 2026, 6, 7 ) ;
#322 = CARTESIAN_POINT ( 'NONE',  ( -17.50000000000005684, 64.00000000000000000, -3.999999999999998224 ) ) ;
#323 = ADVANCED_FACE ( 'NONE', ( #871 ), #196, .F. ) ;
#324 = ORIENTED_EDGE ( 'NONE', *, *, #277, .T. ) ;
#325 = CARTESIAN_POINT ( 'NONE',  ( -27.50000000000001066, -4.000000000000000000, -14.00000000000006217 ) ) ;
#326 = ORIENTED_EDGE ( 'NONE', *, *, #582, .T. ) ;
#327 = VECTOR ( 'NONE', #936, 1000.000000000000000 ) ;
#328 = LINE ( 'NONE', #852, #836 ) ;
#329 = VECTOR ( 'NONE', #449, 1000.000000000000000 ) ;
#330 = VERTEX_POINT ( 'NONE', #501 ) ;
#331 = CARTESIAN_POINT ( 'NONE',  ( -34.75000000000001421, 1.157291225194246046E-15, -17.24999999999998224 ) ) ;
#332 = DIRECTION ( 'NONE',  ( 0.000000000000000000, 0.000000000000000000, 1.000000000000000000 ) ) ;
#333 = DIRECTION ( 'NONE',  ( -1.000000000000000000, -0.000000000000000000, -0.000000000000000000 ) ) ;
#334 =( BOUNDED_CURVE ( )  B_SPLINE_CURVE ( 3, ( #926, #246, #491, #475 ),
 .UNSPECIFIED., .F., .F. ) 
 B_SPLINE_CURVE_WITH_KNOTS ( ( 4, 4 ),
 ( 4.712388980384689674, 6.283185307179586232 ),
 .UNSPECIFIED. ) 
 CURVE ( )  GEOMETRIC_REPRESENTATION_ITEM ( )  RATIONAL_B_SPLINE_CURVE ( ( 1.000000000000000000, 0.8047378541243649375, 0.8047378541243649375, 1.000000000000000000 ) ) 
 REPRESENTATION_ITEM ( '' )  );
#335 = ORIENTED_EDGE ( 'NONE', *, *, #506, .T. ) ;
#336 = DIRECTION ( 'NONE',  ( -0.000000000000000000, 1.000000000000000000, -0.000000000000000000 ) ) ;
#337 = ADVANCED_FACE ( 'NONE', ( #575 ), #51, .F. ) ;
#338 = APPROVAL_ROLE ( '' ) ;
#339 = CARTESIAN_POINT ( 'NONE',  ( -62.50000000000008527, 3.000000000000002665, -3.999999999999992450 ) ) ;
#340 = ORIENTED_EDGE ( 'NONE', *, *, #681, .T. ) ;
#341 = FACE_OUTER_BOUND ( 'NONE', #811, .T. ) ;
#342 = VERTEX_POINT ( 'NONE', #133 ) ;
#343 = DIRECTION ( 'NONE',  ( -0.000000000000000000, 1.000000000000000000, -0.000000000000000000 ) ) ;
#344 = VECTOR ( 'NONE', #976, 1000.000000000000114 ) ;
#345 = VERTEX_POINT ( 'NONE', #38 ) ;
#346 = VECTOR ( 'NONE', #177, 1000.000000000000000 ) ;
#347 = FACE_OUTER_BOUND ( 'NONE', #281, .T. ) ;
#348 = VERTEX_POINT ( 'NONE', #557 ) ;
#349 = DIRECTION ( 'NONE',  ( -0.000000000000000000, 0.000000000000000000, -1.000000000000000000 ) ) ;
#350 = VERTEX_POINT ( 'NONE', #429 ) ;
#351 = PLANE ( 'NONE',  #282 ) ;
#352 = VERTEX_POINT ( 'NONE', #727 ) ;
#353 = DIRECTION ( 'NONE',  ( -0.000000000000000000, -1.000000000000000000, -0.000000000000000000 ) ) ;
#354 = CARTESIAN_POINT ( 'NONE',  ( -27.50000000000001066, 0.000000000000000000, -3.999999999999984457 ) ) ;
#355 = EDGE_CURVE ( 'NONE', #794, #450, #715, .T. ) ;
#356 = EDGE_LOOP ( 'NONE', ( #161, #756, #307, #66 ) ) ;
#357 = ORIENTED_EDGE ( 'NONE', *, *, #513, .T. ) ;
#358 = LINE ( 'NONE', #658, #915 ) ;
#359 = CARTESIAN_POINT ( 'NONE',  ( -52.50000000000000711, 0.000000000000000000, -3.999999999999988010 ) ) ;
#360 = VERTEX_POINT ( 'NONE', #495 ) ;
#361 = VECTOR ( 'NONE', #958, 1000.000000000000000 ) ;
#362 = CC_DESIGN_APPROVAL ( #122, ( #297 ) ) ;
#363 = ORIENTED_EDGE ( 'NONE', *, *, #716, .T. ) ;
#364 = ADVANCED_FACE ( 'NONE', ( #341 ), #946, .F. ) ;
#365 = VECTOR ( 'NONE', #730, 1000.000000000000000 ) ;
#366 = LINE ( 'NONE', #275, #490 ) ;
#367 = DIRECTION ( 'NONE',  ( -1.000000000000000000, 0.000000000000000000, -0.000000000000000000 ) ) ;
#368 = VERTEX_POINT ( 'NONE', #572 ) ;
#369 = CARTESIAN_POINT ( 'NONE',  ( -6.750000000000127010, -4.000000000000000000, 6.750000000000051514 ) ) ;
#370 = ADVANCED_FACE ( 'NONE', ( #418, #720, #347 ), #351, .F. ) ;
#371 = LINE ( 'NONE', #584, #221 ) ;
#372 = ORIENTED_EDGE ( 'NONE', *, *, #109, .F. ) ;
#373 = CARTESIAN_POINT ( 'NONE',  ( -52.50000000000000711, 0.000000000000000000, -38.99999999999999289 ) ) ;
#374 = LINE ( 'NONE', #683, #423 ) ;
#375 = CC_DESIGN_DATE_AND_TIME_ASSIGNMENT ( #619, #923, ( #643 ) ) ;
#376 = ORIENTED_EDGE ( 'NONE', *, *, #451, .T. ) ;
#377 = CARTESIAN_POINT ( 'NONE',  ( -96.00000000000000000, 64.00000000000000000, 0.000000000000000000 ) ) ;
#378 = AXIS2_PLACEMENT_3D ( 'NONE', #941, #789, #533 ) ;
#379 = VECTOR ( 'NONE', #119, 1000.000000000000114 ) ;
#380 = CARTESIAN_POINT ( 'NONE',  ( -45.25000000000000711, -4.000000000000000000, -28.99999999999998934 ) ) ;
#381 = LINE ( 'NONE', #530, #285 ) ;
#382 = EDGE_CURVE ( 'NONE', #555, #551, #164, .T. ) ;
#383 = CARTESIAN_POINT ( 'NONE',  ( -34.75000000000000711, -4.000000000000000000, -32.24999999999998579 ) ) ;
#384 = LINE ( 'NONE', #827, #880 ) ;
#385 = ORIENTED_EDGE ( 'NONE', *, *, #401, .F. ) ;
#386 = FACE_OUTER_BOUND ( 'NONE', #44, .T. ) ;
#387 = DIRECTION ( 'NONE',  ( 0.000000000000000000, -0.000000000000000000, 1.000000000000000000 ) ) ;
#388 = VERTEX_POINT ( 'NONE', #899 ) ;
#389 = LINE ( 'NONE', #317, #327 ) ;
#390 = ADVANCED_FACE ( 'NONE', ( #229 ), #214, .F. ) ;
#391 = VECTOR ( 'NONE', #762, 1000.000000000000000 ) ;
#392 = DIRECTION ( 'NONE',  ( -0.000000000000000000, -0.000000000000000000, -1.000000000000000000 ) ) ;
#393 = VERTEX_POINT ( 'NONE', #908 ) ;
#394 = DIRECTION ( 'NONE',  ( -0.000000000000000000, 1.000000000000000000, -0.000000000000000000 ) ) ;
#395 = ADVANCED_FACE ( 'NONE', ( #816 ), #289, .T. ) ;
#396 = APPROVAL_DATE_TIME ( #706, #122 ) ;
#397 = DIRECTION ( 'NONE',  ( 0.7071067811865451302, -0.000000000000000000, 0.7071067811865500152 ) ) ;
#398 = EDGE_LOOP ( 'NONE', ( #700, #708, #810, #166 ) ) ;
#399 = CARTESIAN_POINT ( 'NONE',  ( -52.50000000000000711, -4.000000000000000000, -37.00000000000000711 ) ) ;
#400 = DIRECTION ( 'NONE',  ( 1.000000000000000000, -0.000000000000000000, -0.000000000000000000 ) ) ;
#401 = EDGE_CURVE ( 'NONE', #650, #688, #543, .T. ) ;
#402 = VERTEX_POINT ( 'NONE', #151 ) ;
#403 = DIRECTION ( 'NONE',  ( -1.000000000000000000, 0.000000000000000000, 0.000000000000000000 ) ) ;
#404 = DIRECTION ( 'NONE',  ( 1.000000000000000000, 0.000000000000000000, 0.000000000000000000 ) ) ;
#405 = AXIS2_PLACEMENT_3D ( 'NONE', #590, #900, #883 ) ;
#406 = CARTESIAN_POINT ( 'NONE',  ( -27.50000000000001066, 0.000000000000000000, -14.00000000000006395 ) ) ;
#407 = EDGE_CURVE ( 'NONE', #719, #579, #515, .T. ) ;
#408 = ORIENTED_EDGE ( 'NONE', *, *, #878, .T. ) ;
#409 = CARTESIAN_POINT ( 'NONE',  ( -45.25000000000001421, 0.000000000000000000, -17.24999999999998579 ) ) ;
#410 = VERTEX_POINT ( 'NONE', #226 ) ;
#411 = CARTESIAN_POINT ( 'NONE',  ( 0.000000000000000000, 0.000000000000000000, 0.000000000000000000 ) ) ;
#412 = DIRECTION ( 'NONE',  ( 0.000000000000000000, -1.000000000000000000, -0.000000000000000000 ) ) ;
#413 = ORIENTED_EDGE ( 'NONE', *, *, #60, .F. ) ;
#414 = DIRECTION ( 'NONE',  ( -0.000000000000000000, 0.000000000000000000, 1.000000000000000000 ) ) ;
#415 = LINE ( 'NONE', #942, #204 ) ;
#416 = CARTESIAN_POINT ( 'NONE',  ( -59.50000000000003553, 0.000000000000000000, -6.999999999999988454 ) ) ;
#417 = ORIENTED_EDGE ( 'NONE', *, *, #277, .F. ) ;
#418 = FACE_BOUND ( 'NONE', #613, .T. ) ;
#419 = EDGE_LOOP ( 'NONE', ( #804, #385, #648, #454 ) ) ;
#420 = CARTESIAN_POINT ( 'NONE',  ( -96.00000000000000000, 0.000000000000000000, 0.000000000000000000 ) ) ;
#421 = AXIS2_PLACEMENT_3D ( 'NONE', #220, #455, #754 ) ;
#422 = EDGE_LOOP ( 'NONE', ( #488, #872, #436, #951, #194, #741 ) ) ;
#423 = VECTOR ( 'NONE', #755, 1000.000000000000000 ) ;
#424 = VECTOR ( 'NONE', #333, 1000.000000000000000 ) ;
#425 = VERTEX_POINT ( 'NONE', #586 ) ;
#426 = ADVANCED_FACE ( 'NONE', ( #671 ), #759, .T. ) ;
#427 = LINE ( 'NONE', #271, #95 ) ;
#428 = VERTEX_POINT ( 'NONE', #605 ) ;
#429 = CARTESIAN_POINT ( 'NONE',  ( -17.50000000000005684, 3.000000000000002665, -3.999999999999998224 ) ) ;
#430 = ORIENTED_EDGE ( 'NONE', *, *, #686, .F. ) ;
#431 = LINE ( 'NONE', #420, #822 ) ;
#432 = PLANE ( 'NONE',  #945 ) ;
#433 = UNCERTAINTY_MEASURE_WITH_UNIT (LENGTH_MEASURE( 1.000000000000000082E-05 ), #107, 'distance_accuracy_value', 'NONE');
#434 = ORIENTED_EDGE ( 'NONE', *, *, #782, .F. ) ;
#435 = EDGE_CURVE ( 'NONE', #197, #555, #980, .T. ) ;
#436 = ORIENTED_EDGE ( 'NONE', *, *, #305, .T. ) ;
#437 = CARTESIAN_POINT ( 'NONE',  ( -45.25000000000000711, 0.000000000000000000, -32.24999999999998579 ) ) ;
#438 = DIRECTION ( 'NONE',  ( 0.7071067811865431318, 0.000000000000000000, 0.7071067811865519026 ) ) ;
#439 = ORIENTED_EDGE ( 'NONE', *, *, #135, .F. ) ;
#440 = VECTOR ( 'NONE', #312, 1000.000000000000000 ) ;
#441 = EDGE_CURVE ( 'NONE', #388, #316, #443, .T. ) ;
#442 = VECTOR ( 'NONE', #306, 1000.000000000000000 ) ;
#443 = LINE ( 'NONE', #524, #559 ) ;
#444 = COORDINATED_UNIVERSAL_TIME_OFFSET ( 5, 0, .BEHIND. ) ;
#445 = LINE ( 'NONE', #217, #270 ) ;
#446 = CARTESIAN_POINT ( 'NONE',  ( -96.00000000000000000, 64.00000000000000000, 46.00000000000001421 ) ) ;
#447 = ORIENTED_EDGE ( 'NONE', *, *, #823, .T. ) ;
#448 = PLANE ( 'NONE',  #723 ) ;
#449 = DIRECTION ( 'NONE',  ( -0.000000000000000000, -1.000000000000000000, -0.000000000000000000 ) ) ;
#450 = VERTEX_POINT ( 'NONE', #383 ) ;
#451 = EDGE_CURVE ( 'NONE', #646, #745, #682, .T. ) ;
#452 = CARTESIAN_POINT ( 'NONE',  ( -33.24999999999964473, 0.000000000000000000, -33.25000000000005684 ) ) ;
#453 = APPLICATION_CONTEXT ( 'configuration controlled 3d designs of mechanical parts and assemblies' ) ;
#454 = ORIENTED_EDGE ( 'NONE', *, *, #673, .F. ) ;
#455 = DIRECTION ( 'NONE',  ( 0.7071067811865475727, -0.000000000000000000, 0.7071067811865475727 ) ) ;
#456 = VECTOR ( 'NONE', #169, 1000.000000000000000 ) ;
#457 = CARTESIAN_POINT ( 'NONE',  ( -100.0000000000000000, -4.000000000000000000, -3.999999999999988010 ) ) ;
#458 = EDGE_CURVE ( 'NONE', #500, #22, #966, .T. ) ;
#459 = ORIENTED_EDGE ( 'NONE', *, *, #751, .F. ) ;
#460 = CARTESIAN_POINT ( 'NONE',  ( -17.50000000000005684, -4.000000000000000000, -3.999999999999998224 ) ) ;
#461 = LINE ( 'NONE', #318, #469 ) ;
#462 = DIRECTION ( 'NONE',  ( 0.7071067811865451302, 0.000000000000000000, 0.7071067811865500152 ) ) ;
#463 = EDGE_CURVE ( 'NONE', #368, #745, #892, .T. ) ;
#464 = LINE ( 'NONE', #251, #391 ) ;
#465 = LINE ( 'NONE', #763, #442 ) ;
#466 = ORIENTED_EDGE ( 'NONE', *, *, #953, .F. ) ;
#467 = DIRECTION ( 'NONE',  ( 0.000000000000000000, 0.000000000000000000, 1.000000000000000000 ) ) ;
#468 = CC_DESIGN_PERSON_AND_ORGANIZATION_ASSIGNMENT ( #470, #856, ( #925 ) ) ;
#469 = VECTOR ( 'NONE', #243, 1000.000000000000000 ) ;
#470 = PERSON_AND_ORGANIZATION ( #890, #143 ) ;
#471 = APPROVAL_PERSON_ORGANIZATION ( #845, #96, #777 ) ;
#472 = DIRECTION ( 'NONE',  ( 0.7071067811865519026, 0.000000000000000000, -0.7071067811865431318 ) ) ;
#473 = CARTESIAN_POINT ( 'NONE',  ( -45.25000000000001421, 1.157291225194246046E-15, -17.24999999999997868 ) ) ;
#474 = ADVANCED_FACE ( 'NONE', ( #592 ), #448, .F. ) ;
#475 = CARTESIAN_POINT ( 'NONE',  ( -17.50000000000005684, 3.000000000000002665, -3.999999999999998224 ) ) ;
#476 = DIRECTION ( 'NONE',  ( 0.000000000000000000, 0.000000000000000000, -1.000000000000000000 ) ) ;
#477 = VERTEX_POINT ( 'NONE', #598 ) ;
#478 = CARTESIAN_POINT ( 'NONE',  ( -27.50000000000001066, 0.000000000000000000, -3.999999999999984457 ) ) ;
#479 = APPROVAL_STATUS ( 'not_yet_approved' ) ;
#480 = EDGE_CURVE ( 'NONE', #198, #393, #106, .T. ) ;
#481 = CARTESIAN_POINT ( 'NONE',  ( -45.25000000000000711, 0.000000000000000000, -28.99999999999998934 ) ) ;
#482 = ORIENTED_EDGE ( 'NONE', *, *, #117, .F. ) ;
#483 = CYLINDRICAL_SURFACE ( 'NONE', #91, 3.000000000000000000 ) ;
#484 = APPLICATION_CONTEXT ( 'configuration controlled 3d designs of mechanical parts and assemblies' ) ;
#485 = VERTEX_POINT ( 'NONE', #399 ) ;
#486 = CIRCLE ( 'NONE', #202, 3.249999999999988898 ) ;
#487 = CARTESIAN_POINT ( 'NONE',  ( -33.24999999999964473, -4.000000000000000000, -33.25000000000005684 ) ) ;
#488 = ORIENTED_EDGE ( 'NONE', *, *, #582, .F. ) ;
#489 = CARTESIAN_POINT ( 'NONE',  ( -27.50000000000001066, 0.000000000000000000, -14.00000000000006217 ) ) ;
#490 = VECTOR ( 'NONE', #665, 1000.000000000000114 ) ;
#491 = CARTESIAN_POINT ( 'NONE',  ( -17.50000000000005684, 1.242640687119287213, -3.999999999999998224 ) ) ;
#492 = LINE ( 'NONE', #718, #13 ) ;
#493 = ORIENTED_EDGE ( 'NONE', *, *, #917, .F. ) ;
#494 = ADVANCED_FACE ( 'NONE', ( #699 ), #483, .F. ) ;
#495 = CARTESIAN_POINT ( 'NONE',  ( -96.00000000000000000, 64.00000000000000000, 15.00000000000000000 ) ) ;
#496 = ORIENTED_EDGE ( 'NONE', *, *, #513, .F. ) ;
#497 = FACE_OUTER_BOUND ( 'NONE', #935, .T. ) ;
#498 = ORIENTED_EDGE ( 'NONE', *, *, #309, .F. ) ;
#499 = EDGE_CURVE ( 'NONE', #477, #402, #181, .T. ) ;
#500 = VERTEX_POINT ( 'NONE', #325 ) ;
#501 = CARTESIAN_POINT ( 'NONE',  ( -34.75000000000000711, 0.000000000000000000, -32.24999999999998579 ) ) ;
#502 = VECTOR ( 'NONE', #537, 1000.000000000000000 ) ;
#503 = ORIENTED_EDGE ( 'NONE', *, *, #968, .T. ) ;
#504 = VECTOR ( 'NONE', #583, 1000.000000000000000 ) ;
#505 = ORIENTED_EDGE ( 'NONE', *, *, #135, .T. ) ;
#506 = EDGE_CURVE ( 'NONE', #402, #667, #685, .T. ) ;
#507 = DIRECTION ( 'NONE',  ( -0.000000000000000000, 1.000000000000000000, -0.000000000000000000 ) ) ;
#508 = CARTESIAN_POINT ( 'NONE',  ( -96.00000000000000000, 64.00000000000000000, 46.00000000000001421 ) ) ;
#509 = EDGE_LOOP ( 'NONE', ( #505, #748, #120, #37 ) ) ;
#510 = ORIENTED_EDGE ( 'NONE', *, *, #176, .F. ) ;
#511 = CARTESIAN_POINT ( 'NONE',  ( -100.0000000000000000, 64.00000000000000000, 46.00000000000001421 ) ) ;
#512 = DIRECTION ( 'NONE',  ( 0.000000000000000000, -1.000000000000000000, 0.000000000000000000 ) ) ;
#513 = EDGE_CURVE ( 'NONE', #425, #667, #6, .T. ) ;
#514 = VERTEX_POINT ( 'NONE', #473 ) ;
#515 = LINE ( 'NONE', #75, #142 ) ;
#516 = CARTESIAN_POINT ( 'NONE',  ( -52.50000000000000711, -4.000000000000000000, -13.99999999999994671 ) ) ;
#517 = LINE ( 'NONE', #734, #847 ) ;
#518 = EDGE_LOOP ( 'NONE', ( #783, #257, #523, #324, #376, #215 ) ) ;
#519 = VECTOR ( 'NONE', #295, 1000.000000000000000 ) ;
#520 = PRODUCT_DEFINITION_FORMATION_WITH_SPECIFIED_SOURCE ( 'ANY', '', #925, .NOT_KNOWN. ) ;
#521 = CARTESIAN_POINT ( 'NONE',  ( -100.0000000000000000, 64.00000000000000000, -3.999999999999988010 ) ) ;
#522 = FACE_BOUND ( 'NONE', #419, .T. ) ;
#523 = ORIENTED_EDGE ( 'NONE', *, *, #651, .F. ) ;
#524 = CARTESIAN_POINT ( 'NONE',  ( -81.00000000000000000, 60.00000000000000000, 0.000000000000000000 ) ) ;
#525 = DIRECTION ( 'NONE',  ( 0.000000000000000000, 0.000000000000000000, 1.000000000000000000 ) ) ;
#526 = CARTESIAN_POINT ( 'NONE',  ( -52.50000000000000711, 0.000000000000000000, -37.00000000000000711 ) ) ;
#527 = DIRECTION ( 'NONE',  ( 0.000000000000000000, 0.000000000000000000, -1.000000000000000000 ) ) ;
#528 = ADVANCED_FACE ( 'NONE', ( #171 ), #17, .F. ) ;
#529 = CARTESIAN_POINT ( 'NONE',  ( -62.50000000000008527, 64.00000000000000000, -3.999999999999992450 ) ) ;
#530 = CARTESIAN_POINT ( 'NONE',  ( -52.50000000000000711, -4.000000000000000000, -3.999999999999988010 ) ) ;
#531 = AXIS2_PLACEMENT_3D ( 'NONE', #837, #165, #387 ) ;
#532 = VECTOR ( 'NONE', #535, 1000.000000000000000 ) ;
#533 = DIRECTION ( 'NONE',  ( 0.000000000000000000, 0.000000000000000000, 1.000000000000000000 ) ) ;
#534 = EDGE_CURVE ( 'NONE', #514, #719, #486, .T. ) ;
#535 = DIRECTION ( 'NONE',  ( -9.912705577010323084E-17, -0.000000000000000000, 1.000000000000000000 ) ) ;
#536 = DIRECTION ( 'NONE',  ( 1.000000000000000000, 0.000000000000000000, 0.000000000000000000 ) ) ;
#537 = DIRECTION ( 'NONE',  ( 1.000000000000000000, 0.000000000000000000, 0.000000000000000000 ) ) ;
#538 = VERTEX_POINT ( 'NONE', #168 ) ;
#539 = FACE_OUTER_BOUND ( 'NONE', #398, .T. ) ;
#540 = LINE ( 'NONE', #717, #222 ) ;
#541 = DIRECTION ( 'NONE',  ( 0.000000000000000000, 0.000000000000000000, 1.000000000000000000 ) ) ;
#542 = LINE ( 'NONE', #772, #800 ) ;
#543 = CIRCLE ( 'NONE', #235, 3.249999999999988898 ) ;
#544 = AXIS2_PLACEMENT_3D ( 'NONE', #411, #332, #404 ) ;
#545 = VECTOR ( 'NONE', #228, 1000.000000000000000 ) ;
#546 = FACE_OUTER_BOUND ( 'NONE', #901, .T. ) ;
#547 = VERTEX_POINT ( 'NONE', #100 ) ;
#548 = CARTESIAN_POINT ( 'NONE',  ( -34.75000000000001421, 0.000000000000000000, -10.75000000000003730 ) ) ;
#549 = CARTESIAN_POINT ( 'NONE',  ( -52.50000000000000711, -4.000000000000000000, -38.99999999999999289 ) ) ;
#550 = FACE_OUTER_BOUND ( 'NONE', #422, .T. ) ;
#551 = VERTEX_POINT ( 'NONE', #765 ) ;
#552 = DIRECTION ( 'NONE',  ( 0.000000000000000000, 0.000000000000000000, 1.000000000000000000 ) ) ;
#553 = DIRECTION ( 'NONE',  ( 1.000000000000000000, 0.000000000000000000, 0.000000000000000000 ) ) ;
#554 = DIRECTION ( 'NONE',  ( 0.000000000000000000, -1.000000000000000000, 0.000000000000000000 ) ) ;
#555 = VERTEX_POINT ( 'NONE', #929 ) ;
#556 = CARTESIAN_POINT ( 'NONE',  ( -62.50000000000008527, 3.000000000000002665, -3.999999999999992450 ) ) ;
#557 = CARTESIAN_POINT ( 'NONE',  ( -52.50000000000000711, 0.000000000000000000, -13.99999999999994671 ) ) ;
#558 = APPROVAL_STATUS ( 'not_yet_approved' ) ;
#559 = VECTOR ( 'NONE', #85, 1000.000000000000000 ) ;
#560 = PLANE ( 'NONE',  #206 ) ;
#561 = EDGE_CURVE ( 'NONE', #538, #485, #464, .T. ) ;
#562 = VECTOR ( 'NONE', #41, 1000.000000000000000 ) ;
#563 = ORIENTED_EDGE ( 'NONE', *, *, #14, .T. ) ;
#564 = CARTESIAN_POINT ( 'NONE',  ( -45.25000000000000711, 0.000000000000000000, -25.74999999999999645 ) ) ;
#565 = LINE ( 'NONE', #957, #645 ) ;
#566 = ADVANCED_FACE ( 'NONE', ( #12 ), #919, .F. ) ;
#567 = VERTEX_POINT ( 'NONE', #320 ) ;
#568 = ORIENTED_EDGE ( 'NONE', *, *, #458, .F. ) ;
#569 = DIRECTION ( 'NONE',  ( -0.000000000000000000, -1.000000000000000000, -0.000000000000000000 ) ) ;
#570 = ORIENTED_EDGE ( 'NONE', *, *, #129, .F. ) ;
#571 = APPROVAL ( #558, 'UNSPECIFIED' ) ;
#572 = CARTESIAN_POINT ( 'NONE',  ( -96.00000000000000000, 60.00000000000000000, 0.000000000000000000 ) ) ;
#573 = VERTEX_POINT ( 'NONE', #331 ) ;
#574 = EDGE_CURVE ( 'NONE', #170, #360, #389, .T. ) ;
#575 = FACE_OUTER_BOUND ( 'NONE', #863, .T. ) ;
#576 = FACE_OUTER_BOUND ( 'NONE', #147, .T. ) ;
#577 = AXIS2_PLACEMENT_3D ( 'NONE', #409, #666, #896 ) ;
#578 = AXIS2_PLACEMENT_3D ( 'NONE', #373, #527, #975 ) ;
#579 = VERTEX_POINT ( 'NONE', #548 ) ;
#580 = CIRCLE ( 'NONE', #834, 3.249999999999988898 ) ;
#581 = ORIENTED_EDGE ( 'NONE', *, *, #961, .F. ) ;
#582 = EDGE_CURVE ( 'NONE', #316, #238, #854, .T. ) ;
#583 = DIRECTION ( 'NONE',  ( -0.000000000000000000, 1.000000000000000000, -0.000000000000000000 ) ) ;
#584 = CARTESIAN_POINT ( 'NONE',  ( -50.50000000000000000, 0.000000000000000000, -38.99999999999999289 ) ) ;
#585 = ORIENTED_EDGE ( 'NONE', *, *, #265, .F. ) ;
#586 = CARTESIAN_POINT ( 'NONE',  ( -20.50000000000002132, 0.000000000000000000, -6.999999999999999112 ) ) ;
#587 = ORIENTED_EDGE ( 'NONE', *, *, #775, .T. ) ;
#588 = CC_DESIGN_DATE_AND_TIME_ASSIGNMENT ( #35, #264, ( #297 ) ) ;
#589 = CARTESIAN_POINT ( 'NONE',  ( 0.000000000000000000, 0.000000000000000000, 46.00000000000001421 ) ) ;
#590 = CARTESIAN_POINT ( 'NONE',  ( -34.75000000000000711, 1.157291225194246046E-15, -28.99999999999998934 ) ) ;
#591 = ORIENTED_EDGE ( 'NONE', *, *, #602, .T. ) ;
#592 = FACE_OUTER_BOUND ( 'NONE', #20, .T. ) ;
#593 = DIRECTION ( 'NONE',  ( 0.000000000000000000, -1.000000000000000000, 0.000000000000000000 ) ) ;
#594 = ORIENTED_EDGE ( 'NONE', *, *, #815, .F. ) ;
#595 = ADVANCED_FACE ( 'NONE', ( #539 ), #843, .F. ) ;
#596 = VECTOR ( 'NONE', #234, 1000.000000000000000 ) ;
#597 = APPROVAL_PERSON_ORGANIZATION ( #627, #571, #933 ) ;
#598 = CARTESIAN_POINT ( 'NONE',  ( -27.50000000000000711, -4.000000000000000000, -36.99999999999999289 ) ) ;
#599 = AXIS2_PLACEMENT_3D ( 'NONE', #481, #635, #64 ) ;
#600 = LINE ( 'NONE', #603, #502 ) ;
#601 = ORIENTED_EDGE ( 'NONE', *, *, #848, .F. ) ;
#602 = EDGE_CURVE ( 'NONE', #636, #262, #766, .T. ) ;
#603 = CARTESIAN_POINT ( 'NONE',  ( -100.0000000000000000, 64.00000000000000000, 46.00000000000001421 ) ) ;
#604 = CARTESIAN_POINT ( 'NONE',  ( 0.000000000000000000, 0.000000000000000000, 0.000000000000000000 ) ) ;
#605 = CARTESIAN_POINT ( 'NONE',  ( -29.50000000000000355, 0.000000000000000000, -38.99999999999999289 ) ) ;
#606 = EDGE_CURVE ( 'NONE', #274, #262, #924, .T. ) ;
#607 = EDGE_LOOP ( 'NONE', ( #903, #879, #887, #224 ) ) ;
#608 = CARTESIAN_POINT ( 'NONE',  ( -34.75000000000000711, 0.000000000000000000, -25.74999999999999645 ) ) ;
#609 = AXIS2_PLACEMENT_3D ( 'NONE', #258, #394, #552 ) ;
#610 = CC_DESIGN_APPROVAL ( #96, ( #643 ) ) ;
#611 = EDGE_CURVE ( 'NONE', #726, #197, #542, .T. ) ;
#612 = PLANE ( 'NONE',  #531 ) ;
#613 = EDGE_LOOP ( 'NONE', ( #898, #965, #631, #833 ) ) ;
#614 = DIRECTION ( 'NONE',  ( 1.000000000000000000, 0.000000000000000000, 0.000000000000000000 ) ) ;
#615 = SHAPE_DEFINITION_REPRESENTATION ( #773, #911 ) ;
#616 = CARTESIAN_POINT ( 'NONE',  ( 0.000000000000000000, -4.000000000000000000, 46.00000000000001421 ) ) ;
#617 = ORIENTED_EDGE ( 'NONE', *, *, #830, .T. ) ;
#618 = PRODUCT_RELATED_PRODUCT_CATEGORY ( 'detail', '', ( #925 ) ) ;
#619 = DATE_AND_TIME ( #729, #881 ) ;
#620 = DIRECTION ( 'NONE',  ( -0.000000000000000000, 1.000000000000000000, -0.000000000000000000 ) ) ;
#621 = DIRECTION ( 'NONE',  ( -0.000000000000000000, 1.000000000000000000, -0.000000000000000000 ) ) ;
#622 = DIRECTION ( 'NONE',  ( 0.000000000000000000, 1.000000000000000000, 0.000000000000000000 ) ) ;
#623 = ADVANCED_FACE ( 'NONE', ( #386 ), #432, .F. ) ;
#624 = ORIENTED_EDGE ( 'NONE', *, *, #673, .T. ) ;
#625 = CARTESIAN_POINT ( 'NONE',  ( -100.0000000000000000, 64.00000000000000000, -3.999999999999988010 ) ) ;
#626 = AXIS2_PLACEMENT_3D ( 'NONE', #175, #695, #859 ) ;
#627 = PERSON_AND_ORGANIZATION ( #890, #143 ) ;
#628 = VECTOR ( 'NONE', #981, 1000.000000000000000 ) ;
#629 = AXIS2_PLACEMENT_3D ( 'NONE', #526, #462, #155 ) ;
#630 = CARTESIAN_POINT ( 'NONE',  ( -29.49999999999999645, 0.000000000000000000, -38.99999999999999289 ) ) ;
#631 = ORIENTED_EDGE ( 'NONE', *, *, #355, .F. ) ;
#632 = DIRECTION ( 'NONE',  ( 0.000000000000000000, -1.000000000000000000, 0.000000000000000000 ) ) ;
#633 = EDGE_CURVE ( 'NONE', #567, #352, #371, .T. ) ;
#634 = DIRECTION ( 'NONE',  ( -0.000000000000000000, 1.000000000000000000, -0.000000000000000000 ) ) ;
#635 = DIRECTION ( 'NONE',  ( -0.000000000000000000, 1.000000000000000000, -0.000000000000000000 ) ) ;
#636 = VERTEX_POINT ( 'NONE', #52 ) ;
#637 = DIRECTION ( 'NONE',  ( 1.000000000000000000, -0.000000000000000000, -3.304235192336776991E-16 ) ) ;
#638 = ADVANCED_FACE ( 'NONE', ( #654 ), #669, .T. ) ;
#639 = CARTESIAN_POINT ( 'NONE',  ( -61.25735931288077296, 4.485755499945574677E-15, -5.242640687119274112 ) ) ;
#640 = VERTEX_POINT ( 'NONE', #556 ) ;
#641 = EDGE_LOOP ( 'NONE', ( #891, #131, #954, #150 ) ) ;
#642 = VECTOR ( 'NONE', #239, 1000.000000000000000 ) ;
#643 = SECURITY_CLASSIFICATION ( '', '', #806 ) ;
#644 = PLANE ( 'NONE',  #252 ) ;
#645 = VECTOR ( 'NONE', #353, 1000.000000000000000 ) ;
#646 = VERTEX_POINT ( 'NONE', #116 ) ;
#647 = DIRECTION ( 'NONE',  ( 1.000000000000000000, -0.000000000000000000, -0.000000000000000000 ) ) ;
#648 = ORIENTED_EDGE ( 'NONE', *, *, #205, .T. ) ;
#649 = LINE ( 'NONE', #437, #365 ) ;
#650 = VERTEX_POINT ( 'NONE', #146 ) ;
#651 = EDGE_CURVE ( 'NONE', #652, #360, #293, .T. ) ;
#652 = VERTEX_POINT ( 'NONE', #446 ) ;
#653 = DIRECTION ( 'NONE',  ( -1.000000000000000000, -0.000000000000000000, -0.000000000000000000 ) ) ;
#654 = FACE_OUTER_BOUND ( 'NONE', #703, .T. ) ;
#655 = ORIENTED_EDGE ( 'NONE', *, *, #193, .T. ) ;
#656 = ADVANCED_FACE ( 'NONE', ( #576 ), #739, .F. ) ;
#657 = ORIENTED_EDGE ( 'NONE', *, *, #681, .F. ) ;
#658 = CARTESIAN_POINT ( 'NONE',  ( -100.0000000000000000, 0.000000000000000000, 46.00000000000001421 ) ) ;
#659 = CARTESIAN_POINT ( 'NONE',  ( 0.000000000000000000, 64.00000000000000000, 0.000000000000000000 ) ) ;
#660 = AXIS2_PLACEMENT_3D ( 'NONE', #354, #973, #208 ) ;
#661 = ORIENTED_EDGE ( 'NONE', *, *, #937, .T. ) ;
#662 = VECTOR ( 'NONE', #554, 1000.000000000000000 ) ;
#663 = DIRECTION ( 'NONE',  ( -1.000000000000000000, 0.000000000000000000, 0.000000000000000000 ) ) ;
#664 = EDGE_LOOP ( 'NONE', ( #48, #203, #39, #585, #1, #137, #430, #16 ) ) ;
#665 = DIRECTION ( 'NONE',  ( 0.7071067811865474617, -0.000000000000000000, -0.7071067811865474617 ) ) ;
#666 = DIRECTION ( 'NONE',  ( -3.304235192336776991E-16, 0.000000000000000000, -1.000000000000000000 ) ) ;
#667 = VERTEX_POINT ( 'NONE', #489 ) ;
#668 = ADVANCED_FACE ( 'NONE', ( #280 ), #287, .T. ) ;
#669 = PLANE ( 'NONE',  #660 ) ;
#670 = EDGE_LOOP ( 'NONE', ( #493, #928, #731 ) ) ;
#671 = FACE_OUTER_BOUND ( 'NONE', #136, .T. ) ;
#672 = CARTESIAN_POINT ( 'NONE',  ( -52.50000000000000711, 0.000000000000000000, -37.00000000000000711 ) ) ;
#673 = EDGE_CURVE ( 'NONE', #198, #330, #267, .T. ) ;
#674 = DIRECTION ( 'NONE',  ( 0.000000000000000000, 1.000000000000000000, 0.000000000000000000 ) ) ;
#675 = CIRCLE ( 'NONE', #378, 3.250000000000002665 ) ;
#676 = APPROVAL_PERSON_ORGANIZATION ( #118, #122, #338 ) ;
#677 = DIRECTION ( 'NONE',  ( 3.304235192336776991E-16, 0.000000000000000000, 1.000000000000000000 ) ) ;
#678 = VECTOR ( 'NONE', #397, 1000.000000000000114 ) ;
#679 = CARTESIAN_POINT ( 'NONE',  ( -96.00000000000000000, 60.00000000000000000, 15.00000000000000000 ) ) ;
#680 = ORIENTED_EDGE ( 'NONE', *, *, #182, .T. ) ;
#681 = EDGE_CURVE ( 'NONE', #514, #274, #809, .T. ) ;
#682 = LINE ( 'NONE', #742, #596 ) ;
#683 = CARTESIAN_POINT ( 'NONE',  ( -45.25000000000001421, 1.157291225194246046E-15, -17.24999999999997868 ) ) ;
#684 = ORIENTED_EDGE ( 'NONE', *, *, #46, .F. ) ;
#685 = LINE ( 'NONE', #478, #440 ) ;
#686 = EDGE_CURVE ( 'NONE', #22, #342, #134, .T. ) ;
#687 = LINE ( 'NONE', #616, #43 ) ;
#688 = VERTEX_POINT ( 'NONE', #218 ) ;
#689 = CARTESIAN_POINT ( 'NONE',  ( -96.00000000000000000, 64.00000000000000000, 0.000000000000000000 ) ) ;
#690 = VECTOR ( 'NONE', #829, 1000.000000000000000 ) ;
#691 = VECTOR ( 'NONE', #400, 1000.000000000000000 ) ;
#692 = CALENDAR_DATE ( 2026, 6, 7 ) ;
#693 = FACE_OUTER_BOUND ( 'NONE', #641, .T. ) ;
#694 = ORIENTED_EDGE ( 'NONE', *, *, #716, .F. ) ;
#695 = DIRECTION ( 'NONE',  ( -0.000000000000000000, 1.000000000000000000, -0.000000000000000000 ) ) ;
#696 = PERSON_AND_ORGANIZATION ( #890, #143 ) ;
#697 = DIRECTION ( 'NONE',  ( -0.7071067811865451302, -0.000000000000000000, -0.7071067811865500152 ) ) ;
#698 = VERTEX_POINT ( 'NONE', #212 ) ;
#699 = FACE_OUTER_BOUND ( 'NONE', #853, .T. ) ;
#700 = ORIENTED_EDGE ( 'NONE', *, *, #602, .F. ) ;
#701 = CARTESIAN_POINT ( 'NONE',  ( -96.00000000000000000, 60.00000000000000000, 15.00000000000000000 ) ) ;
#702 = EDGE_CURVE ( 'NONE', #132, #636, #517, .T. ) ;
#703 = EDGE_LOOP ( 'NONE', ( #684, #885, #335, #974 ) ) ;
#704 = DIRECTION ( 'NONE',  ( -0.000000000000000000, 1.000000000000000000, 0.000000000000000000 ) ) ;
#705 = VECTOR ( 'NONE', #760, 1000.000000000000000 ) ;
#706 = DATE_AND_TIME ( #260, #249 ) ;
#707 = LINE ( 'NONE', #32, #379 ) ;
#708 = ORIENTED_EDGE ( 'NONE', *, *, #830, .F. ) ;
#709 = CARTESIAN_POINT ( 'NONE',  ( 0.000000000000000000, 0.000000000000000000, 0.000000000000000000 ) ) ;
#710 = EDGE_CURVE ( 'NONE', #238, #726, #58, .T. ) ;
#711 = MECHANICAL_CONTEXT ( 'NONE', #484, 'mechanical' ) ;
#712 = LINE ( 'NONE', #927, #662 ) ;
#713 = ORIENTED_EDGE ( 'NONE', *, *, #633, .F. ) ;
#714 = CARTESIAN_POINT ( 'NONE',  ( -62.50000000000008527, 64.00000000000000000, -3.999999999999992450 ) ) ;
#715 = LINE ( 'NONE', #950, #77 ) ;
#716 = EDGE_CURVE ( 'NONE', #274, #132, #912, .T. ) ;
#717 = CARTESIAN_POINT ( 'NONE',  ( 0.000000000000000000, 0.000000000000000000, -4.000000000000000000 ) ) ;
#718 = CARTESIAN_POINT ( 'NONE',  ( -34.75000000000000711, 0.000000000000000000, -32.24999999999998579 ) ) ;
#719 = VERTEX_POINT ( 'NONE', #296 ) ;
#720 = FACE_BOUND ( 'NONE', #771, .T. ) ;
#721 = VERTEX_POINT ( 'NONE', #139 ) ;
#722 = CALENDAR_DATE ( 2026, 6, 7 ) ;
#723 = AXIS2_PLACEMENT_3D ( 'NONE', #71, #677, #826 ) ;
#724 =( GEOMETRIC_REPRESENTATION_CONTEXT ( 3 ) GLOBAL_UNCERTAINTY_ASSIGNED_CONTEXT ( ( #433 ) ) GLOBAL_UNIT_ASSIGNED_CONTEXT ( ( #107, #102, #172 ) ) REPRESENTATION_CONTEXT ( 'NONE', 'WORKASPACE' ) );
#725 = CARTESIAN_POINT ( 'NONE',  ( -45.25000000000001421, -4.000000000000000000, -17.24999999999998579 ) ) ;
#726 = VERTEX_POINT ( 'NONE', #864 ) ;
#727 = CARTESIAN_POINT ( 'NONE',  ( -50.50000000000000000, 0.000000000000000000, -38.99999999999999289 ) ) ;
#728 = ORIENTED_EDGE ( 'NONE', *, *, #953, .T. ) ;
#729 = CALENDAR_DATE ( 2026, 6, 7 ) ;
#730 = DIRECTION ( 'NONE',  ( 0.000000000000000000, -1.000000000000000000, 0.000000000000000000 ) ) ;
#731 = ORIENTED_EDGE ( 'NONE', *, *, #148, .F. ) ;
#732 = ORIENTED_EDGE ( 'NONE', *, *, #710, .T. ) ;
#733 = CARTESIAN_POINT ( 'NONE',  ( -45.25000000000000711, 1.157291225194246046E-15, -32.24999999999997868 ) ) ;
#734 = CARTESIAN_POINT ( 'NONE',  ( -45.25000000000001421, -4.000000000000000000, -10.74999999999998757 ) ) ;
#735 = ORIENTED_EDGE ( 'NONE', *, *, #815, .T. ) ;
#736 = ORIENTED_EDGE ( 'NONE', *, *, #259, .F. ) ;
#737 = DATE_AND_TIME ( #722, #269 ) ;
#738 = DIRECTION ( 'NONE',  ( 1.000000000000000000, -0.000000000000000000, -0.000000000000000000 ) ) ;
#739 = PLANE ( 'NONE',  #577 ) ;
#740 = VECTOR ( 'NONE', #970, 1000.000000000000000 ) ;
#741 = ORIENTED_EDGE ( 'NONE', *, *, #878, .F. ) ;
#742 = CARTESIAN_POINT ( 'NONE',  ( -96.00000000000000000, 0.000000000000000000, 46.00000000000001421 ) ) ;
#743 = LINE ( 'NONE', #882, #80 ) ;
#744 = CARTESIAN_POINT ( 'NONE',  ( -45.25000000000001421, -4.000000000000000000, -13.99999999999998934 ) ) ;
#745 = VERTEX_POINT ( 'NONE', #889 ) ;
#746 = ADVANCED_FACE ( 'NONE', ( #223, #190, #522 ), #112, .F. ) ;
#747 = CARTESIAN_POINT ( 'NONE',  ( 0.000000000000000000, 0.000000000000000000, 0.000000000000000000 ) ) ;
#748 = ORIENTED_EDGE ( 'NONE', *, *, #561, .T. ) ;
#749 = DIRECTION ( 'NONE',  ( 0.000000000000000000, 0.000000000000000000, 1.000000000000000000 ) ) ;
#750 = DIRECTION ( 'NONE',  ( -0.7071067811865519026, 0.000000000000000000, 0.7071067811865431318 ) ) ;
#751 = EDGE_CURVE ( 'NONE', #393, #450, #675, .T. ) ;
#752 = ORIENTED_EDGE ( 'NONE', *, *, #401, .T. ) ;
#753 = AXIS2_PLACEMENT_3D ( 'NONE', #94, #403, #89 ) ;
#754 = DIRECTION ( 'NONE',  ( 0.7071067811865474617, 0.000000000000000000, -0.7071067811865474617 ) ) ;
#755 = DIRECTION ( 'NONE',  ( 1.000000000000000000, -0.000000000000000000, -3.304235192336776991E-16 ) ) ;
#756 = ORIENTED_EDGE ( 'NONE', *, *, #534, .F. ) ;
#757 = DIRECTION ( 'NONE',  ( 0.000000000000000000, 0.000000000000000000, -1.000000000000000000 ) ) ;
#758 = ADVANCED_FACE ( 'NONE', ( #920 ), #612, .T. ) ;
#759 = PLANE ( 'NONE',  #421 ) ;
#760 = DIRECTION ( 'NONE',  ( 1.000000000000000000, 0.000000000000000000, 0.000000000000000000 ) ) ;
#761 = ORIENTED_EDGE ( 'NONE', *, *, #14, .F. ) ;
#762 = DIRECTION ( 'NONE',  ( 0.000000000000000000, -1.000000000000000000, 0.000000000000000000 ) ) ;
#763 = CARTESIAN_POINT ( 'NONE',  ( 0.000000000000000000, -4.000000000000000000, -4.000000000000000000 ) ) ;
#764 = ORIENTED_EDGE ( 'NONE', *, *, #499, .F. ) ;
#765 = CARTESIAN_POINT ( 'NONE',  ( -100.0000000000000000, -4.000000000000000000, 46.00000000000001421 ) ) ;
#766 = CIRCLE ( 'NONE', #626, 3.250000000000002665 ) ;
#767 = LOCAL_TIME ( 12, 13, 3.000000000000000000, #153 ) ;
#768 = AXIS2_PLACEMENT_3D ( 'NONE', #57, #876, #895 ) ;
#769 = APPLICATION_PROTOCOL_DEFINITION ( 'international standard', 'config_control_design', 1994, #453 ) ;
#770 = CARTESIAN_POINT ( 'NONE',  ( -100.0000000000000000, -4.000000000000000000, 46.00000000000001421 ) ) ;
#771 = EDGE_LOOP ( 'NONE', ( #591, #180, #363, #877 ) ) ;
#772 = CARTESIAN_POINT ( 'NONE',  ( 0.000000000000000000, 64.00000000000000000, -4.000000000000000000 ) ) ;
#773 = PRODUCT_DEFINITION_SHAPE ( 'NONE', 'NONE',  #297 ) ;
#774 = ORIENTED_EDGE ( 'NONE', *, *, #407, .T. ) ;
#775 = EDGE_CURVE ( 'NONE', #352, #538, #831, .T. ) ;
#776 = LINE ( 'NONE', #630, #144 ) ;
#777 = APPROVAL_ROLE ( '' ) ;
#778 = ORIENTED_EDGE ( 'NONE', *, *, #40, .T. ) ;
#779 = CARTESIAN_POINT ( 'NONE',  ( -3.642919299551294898E-16, 3.000000000000002665, -7.000000000000000000 ) ) ;
#780 = DIRECTION ( 'NONE',  ( -0.000000000000000000, 1.000000000000000000, -0.000000000000000000 ) ) ;
#781 = LINE ( 'NONE', #921, #678 ) ;
#782 = EDGE_CURVE ( 'NONE', #345, #393, #461, .T. ) ;
#783 = ORIENTED_EDGE ( 'NONE', *, *, #917, .T. ) ;
#784 = DIRECTION ( 'NONE',  ( -1.000000000000000000, 0.000000000000000000, 1.214306433183764966E-16 ) ) ;
#785 = APPLICATION_PROTOCOL_DEFINITION ( 'international standard', 'config_control_design', 1994, #484 ) ;
#786 = VECTOR ( 'NONE', #674, 1000.000000000000000 ) ;
#787 = LINE ( 'NONE', #939, #562 ) ;
#788 = EDGE_LOOP ( 'NONE', ( #408, #503, #319, #140, #498, #294 ) ) ;
#789 = DIRECTION ( 'NONE',  ( -0.000000000000000000, 1.000000000000000000, -0.000000000000000000 ) ) ;
#790 = LINE ( 'NONE', #549, #801 ) ;
#791 = DIRECTION ( 'NONE',  ( 0.000000000000000000, 0.000000000000000000, -1.000000000000000000 ) ) ;
#792 = ORIENTED_EDGE ( 'NONE', *, *, #909, .F. ) ;
#793 = DIRECTION ( 'NONE',  ( 0.000000000000000000, 0.000000000000000000, 1.000000000000000000 ) ) ;
#794 = VERTEX_POINT ( 'NONE', #227 ) ;
#795 = PERSON_AND_ORGANIZATION ( #890, #143 ) ;
#796 = FACE_OUTER_BOUND ( 'NONE', #893, .T. ) ;
#797 = EDGE_LOOP ( 'NONE', ( #272, #288, #357, #115, #59, #92, #587, #439 ) ) ;
#798 = ORIENTED_EDGE ( 'NONE', *, *, #574, .F. ) ;
#799 = EDGE_CURVE ( 'NONE', #352, #428, #303, .T. ) ;
#800 = VECTOR ( 'NONE', #784, 1000.000000000000000 ) ;
#801 = VECTOR ( 'NONE', #553, 1000.000000000000000 ) ;
#802 = DIRECTION ( 'NONE',  ( -1.000000000000000000, -0.000000000000000000, -0.000000000000000000 ) ) ;
#803 = VECTOR ( 'NONE', #569, 1000.000000000000000 ) ;
#804 = ORIENTED_EDGE ( 'NONE', *, *, #182, .F. ) ;
#805 = ORIENTED_EDGE ( 'NONE', *, *, #205, .F. ) ;
#806 = SECURITY_CLASSIFICATION_LEVEL ( 'unclassified' ) ;
#807 = EDGE_CURVE ( 'NONE', #794, #345, #865, .T. ) ;
#808 = DIRECTION ( 'NONE',  ( 0.000000000000000000, 0.000000000000000000, 1.000000000000000000 ) ) ;
#809 = LINE ( 'NONE', #65, #126 ) ;
#810 = ORIENTED_EDGE ( 'NONE', *, *, #948, .T. ) ;
#811 = EDGE_LOOP ( 'NONE', ( #814, #434, #213, #680 ) ) ;
#812 = PLANE ( 'NONE',  #768 ) ;
#813 = DIRECTION ( 'NONE',  ( 0.000000000000000000, -0.000000000000000000, -1.000000000000000000 ) ) ;
#814 = ORIENTED_EDGE ( 'NONE', *, *, #480, .T. ) ;
#815 = EDGE_CURVE ( 'NONE', #555, #652, #600, .T. ) ;
#816 = FACE_OUTER_BOUND ( 'NONE', #189, .T. ) ;
#817 = PERSON_AND_ORGANIZATION_ROLE ( 'design_supplier' ) ;
#818 = DIRECTION ( 'NONE',  ( 1.000000000000000000, 0.000000000000000000, 0.000000000000000000 ) ) ;
#819 = DIRECTION ( 'NONE',  ( 0.000000000000000000, 0.000000000000000000, -1.000000000000000000 ) ) ;
#820 = VECTOR ( 'NONE', #632, 1000.000000000000000 ) ;
#821 = ORIENTED_EDGE ( 'NONE', *, *, #651, .T. ) ;
#822 = VECTOR ( 'NONE', #818, 1000.000000000000000 ) ;
#823 = EDGE_CURVE ( 'NONE', #547, #219, #687, .T. ) ;
#824 = LINE ( 'NONE', #529, #456 ) ;
#825 = ORIENTED_EDGE ( 'NONE', *, *, #633, .T. ) ;
#826 = DIRECTION ( 'NONE',  ( 1.000000000000000000, 0.000000000000000000, -3.304235192336776991E-16 ) ) ;
#827 = CARTESIAN_POINT ( 'NONE',  ( -34.75000000000001421, 0.000000000000000000, -10.74999999999999822 ) ) ;
#828 = ORIENTED_EDGE ( 'NONE', *, *, #167, .T. ) ;
#829 = DIRECTION ( 'NONE',  ( -0.000000000000000000, -1.000000000000000000, -0.000000000000000000 ) ) ;
#830 = EDGE_CURVE ( 'NONE', #579, #636, #384, .T. ) ;
#831 = LINE ( 'NONE', #672, #344 ) ;
#832 = VECTOR ( 'NONE', #972, 1000.000000000000000 ) ;
#833 = ORIENTED_EDGE ( 'NONE', *, *, #807, .T. ) ;
#834 = AXIS2_PLACEMENT_3D ( 'NONE', #938, #780, #23 ) ;
#835 = CARTESIAN_POINT ( 'NONE',  ( -96.00000000000000000, 64.00000000000000000, 46.00000000000001421 ) ) ;
#836 = VECTOR ( 'NONE', #476, 1000.000000000000000 ) ;
#837 = CARTESIAN_POINT ( 'NONE',  ( 0.000000000000000000, 64.00000000000000000, 0.000000000000000000 ) ) ;
#838 = CARTESIAN_POINT ( 'NONE',  ( -29.50000000000000355, -4.000000000000000000, -38.99999999999999289 ) ) ;
#839 = DIRECTION ( 'NONE',  ( 0.000000000000000000, 0.000000000000000000, -1.000000000000000000 ) ) ;
#840 = DIRECTION ( 'NONE',  ( 0.000000000000000000, -0.000000000000000000, -1.000000000000000000 ) ) ;
#841 = ORIENTED_EDGE ( 'NONE', *, *, #167, .F. ) ;
#842 = ADVANCED_FACE ( 'NONE', ( #906 ), #90, .T. ) ;
#843 = CYLINDRICAL_SURFACE ( 'NONE', #609, 3.249999999999996003 ) ;
#844 = LINE ( 'NONE', #322, #25 ) ;
#845 = PERSON_AND_ORGANIZATION ( #890, #143 ) ;
#846 = CARTESIAN_POINT ( 'NONE',  ( -45.25000000000001421, 1.157291225194246046E-15, -13.99999999999998934 ) ) ;
#847 = VECTOR ( 'NONE', #637, 1000.000000000000000 ) ;
#848 = EDGE_CURVE ( 'NONE', #640, #410, #824, .T. ) ;
#849 = AXIS2_PLACEMENT_3D ( 'NONE', #747, #910, #73 ) ;
#850 = AXIS2_PLACEMENT_3D ( 'NONE', #244, #791, #174 ) ;
#851 = PERSON_AND_ORGANIZATION_ROLE ( 'creator' ) ;
#852 = CARTESIAN_POINT ( 'NONE',  ( -52.50000000000000711, 0.000000000000000000, -3.999999999999988010 ) ) ;
#853 = EDGE_LOOP ( 'NONE', ( #27, #581, #70, #250 ) ) ;
#854 = LINE ( 'NONE', #689, #173 ) ;
#855 = CC_DESIGN_PERSON_AND_ORGANIZATION_ASSIGNMENT ( #894, #817, ( #520 ) ) ;
#856 = PERSON_AND_ORGANIZATION_ROLE ( 'design_owner' ) ;
#857 = LINE ( 'NONE', #19, #691 ) ;
#858 = ORIENTED_EDGE ( 'NONE', *, *, #861, .T. ) ;
#859 = DIRECTION ( 'NONE',  ( 0.000000000000000000, 0.000000000000000000, 1.000000000000000000 ) ) ;
#860 = ORIENTED_EDGE ( 'NONE', *, *, #606, .T. ) ;
#861 = EDGE_CURVE ( 'NONE', #342, #547, #465, .T. ) ;
#862 = LINE ( 'NONE', #487, #884 ) ;
#863 = EDGE_LOOP ( 'NONE', ( #101, #111, #694, #657 ) ) ;
#864 = CARTESIAN_POINT ( 'NONE',  ( 0.000000000000000000, 64.00000000000000000, -4.000000000000000000 ) ) ;
#865 = CIRCLE ( 'NONE', #930, 3.250000000000002665 ) ;
#866 = VECTOR ( 'NONE', #310, 1000.000000000000000 ) ;
#867 = COORDINATED_UNIVERSAL_TIME_OFFSET ( 5, 0, .BEHIND. ) ;
#868 = DIRECTION ( 'NONE',  ( -0.000000000000000000, 1.000000000000000000, -0.000000000000000000 ) ) ;
#869 = ORIENTED_EDGE ( 'NONE', *, *, #441, .T. ) ;
#870 = ORIENTED_EDGE ( 'NONE', *, *, #193, .F. ) ;
#871 = FACE_OUTER_BOUND ( 'NONE', #956, .T. ) ;
#872 = ORIENTED_EDGE ( 'NONE', *, *, #441, .F. ) ;
#873 = EDGE_CURVE ( 'NONE', #551, #721, #159, .T. ) ;
#874 = ORIENTED_EDGE ( 'NONE', *, *, #129, .T. ) ;
#875 = PERSON_AND_ORGANIZATION ( #890, #143 ) ;
#876 = DIRECTION ( 'NONE',  ( -0.7071067811865500152, 0.000000000000000000, 0.7071067811865451302 ) ) ;
#877 = ORIENTED_EDGE ( 'NONE', *, *, #702, .T. ) ;
#878 = EDGE_CURVE ( 'NONE', #238, #5, #149, .T. ) ;
#879 = ORIENTED_EDGE ( 'NONE', *, *, #873, .F. ) ;
#880 = VECTOR ( 'NONE', #314, 1000.000000000000000 ) ;
#881 = LOCAL_TIME ( 12, 13, 3.000000000000000000, #444 ) ;
#882 = CARTESIAN_POINT ( 'NONE',  ( -52.50000000000000711, -4.000000000000000000, -37.00000000000000711 ) ) ;
#883 = DIRECTION ( 'NONE',  ( 0.000000000000000000, 0.000000000000000000, 1.000000000000000000 ) ) ;
#884 = VECTOR ( 'NONE', #472, 1000.000000000000000 ) ;
#885 = ORIENTED_EDGE ( 'NONE', *, *, #499, .T. ) ;
#886 = MANIFOLD_SOLID_BREP ( 'Fillet1', #128 ) ;
#887 = ORIENTED_EDGE ( 'NONE', *, *, #382, .F. ) ;
#888 = DIRECTION ( 'NONE',  ( 0.7071067811865500152, -0.000000000000000000, -0.7071067811865451302 ) ) ;
#889 = CARTESIAN_POINT ( 'NONE',  ( -96.00000000000000000, 0.000000000000000000, 0.000000000000000000 ) ) ;
#890 = PERSON ( 'UNSPECIFIED', 'UNSPECIFIED', 'UNSPECIFIED', ('UNSPECIFIED'), ('UNSPECIFIED'), ('UNSPECIFIED') ) ;
#891 = ORIENTED_EDGE ( 'NONE', *, *, #291, .F. ) ;
#892 = LINE ( 'NONE', #377, #519 ) ;
#893 = EDGE_LOOP ( 'NONE', ( #268, #570, #447, #125, #417, #594 ) ) ;
#894 = PERSON_AND_ORGANIZATION ( #890, #143 ) ;
#895 = DIRECTION ( 'NONE',  ( 0.000000000000000000, -1.000000000000000000, 0.000000000000000000 ) ) ;
#896 = DIRECTION ( 'NONE',  ( -1.000000000000000000, 0.000000000000000000, 3.304235192336776991E-16 ) ) ;
#897 = ADVANCED_FACE ( 'NONE', ( #693 ), #15, .T. ) ;
#898 = ORIENTED_EDGE ( 'NONE', *, *, #782, .T. ) ;
#899 = CARTESIAN_POINT ( 'NONE',  ( -81.00000000000000000, 60.00000000000000000, 0.000000000000000000 ) ) ;
#900 = DIRECTION ( 'NONE',  ( -0.000000000000000000, 1.000000000000000000, -0.000000000000000000 ) ) ;
#901 = EDGE_LOOP ( 'NONE', ( #459, #53, #624, #482 ) ) ;
#902 = LINE ( 'NONE', #679, #628 ) ;
#903 = ORIENTED_EDGE ( 'NONE', *, *, #265, .T. ) ;
#904 = CARTESIAN_POINT ( 'NONE',  ( -45.25000000000000711, 1.157291225194246046E-15, -28.99999999999998934 ) ) ;
#905 = EDGE_CURVE ( 'NONE', #514, #573, #374, .T. ) ;
#906 = FACE_OUTER_BOUND ( 'NONE', #670, .T. ) ;
#907 = ORIENTED_EDGE ( 'NONE', *, *, #686, .T. ) ;
#908 = CARTESIAN_POINT ( 'NONE',  ( -34.75000000000000711, -4.000000000000000000, -25.74999999999998934 ) ) ;
#909 = EDGE_CURVE ( 'NONE', #348, #698, #154, .T. ) ;
#910 = DIRECTION ( 'NONE',  ( 0.000000000000000000, 1.000000000000000000, 0.000000000000000000 ) ) ;
#911 = ADVANCED_BREP_SHAPE_REPRESENTATION ( 'top_left', ( #886, #544 ), #724 ) ;
#912 = CIRCLE ( 'NONE', #313, 3.250000000000002665 ) ;
#913 = CARTESIAN_POINT ( 'NONE',  ( -29.49999999999999645, 0.000000000000000000, -38.99999999999999289 ) ) ;
#914 = DIRECTION ( 'NONE',  ( -1.214306433183764966E-16, 0.000000000000000000, -1.000000000000000000 ) ) ;
#915 = VECTOR ( 'NONE', #653, 1000.000000000000000 ) ;
#916 = CARTESIAN_POINT ( 'NONE',  ( -52.50000000000000711, 0.000000000000000000, -38.99999999999999289 ) ) ;
#917 = EDGE_CURVE ( 'NONE', #368, #170, #902, .T. ) ;
#918 = ORIENTED_EDGE ( 'NONE', *, *, #109, .T. ) ;
#919 = PLANE ( 'NONE',  #753 ) ;
#920 = FACE_OUTER_BOUND ( 'NONE', #10, .T. ) ;
#921 = CARTESIAN_POINT ( 'NONE',  ( -29.49999999999999645, -4.000000000000000000, -38.99999999999999289 ) ) ;
#922 = EDGE_CURVE ( 'NONE', #721, #410, #82, .T. ) ;
#923 = DATE_TIME_ROLE ( 'classification_date' ) ;
#924 = LINE ( 'NONE', #185, #29 ) ;
#925 = PRODUCT ( 'top_left', 'top_left', '', ( #711 ) ) ;
#926 = CARTESIAN_POINT ( 'NONE',  ( -20.50000000000002132, 0.000000000000000000, -6.999999999999999112 ) ) ;
#927 = CARTESIAN_POINT ( 'NONE',  ( -27.50000000000001066, 0.000000000000000000, -14.00000000000006217 ) ) ;
#928 = ORIENTED_EDGE ( 'NONE', *, *, #305, .F. ) ;
#929 = CARTESIAN_POINT ( 'NONE',  ( -100.0000000000000000, 64.00000000000000000, 46.00000000000001421 ) ) ;
#930 = AXIS2_PLACEMENT_3D ( 'NONE', #380, #87, #525 ) ;
#931 = EDGE_CURVE ( 'NONE', #425, #350, #334, .T. ) ;
#932 = AXIS2_PLACEMENT_3D ( 'NONE', #266, #343, #541 ) ;
#933 = APPROVAL_ROLE ( '' ) ;
#934 = CYLINDRICAL_SURFACE ( 'NONE', #599, 3.249999999999996003 ) ;
#935 = EDGE_LOOP ( 'NONE', ( #510, #764, #841, #761 ) ) ;
#936 = DIRECTION ( 'NONE',  ( 0.000000000000000000, 1.000000000000000000, 0.000000000000000000 ) ) ;
#937 = EDGE_CURVE ( 'NONE', #132, #719, #237, .T. ) ;
#938 = CARTESIAN_POINT ( 'NONE',  ( -34.75000000000001421, 1.157291225194246046E-15, -13.99999999999999289 ) ) ;
#939 = CARTESIAN_POINT ( 'NONE',  ( -62.50000000000008527, 3.000000000000002665, -3.999999999999992450 ) ) ;
#940 = ORIENTED_EDGE ( 'NONE', *, *, #72, .F. ) ;
#941 = CARTESIAN_POINT ( 'NONE',  ( -34.75000000000000711, -4.000000000000000000, -28.99999999999998934 ) ) ;
#942 = CARTESIAN_POINT ( 'NONE',  ( -34.75000000000001421, 0.000000000000000000, -17.24999999999998579 ) ) ;
#943 = CYLINDRICAL_SURFACE ( 'NONE', #932, 3.249999999999996003 ) ;
#944 = ORIENTED_EDGE ( 'NONE', *, *, #611, .T. ) ;
#945 = AXIS2_PLACEMENT_3D ( 'NONE', #714, #438, #512 ) ;
#946 = PLANE ( 'NONE',  #9 ) ;
#947 = LINE ( 'NONE', #733, #113 ) ;
#948 = EDGE_CURVE ( 'NONE', #579, #573, #580, .T. ) ;
#949 = ORIENTED_EDGE ( 'NONE', *, *, #807, .F. ) ;
#950 = CARTESIAN_POINT ( 'NONE',  ( -45.25000000000000711, -4.000000000000000000, -32.24999999999998579 ) ) ;
#951 = ORIENTED_EDGE ( 'NONE', *, *, #463, .T. ) ;
#952 = CARTESIAN_POINT ( 'NONE',  ( -100.0000000000000000, 64.00000000000000000, -3.999999999999988010 ) ) ;
#953 = EDGE_CURVE ( 'NONE', #567, #50, #790, .T. ) ;
#954 = ORIENTED_EDGE ( 'NONE', *, *, #236, .F. ) ;
#955 = DIRECTION ( 'NONE',  ( 0.000000000000000000, 1.000000000000000000, 0.000000000000000000 ) ) ;
#956 = EDGE_LOOP ( 'NONE', ( #55, #805, #655, #967 ) ) ;
#957 = CARTESIAN_POINT ( 'NONE',  ( 0.000000000000000000, 64.00000000000000000, -4.000000000000000000 ) ) ;
#958 = DIRECTION ( 'NONE',  ( 0.000000000000000000, 0.000000000000000000, -1.000000000000000000 ) ) ;
#959 = ORIENTED_EDGE ( 'NONE', *, *, #259, .T. ) ;
#960 = ORIENTED_EDGE ( 'NONE', *, *, #283, .T. ) ;
#961 = EDGE_CURVE ( 'NONE', #698, #425, #31, .T. ) ;
#962 = AXIS2_PLACEMENT_3D ( 'NONE', #709, #34, #813 ) ;
#963 = DIRECTION ( 'NONE',  ( -1.000000000000000000, 0.000000000000000000, -0.000000000000000000 ) ) ;
#964 = DIRECTION ( 'NONE',  ( 0.000000000000000000, 0.000000000000000000, 1.000000000000000000 ) ) ;
#965 = ORIENTED_EDGE ( 'NONE', *, *, #751, .T. ) ;
#966 = LINE ( 'NONE', #369, #832 ) ;
#967 = ORIENTED_EDGE ( 'NONE', *, *, #355, .T. ) ;
#968 = EDGE_CURVE ( 'NONE', #5, #219, #540, .T. ) ;
#969 = CARTESIAN_POINT ( 'NONE',  ( -34.75000000000001421, -4.000000000000000000, -17.24999999999998579 ) ) ;
#970 = DIRECTION ( 'NONE',  ( 1.000000000000000000, 0.000000000000000000, -1.214306433183764966E-16 ) ) ;
#971 = ORIENTED_EDGE ( 'NONE', *, *, #905, .F. ) ;
#972 = DIRECTION ( 'NONE',  ( 0.7071067811865435759, 0.000000000000000000, 0.7071067811865515695 ) ) ;
#973 = DIRECTION ( 'NONE',  ( 1.000000000000000000, 0.000000000000000000, 9.912705577010323084E-17 ) ) ;
#974 = ORIENTED_EDGE ( 'NONE', *, *, #72, .T. ) ;
#975 = DIRECTION ( 'NONE',  ( -1.000000000000000000, 0.000000000000000000, -0.000000000000000000 ) ) ;
#976 = DIRECTION ( 'NONE',  ( -0.7071067811865500152, -0.000000000000000000, 0.7071067811865451302 ) ) ;
#977 = AXIS2_PLACEMENT_3D ( 'NONE', #207, #507, #808 ) ;
#978 = LINE ( 'NONE', #74, #786 ) ;
#979 = EDGE_CURVE ( 'NONE', #262, #573, #415, .T. ) ;
#980 = LINE ( 'NONE', #521, #300 ) ;
#981 = DIRECTION ( 'NONE',  ( -0.000000000000000000, -0.000000000000000000, 1.000000000000000000 ) ) ;
ENDSEC;
END-ISO-10303-21;
