ISO-10303-21;
HEADER;
FILE_DESCRIPTION (( 'STEP AP203' ),
    '1' );
FILE_NAME ('top_right.STEP',
    '2026-07-06T16:13:25',
    ( '' ),
    ( '' ),
    'SwSTEP 2.0',
    'SolidWorks 2024',
    '' );
FILE_SCHEMA (( 'CONFIG_CONTROL_DESIGN' ));
ENDSEC;

DATA;
#1 = EDGE_CURVE ( 'NONE', #722, #496, #377, .T. ) ;
#2 = DIRECTION ( 'NONE',  ( 0.000000000000000000, -1.000000000000000000, 0.000000000000000000 ) ) ;
#3 = ORIENTED_EDGE ( 'NONE', *, *, #358, .T. ) ;
#4 = LINE ( 'NONE', #171, #347 ) ;
#5 = CARTESIAN_POINT ( 'NONE',  ( 60.84314575050758123, 3.846253527242101143E-15, -1.656854249492379472 ) ) ;
#6 = AXIS2_PLACEMENT_3D ( 'NONE', #664, #952, #57 ) ;
#7 = VERTEX_POINT ( 'NONE', #747 ) ;
#8 = LINE ( 'NONE', #750, #279 ) ;
#9 = EDGE_CURVE ( 'NONE', #513, #671, #157, .T. ) ;
#10 = DIRECTION ( 'NONE',  ( 0.000000000000000000, 0.000000000000000000, 1.000000000000000000 ) ) ;
#11 = CARTESIAN_POINT ( 'NONE',  ( 62.49999999999994316, 4.000000000000003553, 0.000000000000000000 ) ) ;
#12 = EDGE_LOOP ( 'NONE', ( #88, #758, #605, #666 ) ) ;
#13 = ADVANCED_FACE ( 'NONE', ( #532, #905, #610 ), #896, .T. ) ;
#14 = LINE ( 'NONE', #385, #465 ) ;
#15 = AXIS2_PLACEMENT_3D ( 'NONE', #51, #661, #287 ) ;
#16 = VECTOR ( 'NONE', #2, 1000.000000000000000 ) ;
#17 = CYLINDRICAL_SURFACE ( 'NONE', #188, 3.250000000000002665 ) ;
#18 = VERTEX_POINT ( 'NONE', #72 ) ;
#19 = DIRECTION ( 'NONE',  ( -0.000000000000000000, -0.000000000000000000, -1.000000000000000000 ) ) ;
#20 = FACE_OUTER_BOUND ( 'NONE', #970, .T. ) ;
#21 = CARTESIAN_POINT ( 'NONE',  ( 96.00000000000000000, 60.00000000000000000, 3.999999999999982681 ) ) ;
#22 = ORIENTED_EDGE ( 'NONE', *, *, #933, .F. ) ;
#23 = APPROVAL_ROLE ( '' ) ;
#24 = AXIS2_PLACEMENT_3D ( 'NONE', #731, #198, #52 ) ;
#25 = CARTESIAN_POINT ( 'NONE',  ( 17.49999999999994316, 64.00000000000000000, 0.000000000000000000 ) ) ;
#26 = EDGE_CURVE ( 'NONE', #807, #319, #829, .T. ) ;
#27 = CARTESIAN_POINT ( 'NONE',  ( 96.00000000000000000, 0.000000000000000000, 50.00000000000000000 ) ) ;
#28 = EDGE_LOOP ( 'NONE', ( #420, #194, #149, #883, #354 ) ) ;
#29 = APPLICATION_PROTOCOL_DEFINITION ( 'international standard', 'config_control_design', 1994, #95 ) ;
#30 = CARTESIAN_POINT ( 'NONE',  ( 34.75000000000002132, -4.000000000000000000, -28.25000000000000355 ) ) ;
#31 = CIRCLE ( 'NONE', #833, 3.250000000000002665 ) ;
#32 = AXIS2_PLACEMENT_3D ( 'NONE', #607, #604, #87 ) ;
#33 = CARTESIAN_POINT ( 'NONE',  ( 45.25000000000002132, -3.061616997868386099E-17, -28.25000000000000355 ) ) ;
#34 = ORIENTED_EDGE ( 'NONE', *, *, #977, .T. ) ;
#35 = PERSON_AND_ORGANIZATION_ROLE ( 'creator' ) ;
#36 = DIRECTION ( 'NONE',  ( 0.7071067811865451302, 0.000000000000000000, 0.7071067811865500152 ) ) ;
#37 = FACE_OUTER_BOUND ( 'NONE', #449, .T. ) ;
#38 = DATE_AND_TIME ( #793, #249 ) ;
#39 = EDGE_CURVE ( 'NONE', #767, #164, #387, .T. ) ;
#40 = DIRECTION ( 'NONE',  ( 1.000000000000000000, 0.000000000000000000, 0.000000000000000000 ) ) ;
#41 = LINE ( 'NONE', #270, #773 ) ;
#42 = ORIENTED_EDGE ( 'NONE', *, *, #375, .T. ) ;
#43 = EDGE_LOOP ( 'NONE', ( #227, #472, #185, #104 ) ) ;
#44 = CARTESIAN_POINT ( 'NONE',  ( 34.75000000000002132, 0.000000000000000000, -13.25000000000000533 ) ) ;
#45 = EDGE_CURVE ( 'NONE', #717, #562, #743, .T. ) ;
#46 = FACE_OUTER_BOUND ( 'NONE', #528, .T. ) ;
#47 = VECTOR ( 'NONE', #389, 1000.000000000000000 ) ;
#48 = ORIENTED_EDGE ( 'NONE', *, *, #555, .T. ) ;
#49 = VERTEX_POINT ( 'NONE', #235 ) ;
#50 = SECURITY_CLASSIFICATION ( '', '', #563 ) ;
#51 = CARTESIAN_POINT ( 'NONE',  ( 45.25000000000002132, -3.061616997868386099E-17, -10.00000000000000178 ) ) ;
#52 = DIRECTION ( 'NONE',  ( 0.000000000000000000, -1.000000000000000000, 0.000000000000000000 ) ) ;
#53 = ADVANCED_FACE ( 'NONE', ( #448 ), #67, .F. ) ;
#54 = ORIENTED_EDGE ( 'NONE', *, *, #323, .T. ) ;
#55 = ORIENTED_EDGE ( 'NONE', *, *, #75, .F. ) ;
#56 = LINE ( 'NONE', #657, #882 ) ;
#57 = DIRECTION ( 'NONE',  ( 0.000000000000000000, 0.000000000000000000, 1.000000000000000000 ) ) ;
#58 = EDGE_CURVE ( 'NONE', #256, #574, #690, .T. ) ;
#59 = VERTEX_POINT ( 'NONE', #527 ) ;
#60 = ORIENTED_EDGE ( 'NONE', *, *, #572, .F. ) ;
#61 = DIRECTION ( 'NONE',  ( -0.7071067811865500152, 0.000000000000000000, 0.7071067811865451302 ) ) ;
#62 = CARTESIAN_POINT ( 'NONE',  ( 96.00000000000000000, 0.000000000000000000, 50.00000000000000000 ) ) ;
#63 = ORIENTED_EDGE ( 'NONE', *, *, #89, .T. ) ;
#64 = CIRCLE ( 'NONE', #443, 3.250000000000002665 ) ;
#65 = CARTESIAN_POINT ( 'NONE',  ( 81.00000000000000000, 64.00000000000000000, 3.999999999999998224 ) ) ;
#66 = DIRECTION ( 'NONE',  ( 0.000000000000000000, -1.000000000000000000, 0.000000000000000000 ) ) ;
#67 = PLANE ( 'NONE',  #396 ) ;
#68 = VERTEX_POINT ( 'NONE', #751 ) ;
#69 = LINE ( 'NONE', #147, #203 ) ;
#70 = EDGE_CURVE ( 'NONE', #158, #268, #367, .T. ) ;
#71 = VECTOR ( 'NONE', #939, 1000.000000000000114 ) ;
#72 = CARTESIAN_POINT ( 'NONE',  ( 17.49999999999994316, 4.000000000000003553, 0.000000000000000000 ) ) ;
#73 = ORIENTED_EDGE ( 'NONE', *, *, #39, .F. ) ;
#74 = CARTESIAN_POINT ( 'NONE',  ( 62.49999999999994316, -4.000000000000000000, 0.000000000000000000 ) ) ;
#75 = EDGE_CURVE ( 'NONE', #611, #18, #76, .T. ) ;
#76 = LINE ( 'NONE', #372, #618 ) ;
#77 = ORIENTED_EDGE ( 'NONE', *, *, #460, .F. ) ;
#78 = VECTOR ( 'NONE', #526, 1000.000000000000114 ) ;
#79 = LINE ( 'NONE', #530, #47 ) ;
#80 = AXIS2_PLACEMENT_3D ( 'NONE', #382, #291, #307 ) ;
#81 = LOCAL_TIME ( 12, 13, 25.00000000000000000, #483 ) ;
#82 = EDGE_CURVE ( 'NONE', #272, #807, #218, .T. ) ;
#83 = FACE_OUTER_BOUND ( 'NONE', #702, .T. ) ;
#84 = ORIENTED_EDGE ( 'NONE', *, *, #511, .T. ) ;
#85 = DIRECTION ( 'NONE',  ( 0.000000000000000000, 0.000000000000000000, 1.000000000000000000 ) ) ;
#86 = CARTESIAN_POINT ( 'NONE',  ( 0.000000000000000000, -4.000000000000000000, 0.000000000000000000 ) ) ;
#87 = DIRECTION ( 'NONE',  ( 0.000000000000000000, -0.000000000000000000, 1.000000000000000000 ) ) ;
#88 = ORIENTED_EDGE ( 'NONE', *, *, #913, .T. ) ;
#89 = EDGE_CURVE ( 'NONE', #594, #710, #974, .T. ) ;
#90 = LINE ( 'NONE', #842, #376 ) ;
#91 = DIRECTION ( 'NONE',  ( 1.000000000000000000, -0.000000000000000000, -0.000000000000000000 ) ) ;
#92 = DIRECTION ( 'NONE',  ( 0.000000000000000000, -1.000000000000000000, 0.000000000000000000 ) ) ;
#93 = EDGE_LOOP ( 'NONE', ( #271, #169, #947, #200 ) ) ;
#94 = CC_DESIGN_DATE_AND_TIME_ASSIGNMENT ( #320, #633, ( #655 ) ) ;
#95 = APPLICATION_CONTEXT ( 'configuration controlled 3d designs of mechanical parts and assemblies' ) ;
#96 = DIRECTION ( 'NONE',  ( 1.000000000000000000, 0.000000000000000000, -0.000000000000000000 ) ) ;
#97 = CIRCLE ( 'NONE', #15, 3.250000000000002665 ) ;
#98 = CIRCLE ( 'NONE', #522, 3.250000000000002665 ) ;
#99 = DIRECTION ( 'NONE',  ( 1.000000000000000000, 0.000000000000000000, -0.000000000000000000 ) ) ;
#100 = VERTEX_POINT ( 'NONE', #820 ) ;
#101 = PLANE ( 'NONE',  #811 ) ;
#102 = EDGE_CURVE ( 'NONE', #256, #562, #536, .T. ) ;
#103 = DIRECTION ( 'NONE',  ( 0.000000000000000000, 0.000000000000000000, -1.000000000000000000 ) ) ;
#104 = ORIENTED_EDGE ( 'NONE', *, *, #497, .T. ) ;
#105 = PERSON_AND_ORGANIZATION ( #404, #506 ) ;
#106 = VECTOR ( 'NONE', #117, 1000.000000000000000 ) ;
#107 = PLANE ( 'NONE',  #370 ) ;
#108 = LINE ( 'NONE', #552, #663 ) ;
#109 = ORIENTED_EDGE ( 'NONE', *, *, #885, .T. ) ;
#110 = LINE ( 'NONE', #418, #688 ) ;
#111 = AXIS2_PLACEMENT_3D ( 'NONE', #359, #955, #365 ) ;
#112 = VECTOR ( 'NONE', #682, 1000.000000000000000 ) ;
#113 = CARTESIAN_POINT ( 'NONE',  ( 45.25000000000002132, -3.061616997868386099E-17, -13.25000000000000533 ) ) ;
#114 = EDGE_LOOP ( 'NONE', ( #129, #349, #958, #893 ) ) ;
#115 = ADVANCED_FACE ( 'NONE', ( #83 ), #295, .T. ) ;
#116 = DATE_AND_TIME ( #788, #756 ) ;
#117 = DIRECTION ( 'NONE',  ( 0.000000000000000000, -1.000000000000000000, 0.000000000000000000 ) ) ;
#118 = LINE ( 'NONE', #62, #515 ) ;
#119 = EDGE_LOOP ( 'NONE', ( #241, #706, #362, #84 ) ) ;
#120 = DATE_AND_TIME ( #937, #81 ) ;
#121 = EDGE_CURVE ( 'NONE', #801, #611, #578, .T. ) ;
#122 = CARTESIAN_POINT ( 'NONE',  ( 45.25000000000002132, -4.000000000000000000, -10.00000000000000178 ) ) ;
#123 = VECTOR ( 'NONE', #583, 1000.000000000000000 ) ;
#124 = DIRECTION ( 'NONE',  ( -0.000000000000000000, 1.000000000000000000, -0.000000000000000000 ) ) ;
#125 = ORIENTED_EDGE ( 'NONE', *, *, #102, .T. ) ;
#126 = LINE ( 'NONE', #484, #71 ) ;
#127 = DIRECTION ( 'NONE',  ( 0.000000000000000000, 0.000000000000000000, 1.000000000000000000 ) ) ;
#128 = ORIENTED_EDGE ( 'NONE', *, *, #375, .F. ) ;
#129 = ORIENTED_EDGE ( 'NONE', *, *, #854, .T. ) ;
#130 = CARTESIAN_POINT ( 'NONE',  ( 50.50000000000002132, 0.000000000000000000, -35.00000000000000000 ) ) ;
#131 = EDGE_CURVE ( 'NONE', #953, #676, #616, .T. ) ;
#132 = CYLINDRICAL_SURFACE ( 'NONE', #866, 3.250000000000002665 ) ;
#133 = ORIENTED_EDGE ( 'NONE', *, *, #121, .T. ) ;
#134 = ORIENTED_EDGE ( 'NONE', *, *, #189, .F. ) ;
#135 = LINE ( 'NONE', #582, #787 ) ;
#136 = VECTOR ( 'NONE', #859, 1000.000000000000000 ) ;
#137 = CARTESIAN_POINT ( 'NONE',  ( 34.75000000000002132, -3.061616997868386099E-17, -10.00000000000000178 ) ) ;
#138 = VERTEX_POINT ( 'NONE', #33 ) ;
#139 = ORIENTED_EDGE ( 'NONE', *, *, #150, .T. ) ;
#140 = LINE ( 'NONE', #898, #569 ) ;
#141 = CARTESIAN_POINT ( 'NONE',  ( 29.50000000000002487, 0.000000000000000000, -35.00000000000000000 ) ) ;
#142 = ORIENTED_EDGE ( 'NONE', *, *, #162, .T. ) ;
#143 = VECTOR ( 'NONE', #384, 1000.000000000000000 ) ;
#144 = ORIENTED_EDGE ( 'NONE', *, *, #58, .T. ) ;
#145 = EDGE_CURVE ( 'NONE', #18, #514, #678, .T. ) ;
#146 = VECTOR ( 'NONE', #190, 1000.000000000000000 ) ;
#147 = CARTESIAN_POINT ( 'NONE',  ( 100.0000000000000000, 64.00000000000000000, 50.00000000000000000 ) ) ;
#148 = DIRECTION ( 'NONE',  ( -1.000000000000000000, 0.000000000000000000, 1.445602896647339163E-16 ) ) ;
#149 = ORIENTED_EDGE ( 'NONE', *, *, #1, .F. ) ;
#150 = EDGE_CURVE ( 'NONE', #948, #611, #250, .T. ) ;
#151 = CARTESIAN_POINT ( 'NONE',  ( 27.50000000000000355, 0.000000000000000000, -2.406712924003484753E-15 ) ) ;
#152 = AXIS2_PLACEMENT_3D ( 'NONE', #534, #459, #815 ) ;
#153 = DIRECTION ( 'NONE',  ( -1.000000000000000000, -0.000000000000000000, -0.000000000000000000 ) ) ;
#154 = ORIENTED_EDGE ( 'NONE', *, *, #625, .F. ) ;
#155 = DIRECTION ( 'NONE',  ( 1.000000000000000000, -0.000000000000000000, -0.000000000000000000 ) ) ;
#156 = EDGE_CURVE ( 'NONE', #948, #100, #317, .T. ) ;
#157 = LINE ( 'NONE', #452, #697 ) ;
#158 = VERTEX_POINT ( 'NONE', #695 ) ;
#159 = VECTOR ( 'NONE', #960, 1000.000000000000000 ) ;
#160 = VECTOR ( 'NONE', #466, 1000.000000000000000 ) ;
#161 = CARTESIAN_POINT ( 'NONE',  ( 34.75000000000002132, -3.061616997868386099E-17, -28.25000000000000355 ) ) ;
#162 = EDGE_CURVE ( 'NONE', #308, #514, #844, .T. ) ;
#163 = CARTESIAN_POINT ( 'NONE',  ( 62.49999999999995026, 1.656854249492382802, -2.869525943294878878E-16 ) ) ;
#164 = VERTEX_POINT ( 'NONE', #312 ) ;
#165 = CARTESIAN_POINT ( 'NONE',  ( 45.25000000000002842, 0.000000000000000000, -6.749999999999936939 ) ) ;
#166 = LINE ( 'NONE', #838, #531 ) ;
#167 = CARTESIAN_POINT ( 'NONE',  ( 17.49999999999994671, 1.656854249492384135, 0.000000000000000000 ) ) ;
#168 = VECTOR ( 'NONE', #242, 1000.000000000000000 ) ;
#169 = ORIENTED_EDGE ( 'NONE', *, *, #541, .F. ) ;
#170 = CC_DESIGN_SECURITY_CLASSIFICATION ( #50, ( #729 ) ) ;
#171 = CARTESIAN_POINT ( 'NONE',  ( 96.00000000000000000, 60.00000000000000000, 3.999999999999982681 ) ) ;
#172 = DIRECTION ( 'NONE',  ( 1.000000000000000000, -0.000000000000000000, -0.000000000000000000 ) ) ;
#173 = DIRECTION ( 'NONE',  ( 0.000000000000000000, -1.000000000000000000, 0.000000000000000000 ) ) ;
#174 = EDGE_LOOP ( 'NONE', ( #930, #215, #220, #595 ) ) ;
#175 = ADVANCED_FACE ( 'NONE', ( #37 ), #771, .F. ) ;
#176 = DIRECTION ( 'NONE',  ( -0.7071067811865472397, 0.000000000000000000, 0.7071067811865479058 ) ) ;
#177 = VECTOR ( 'NONE', #606, 1000.000000000000000 ) ;
#178 = CYLINDRICAL_SURFACE ( 'NONE', #489, 3.250000000000002665 ) ;
#179 = ORIENTED_EDGE ( 'NONE', *, *, #156, .F. ) ;
#180 = LINE ( 'NONE', #783, #106 ) ;
#181 = DIRECTION ( 'NONE',  ( -0.000000000000000000, 1.000000000000000000, -0.000000000000000000 ) ) ;
#182 = VERTEX_POINT ( 'NONE', #701 ) ;
#183 = CARTESIAN_POINT ( 'NONE',  ( 52.50000000000000711, -4.000000000000000000, -10.00000000000003553 ) ) ;
#184 = CARTESIAN_POINT ( 'NONE',  ( 17.49999999999994316, 4.000000000000003553, 0.000000000000000000 ) ) ;
#185 = ORIENTED_EDGE ( 'NONE', *, *, #358, .F. ) ;
#186 = APPROVAL_DATE_TIME ( #120, #474 ) ;
#187 = LINE ( 'NONE', #872, #318 ) ;
#188 = AXIS2_PLACEMENT_3D ( 'NONE', #626, #403, #861 ) ;
#189 = EDGE_CURVE ( 'NONE', #594, #432, #414, .T. ) ;
#190 = DIRECTION ( 'NONE',  ( 1.000000000000000000, -0.000000000000000000, -0.000000000000000000 ) ) ;
#191 = APPROVAL_STATUS ( 'not_yet_approved' ) ;
#192 = CARTESIAN_POINT ( 'NONE',  ( 27.50000000000001066, 0.000000000000000000, -33.00000000000000000 ) ) ;
#193 = CARTESIAN_POINT ( 'NONE',  ( 0.000000000000000000, 64.00000000000000000, 3.999999999999996447 ) ) ;
#194 = ORIENTED_EDGE ( 'NONE', *, *, #497, .F. ) ;
#195 = PRODUCT_RELATED_PRODUCT_CATEGORY ( 'detail', '', ( #344 ) ) ;
#196 = FACE_BOUND ( 'NONE', #12, .T. ) ;
#197 = CIRCLE ( 'NONE', #873, 3.250000000000002665 ) ;
#198 = DIRECTION ( 'NONE',  ( 0.7071067811865431318, 0.000000000000000000, 0.7071067811865520136 ) ) ;
#199 = ORIENTED_EDGE ( 'NONE', *, *, #429, .F. ) ;
#200 = ORIENTED_EDGE ( 'NONE', *, *, #854, .F. ) ;
#201 = EDGE_CURVE ( 'NONE', #748, #807, #108, .T. ) ;
#202 = CARTESIAN_POINT ( 'NONE',  ( 45.25000000000002132, 0.000000000000000000, -28.25000000000000355 ) ) ;
#203 = VECTOR ( 'NONE', #447, 1000.000000000000000 ) ;
#204 = PLANE ( 'NONE',  #24 ) ;
#205 = AXIS2_PLACEMENT_3D ( 'NONE', #471, #705, #99 ) ;
#206 = ORIENTED_EDGE ( 'NONE', *, *, #712, .F. ) ;
#207 = ORIENTED_EDGE ( 'NONE', *, *, #740, .T. ) ;
#208 = FACE_OUTER_BOUND ( 'NONE', #735, .T. ) ;
#209 = CARTESIAN_POINT ( 'NONE',  ( 34.75000000000002132, -3.061616997868386099E-17, -6.749999999999999112 ) ) ;
#210 = ORIENTED_EDGE ( 'NONE', *, *, #323, .F. ) ;
#211 = PLANE ( 'NONE',  #219 ) ;
#212 = AXIS2_PLACEMENT_3D ( 'NONE', #760, #518, #238 ) ;
#213 = CARTESIAN_POINT ( 'NONE',  ( 100.0000000000000000, 64.00000000000000000, 0.000000000000000000 ) ) ;
#214 = VERTEX_POINT ( 'NONE', #21 ) ;
#215 = ORIENTED_EDGE ( 'NONE', *, *, #58, .F. ) ;
#216 = CARTESIAN_POINT ( 'NONE',  ( 0.000000000000000000, 64.00000000000000000, 3.999999999999996447 ) ) ;
#217 = ADVANCED_FACE ( 'NONE', ( #393 ), #17, .F. ) ;
#218 = LINE ( 'NONE', #675, #589 ) ;
#219 = AXIS2_PLACEMENT_3D ( 'NONE', #151, #510, #222 ) ;
#220 = ORIENTED_EDGE ( 'NONE', *, *, #581, .F. ) ;
#221 = VECTOR ( 'NONE', #757, 1000.000000000000000 ) ;
#222 = DIRECTION ( 'NONE',  ( -1.982541115402065110E-16, 0.000000000000000000, 1.000000000000000000 ) ) ;
#223 = DIRECTION ( 'NONE',  ( 0.7071067811865520136, 0.000000000000000000, -0.7071067811865431318 ) ) ;
#224 = ORIENTED_EDGE ( 'NONE', *, *, #755, .F. ) ;
#225 = DIRECTION ( 'NONE',  ( 1.000000000000000000, -0.000000000000000000, -1.445602896647339163E-16 ) ) ;
#226 = DIRECTION ( 'NONE',  ( -1.445602896647339163E-16, 0.000000000000000000, -1.000000000000000000 ) ) ;
#227 = ORIENTED_EDGE ( 'NONE', *, *, #455, .T. ) ;
#228 = EDGE_CURVE ( 'NONE', #836, #543, #856, .T. ) ;
#229 = DIRECTION ( 'NONE',  ( -1.000000000000000000, 0.000000000000000000, 0.000000000000000000 ) ) ;
#230 = CARTESIAN_POINT ( 'NONE',  ( 34.75000000000002132, -4.000000000000000000, -13.25000000000000533 ) ) ;
#231 = ORIENTED_EDGE ( 'NONE', *, *, #674, .F. ) ;
#232 = VECTOR ( 'NONE', #822, 1000.000000000000114 ) ;
#233 = CARTESIAN_POINT ( 'NONE',  ( 81.00000000000000000, 60.00000000000000000, 3.999999999999998224 ) ) ;
#234 = FACE_OUTER_BOUND ( 'NONE', #114, .T. ) ;
#235 = CARTESIAN_POINT ( 'NONE',  ( 96.00000000000000000, 64.00000000000000000, 18.99999999999998224 ) ) ;
#236 = ORIENTED_EDGE ( 'NONE', *, *, #75, .T. ) ;
#237 =( NAMED_UNIT ( * ) SI_UNIT ( $, .STERADIAN. ) SOLID_ANGLE_UNIT ( ) );
#238 = DIRECTION ( 'NONE',  ( -1.000000000000000000, 0.000000000000000000, -0.000000000000000000 ) ) ;
#239 = DIRECTION ( 'NONE',  ( 0.000000000000000000, 0.000000000000000000, 1.000000000000000000 ) ) ;
#240 = AXIS2_PLACEMENT_3D ( 'NONE', #192, #36, #333 ) ;
#241 = ORIENTED_EDGE ( 'NONE', *, *, #541, .T. ) ;
#242 = DIRECTION ( 'NONE',  ( 0.000000000000000000, 0.000000000000000000, 1.000000000000000000 ) ) ;
#243 = CARTESIAN_POINT ( 'NONE',  ( 52.50000000000001421, -4.000000000000000000, -33.00000000000000000 ) ) ;
#244 = ORIENTED_EDGE ( 'NONE', *, *, #468, .T. ) ;
#245 = ADVANCED_FACE ( 'NONE', ( #923 ), #929, .F. ) ;
#246 = CARTESIAN_POINT ( 'NONE',  ( 0.000000000000000000, 0.000000000000000000, 0.000000000000000000 ) ) ;
#247 = FACE_OUTER_BOUND ( 'NONE', #942, .T. ) ;
#248 = VECTOR ( 'NONE', #738, 1000.000000000000000 ) ;
#249 = LOCAL_TIME ( 12, 13, 25.00000000000000000, #774 ) ;
#250 = LINE ( 'NONE', #636, #713 ) ;
#251 = VERTEX_POINT ( 'NONE', #329 ) ;
#252 = PERSON_AND_ORGANIZATION ( #404, #506 ) ;
#253 = EDGE_CURVE ( 'NONE', #710, #268, #849, .T. ) ;
#254 = DIRECTION ( 'NONE',  ( 0.000000000000000000, 1.000000000000000000, 0.000000000000000000 ) ) ;
#255 = CARTESIAN_POINT ( 'NONE',  ( 17.49999999999994316, 0.000000000000000000, 0.000000000000000000 ) ) ;
#256 = VERTEX_POINT ( 'NONE', #243 ) ;
#257 = VECTOR ( 'NONE', #794, 1000.000000000000000 ) ;
#258 = PERSON_AND_ORGANIZATION_ROLE ( 'creator' ) ;
#259 = FACE_OUTER_BOUND ( 'NONE', #817, .T. ) ;
#260 = ADVANCED_FACE ( 'NONE', ( #935 ), #178, .F. ) ;
#261 = DIRECTION ( 'NONE',  ( 0.000000000000000000, 1.000000000000000000, 0.000000000000000000 ) ) ;
#262 = ORIENTED_EDGE ( 'NONE', *, *, #131, .T. ) ;
#263 = SHAPE_DEFINITION_REPRESENTATION ( #945, #392 ) ;
#264 = CARTESIAN_POINT ( 'NONE',  ( 62.49999999999994316, 4.000000000000003553, 0.000000000000000000 ) ) ;
#265 = AXIS2_PLACEMENT_3D ( 'NONE', #454, #684, #309 ) ;
#266 = VECTOR ( 'NONE', #261, 1000.000000000000000 ) ;
#267 = DIRECTION ( 'NONE',  ( 1.982541115402065110E-16, 0.000000000000000000, -1.000000000000000000 ) ) ;
#268 = VERTEX_POINT ( 'NONE', #113 ) ;
#269 = CARTESIAN_POINT ( 'NONE',  ( 34.75000000000002132, -3.061616997868386099E-17, -25.00000000000000000 ) ) ;
#270 = CARTESIAN_POINT ( 'NONE',  ( 0.000000000000000000, -4.000000000000000000, 50.00000000000000000 ) ) ;
#271 = ORIENTED_EDGE ( 'NONE', *, *, #925, .F. ) ;
#272 = VERTEX_POINT ( 'NONE', #27 ) ;
#273 = CARTESIAN_POINT ( 'NONE',  ( 52.50000000000000711, 0.000000000000000000, -10.00000000000003730 ) ) ;
#274 = LINE ( 'NONE', #512, #949 ) ;
#275 = VERTEX_POINT ( 'NONE', #481 ) ;
#276 = ORIENTED_EDGE ( 'NONE', *, *, #429, .T. ) ;
#277 = EDGE_CURVE ( 'NONE', #936, #806, #780, .T. ) ;
#278 = CARTESIAN_POINT ( 'NONE',  ( 0.000000000000000000, 0.000000000000000000, 50.00000000000000000 ) ) ;
#279 = VECTOR ( 'NONE', #458, 1000.000000000000000 ) ;
#280 = DIRECTION ( 'NONE',  ( -0.000000000000000000, 1.000000000000000000, -0.000000000000000000 ) ) ;
#281 = EDGE_LOOP ( 'NONE', ( #436, #462, #888, #350 ) ) ;
#282 = VERTEX_POINT ( 'NONE', #716 ) ;
#283 = CARTESIAN_POINT ( 'NONE',  ( 34.75000000000002132, -4.000000000000000000, -28.25000000000000355 ) ) ;
#284 = PLANE ( 'NONE',  #640 ) ;
#285 = VERTEX_POINT ( 'NONE', #334 ) ;
#286 = ORIENTED_EDGE ( 'NONE', *, *, #925, .T. ) ;
#287 = DIRECTION ( 'NONE',  ( 0.000000000000000000, 0.000000000000000000, 1.000000000000000000 ) ) ;
#288 = AXIS2_PLACEMENT_3D ( 'NONE', #315, #176, #476 ) ;
#289 = ADVANCED_FACE ( 'NONE', ( #941 ), #840, .F. ) ;
#290 = FACE_OUTER_BOUND ( 'NONE', #575, .T. ) ;
#291 = DIRECTION ( 'NONE',  ( 1.000000000000000000, 0.000000000000000000, 1.982541115402065110E-16 ) ) ;
#292 = VERTEX_POINT ( 'NONE', #209 ) ;
#293 = CARTESIAN_POINT ( 'NONE',  ( 0.000000000000000000, -4.000000000000000000, 50.00000000000000000 ) ) ;
#294 = EDGE_CURVE ( 'NONE', #158, #292, #98, .T. ) ;
#295 = PLANE ( 'NONE',  #80 ) ;
#296 = ORIENTED_EDGE ( 'NONE', *, *, #253, .F. ) ;
#297 = APPROVAL_PERSON_ORGANIZATION ( #406, #549, #23 ) ;
#298 = CARTESIAN_POINT ( 'NONE',  ( 34.75000000000002842, 0.000000000000000000, -6.749999999999936939 ) ) ;
#299 = CARTESIAN_POINT ( 'NONE',  ( 96.00000000000000000, 64.00000000000000000, 3.999999999999982681 ) ) ;
#300 = ORIENTED_EDGE ( 'NONE', *, *, #878, .F. ) ;
#301 = ADVANCED_FACE ( 'NONE', ( #46 ), #132, .F. ) ;
#302 = CARTESIAN_POINT ( 'NONE',  ( 100.0000000000000000, 64.00000000000000000, 0.000000000000000000 ) ) ;
#303 = CARTESIAN_POINT ( 'NONE',  ( 8.749999999999863221, -4.000000000000000000, 8.749999999999973355 ) ) ;
#304 = VERTEX_POINT ( 'NONE', #426 ) ;
#305 = CARTESIAN_POINT ( 'NONE',  ( 45.25000000000002132, -4.000000000000000000, -25.00000000000000000 ) ) ;
#306 = PLANE ( 'NONE',  #212 ) ;
#307 = DIRECTION ( 'NONE',  ( 1.982541115402065110E-16, 0.000000000000000000, -1.000000000000000000 ) ) ;
#308 = VERTEX_POINT ( 'NONE', #961 ) ;
#309 = DIRECTION ( 'NONE',  ( 1.000000000000000000, 0.000000000000000000, -0.000000000000000000 ) ) ;
#310 = DIRECTION ( 'NONE',  ( 0.000000000000000000, 0.000000000000000000, 1.000000000000000000 ) ) ;
#311 = EDGE_CURVE ( 'NONE', #275, #322, #439, .T. ) ;
#312 = CARTESIAN_POINT ( 'NONE',  ( 0.000000000000000000, -4.000000000000000000, 0.000000000000000000 ) ) ;
#313 = ORIENTED_EDGE ( 'NONE', *, *, #959, .T. ) ;
#314 = CARTESIAN_POINT ( 'NONE',  ( 0.000000000000000000, 0.000000000000000000, 0.000000000000000000 ) ) ;
#315 = CARTESIAN_POINT ( 'NONE',  ( 81.00000000000000000, 60.00000000000000000, 3.999999999999998224 ) ) ;
#316 = EDGE_CURVE ( 'NONE', #304, #748, #41, .T. ) ;
#317 = LINE ( 'NONE', #766, #160 ) ;
#318 = VECTOR ( 'NONE', #720, 1000.000000000000000 ) ;
#319 = VERTEX_POINT ( 'NONE', #573 ) ;
#320 = DATE_AND_TIME ( #707, #931 ) ;
#321 = DIRECTION ( 'NONE',  ( 0.000000000000000000, -1.000000000000000000, 0.000000000000000000 ) ) ;
#322 = VERTEX_POINT ( 'NONE', #590 ) ;
#323 = EDGE_CURVE ( 'NONE', #806, #49, #865, .T. ) ;
#324 = APPROVAL_DATE_TIME ( #38, #549 ) ;
#325 = AXIS2_PLACEMENT_3D ( 'NONE', #803, #438, #737 ) ;
#326 = DIRECTION ( 'NONE',  ( 1.000000000000000000, -0.000000000000000000, -1.445602896647339163E-16 ) ) ;
#327 = VECTOR ( 'NONE', #485, 1000.000000000000000 ) ;
#328 = CC_DESIGN_APPROVAL ( #517, ( #50 ) ) ;
#329 = CARTESIAN_POINT ( 'NONE',  ( 96.00000000000000000, 60.00000000000000000, 18.99999999999998224 ) ) ;
#330 = ORIENTED_EDGE ( 'NONE', *, *, #311, .T. ) ;
#331 = APPROVAL_STATUS ( 'not_yet_approved' ) ;
#332 = EDGE_CURVE ( 'NONE', #457, #272, #274, .T. ) ;
#333 = DIRECTION ( 'NONE',  ( 0.000000000000000000, -1.000000000000000000, 0.000000000000000000 ) ) ;
#334 = CARTESIAN_POINT ( 'NONE',  ( 45.25000000000002132, -4.000000000000000000, -28.25000000000000355 ) ) ;
#335 = ORIENTED_EDGE ( 'NONE', *, *, #966, .T. ) ;
#336 = VECTOR ( 'NONE', #934, 1000.000000000000000 ) ;
#337 = MECHANICAL_CONTEXT ( 'NONE', #345, 'mechanical' ) ;
#338 = CARTESIAN_POINT ( 'NONE',  ( 0.000000000000000000, -4.000000000000000000, 0.000000000000000000 ) ) ;
#339 = FACE_OUTER_BOUND ( 'NONE', #902, .T. ) ;
#340 = EDGE_LOOP ( 'NONE', ( #300, #231, #627 ) ) ;
#341 = ORIENTED_EDGE ( 'NONE', *, *, #311, .F. ) ;
#342 = COORDINATED_UNIVERSAL_TIME_OFFSET ( 5, 0, .BEHIND. ) ;
#343 = CARTESIAN_POINT ( 'NONE',  ( 50.50000000000002132, 0.000000000000000000, -35.00000000000000000 ) ) ;
#344 = PRODUCT ( 'top_right', 'top_right', '', ( #337 ) ) ;
#345 = APPLICATION_CONTEXT ( 'configuration controlled 3d designs of mechanical parts and assemblies' ) ;
#346 = EDGE_CURVE ( 'NONE', #580, #319, #419, .T. ) ;
#347 = VECTOR ( 'NONE', #908, 1000.000000000000000 ) ;
#348 = LINE ( 'NONE', #360, #123 ) ;
#349 = ORIENTED_EDGE ( 'NONE', *, *, #468, .F. ) ;
#350 = ORIENTED_EDGE ( 'NONE', *, *, #82, .F. ) ;
#351 = LINE ( 'NONE', #216, #159 ) ;
#352 = CARTESIAN_POINT ( 'NONE',  ( 27.50000000000000355, -4.000000000000000000, -2.406712924003484753E-15 ) ) ;
#353 = ORIENTED_EDGE ( 'NONE', *, *, #294, .T. ) ;
#354 = ORIENTED_EDGE ( 'NONE', *, *, #145, .T. ) ;
#355 = DIRECTION ( 'NONE',  ( 0.000000000000000000, 0.000000000000000000, 1.000000000000000000 ) ) ;
#356 = PLANE ( 'NONE',  #956 ) ;
#357 = ORIENTED_EDGE ( 'NONE', *, *, #70, .F. ) ;
#358 = EDGE_CURVE ( 'NONE', #496, #68, #490, .T. ) ;
#359 = CARTESIAN_POINT ( 'NONE',  ( 45.25000000000002132, -3.061616997868386099E-17, -25.00000000000000000 ) ) ;
#360 = CARTESIAN_POINT ( 'NONE',  ( 100.0000000000000000, 64.00000000000000000, 50.00000000000000000 ) ) ;
#361 = VECTOR ( 'NONE', #173, 1000.000000000000000 ) ;
#362 = ORIENTED_EDGE ( 'NONE', *, *, #933, .T. ) ;
#363 = ORIENTED_EDGE ( 'NONE', *, *, #846, .T. ) ;
#364 = EDGE_CURVE ( 'NONE', #7, #272, #118, .T. ) ;
#365 = DIRECTION ( 'NONE',  ( 0.000000000000000000, 0.000000000000000000, 1.000000000000000000 ) ) ;
#366 = DIRECTION ( 'NONE',  ( -1.000000000000000000, 0.000000000000000000, 0.000000000000000000 ) ) ;
#367 = LINE ( 'NONE', #456, #571 ) ;
#368 = ORIENTED_EDGE ( 'NONE', *, *, #156, .T. ) ;
#369 = CARTESIAN_POINT ( 'NONE',  ( 34.75000000000002132, 0.000000000000000000, -21.75000000000000000 ) ) ;
#370 = AXIS2_PLACEMENT_3D ( 'NONE', #338, #628, #779 ) ;
#371 = CC_DESIGN_PERSON_AND_ORGANIZATION_ASSIGNMENT ( #252, #258, ( #729 ) ) ;
#372 = CARTESIAN_POINT ( 'NONE',  ( 0.000000000000000000, 4.000000000000003553, 0.000000000000000000 ) ) ;
#373 = ORIENTED_EDGE ( 'NONE', *, *, #511, .F. ) ;
#374 = CARTESIAN_POINT ( 'NONE',  ( 100.0000000000000000, 64.00000000000000000, 50.00000000000000000 ) ) ;
#375 = EDGE_CURVE ( 'NONE', #964, #304, #348, .T. ) ;
#376 = VECTOR ( 'NONE', #469, 1000.000000000000000 ) ;
#377 = LINE ( 'NONE', #303, #379 ) ;
#378 = ORIENTED_EDGE ( 'NONE', *, *, #839, .F. ) ;
#379 = VECTOR ( 'NONE', #223, 1000.000000000000000 ) ;
#380 = AXIS2_PLACEMENT_3D ( 'NONE', #246, #867, #703 ) ;
#381 = CARTESIAN_POINT ( 'NONE',  ( 100.0000000000000000, 64.00000000000000000, 0.000000000000000000 ) ) ;
#382 = CARTESIAN_POINT ( 'NONE',  ( 52.50000000000000711, 0.000000000000000000, 0.000000000000000000 ) ) ;
#383 = ORIENTED_EDGE ( 'NONE', *, *, #390, .F. ) ;
#384 = DIRECTION ( 'NONE',  ( 1.000000000000000000, -0.000000000000000000, -0.000000000000000000 ) ) ;
#385 = CARTESIAN_POINT ( 'NONE',  ( 27.50000000000000711, 0.000000000000000000, -9.999999999999937828 ) ) ;
#386 = AXIS2_PLACEMENT_3D ( 'NONE', #654, #280, #507 ) ;
#387 = LINE ( 'NONE', #445, #112 ) ;
#388 = VERTEX_POINT ( 'NONE', #651 ) ;
#389 = DIRECTION ( 'NONE',  ( 0.000000000000000000, 0.000000000000000000, -1.000000000000000000 ) ) ;
#390 = EDGE_CURVE ( 'NONE', #275, #513, #875, .T. ) ;
#391 = CARTESIAN_POINT ( 'NONE',  ( 27.50000000000000711, -4.000000000000000000, -9.999999999999937828 ) ) ;
#392 = ADVANCED_BREP_SHAPE_REPRESENTATION ( 'top_right', ( #789, #380 ), #680 ) ;
#393 = FACE_OUTER_BOUND ( 'NONE', #93, .T. ) ;
#394 = ORIENTED_EDGE ( 'NONE', *, *, #1, .T. ) ;
#395 = DIRECTION ( 'NONE',  ( 0.000000000000000000, 1.000000000000000000, 0.000000000000000000 ) ) ;
#396 = AXIS2_PLACEMENT_3D ( 'NONE', #299, #226, #148 ) ;
#397 = ADVANCED_FACE ( 'NONE', ( #430 ), #499, .F. ) ;
#398 = CARTESIAN_POINT ( 'NONE',  ( 100.0000000000000000, -4.000000000000000000, 0.000000000000000000 ) ) ;
#399 = CARTESIAN_POINT ( 'NONE',  ( 45.25000000000002132, 0.000000000000000000, -13.25000000000000533 ) ) ;
#400 = ORIENTED_EDGE ( 'NONE', *, *, #944, .F. ) ;
#401 = CARTESIAN_POINT ( 'NONE',  ( 52.50000000000000711, 0.000000000000000000, 0.000000000000000000 ) ) ;
#402 = ADVANCED_FACE ( 'NONE', ( #880 ), #204, .F. ) ;
#403 = DIRECTION ( 'NONE',  ( -0.000000000000000000, 1.000000000000000000, -0.000000000000000000 ) ) ;
#404 = PERSON ( 'UNSPECIFIED', 'UNSPECIFIED', 'UNSPECIFIED', ('UNSPECIFIED'), ('UNSPECIFIED'), ('UNSPECIFIED') ) ;
#405 = ORIENTED_EDGE ( 'NONE', *, *, #121, .F. ) ;
#406 = PERSON_AND_ORGANIZATION ( #404, #506 ) ;
#407 = LINE ( 'NONE', #639, #795 ) ;
#408 = ADVANCED_FACE ( 'NONE', ( #339 ), #566, .F. ) ;
#409 = CARTESIAN_POINT ( 'NONE',  ( 21.49999999999999289, 0.000000000000000000, -4.000000000000000000 ) ) ;
#410 = ORIENTED_EDGE ( 'NONE', *, *, #903, .F. ) ;
#411 = APPLICATION_PROTOCOL_DEFINITION ( 'international standard', 'config_control_design', 1994, #345 ) ;
#412 = VECTOR ( 'NONE', #753, 1000.000000000000114 ) ;
#413 = CARTESIAN_POINT ( 'NONE',  ( 96.00000000000000000, 64.00000000000000000, 50.00000000000000000 ) ) ;
#414 = CIRCLE ( 'NONE', #928, 3.250000000000002665 ) ;
#415 = CARTESIAN_POINT ( 'NONE',  ( 81.00000000000000000, 60.00000000000000000, 3.999999999999998224 ) ) ;
#416 = ORIENTED_EDGE ( 'NONE', *, *, #316, .T. ) ;
#417 = COORDINATED_UNIVERSAL_TIME_OFFSET ( 5, 0, .BEHIND. ) ;
#418 = CARTESIAN_POINT ( 'NONE',  ( 0.000000000000000000, -4.000000000000000000, 0.000000000000000000 ) ) ;
#419 = LINE ( 'NONE', #193, #248 ) ;
#420 = ORIENTED_EDGE ( 'NONE', *, *, #162, .F. ) ;
#421 = ORIENTED_EDGE ( 'NONE', *, *, #730, .T. ) ;
#422 = PERSON_AND_ORGANIZATION ( #404, #506 ) ;
#423 = ADVANCED_FACE ( 'NONE', ( #805 ), #356, .F. ) ;
#424 = LINE ( 'NONE', #25, #545 ) ;
#425 = UNCERTAINTY_MEASURE_WITH_UNIT (LENGTH_MEASURE( 1.000000000000000082E-05 ), #619, 'distance_accuracy_value', 'NONE');
#426 = CARTESIAN_POINT ( 'NONE',  ( 100.0000000000000000, -4.000000000000000000, 50.00000000000000000 ) ) ;
#427 = ORIENTED_EDGE ( 'NONE', *, *, #525, .F. ) ;
#428 = CARTESIAN_POINT ( 'NONE',  ( 52.50000000000001421, 0.000000000000000000, -33.00000000000000000 ) ) ;
#429 = EDGE_CURVE ( 'NONE', #748, #164, #693, .T. ) ;
#430 = FACE_OUTER_BOUND ( 'NONE', #685, .T. ) ;
#431 = ORIENTED_EDGE ( 'NONE', *, *, #878, .T. ) ;
#432 = VERTEX_POINT ( 'NONE', #540 ) ;
#433 = LINE ( 'NONE', #592, #78 ) ;
#434 = DIRECTION ( 'NONE',  ( 0.7071067811865479058, 0.000000000000000000, 0.7071067811865472397 ) ) ;
#435 = ADVANCED_FACE ( 'NONE', ( #669 ), #972, .F. ) ;
#436 = ORIENTED_EDGE ( 'NONE', *, *, #364, .F. ) ;
#437 = ORIENTED_EDGE ( 'NONE', *, *, #586, .T. ) ;
#438 = DIRECTION ( 'NONE',  ( -0.000000000000000000, 1.000000000000000000, -0.000000000000000000 ) ) ;
#439 = LINE ( 'NONE', #734, #146 ) ;
#440 = ADVANCED_FACE ( 'NONE', ( #917 ), #598, .F. ) ;
#441 = ORIENTED_EDGE ( 'NONE', *, *, #603, .T. ) ;
#442 = DIRECTION ( 'NONE',  ( 0.7071067811865441310, -0.000000000000000000, 0.7071067811865510144 ) ) ;
#443 = AXIS2_PLACEMENT_3D ( 'NONE', #269, #576, #355 ) ;
#444 = LINE ( 'NONE', #742, #826 ) ;
#445 = CARTESIAN_POINT ( 'NONE',  ( 0.000000000000000000, 64.00000000000000000, 0.000000000000000000 ) ) ;
#446 = EDGE_LOOP ( 'NONE', ( #286, #224, #363, #825 ) ) ;
#447 = DIRECTION ( 'NONE',  ( 1.000000000000000000, -0.000000000000000000, -0.000000000000000000 ) ) ;
#448 = FACE_OUTER_BOUND ( 'NONE', #591, .T. ) ;
#449 = EDGE_LOOP ( 'NONE', ( #579, #199, #501, #622, #553, #979 ) ) ;
#450 = FACE_OUTER_BOUND ( 'NONE', #281, .T. ) ;
#451 = ADVANCED_FACE ( 'NONE', ( #234 ), #284, .F. ) ;
#452 = CARTESIAN_POINT ( 'NONE',  ( 52.50000000000001421, 0.000000000000000000, -35.00000000000000000 ) ) ;
#453 = ORIENTED_EDGE ( 'NONE', *, *, #846, .F. ) ;
#454 = CARTESIAN_POINT ( 'NONE',  ( 0.000000000000000000, 64.00000000000000000, 0.000000000000000000 ) ) ;
#455 = EDGE_CURVE ( 'NONE', #308, #282, #166, .T. ) ;
#456 = CARTESIAN_POINT ( 'NONE',  ( 34.75000000000002132, -3.061616997868386099E-17, -13.25000000000000533 ) ) ;
#457 = VERTEX_POINT ( 'NONE', #765 ) ;
#458 = DIRECTION ( 'NONE',  ( 1.000000000000000000, -0.000000000000000000, -0.000000000000000000 ) ) ;
#459 = DIRECTION ( 'NONE',  ( 0.000000000000000000, -1.000000000000000000, 0.000000000000000000 ) ) ;
#460 = EDGE_CURVE ( 'NONE', #574, #717, #704, .T. ) ;
#461 = CARTESIAN_POINT ( 'NONE',  ( 0.000000000000000000, 0.000000000000000000, 0.000000000000000000 ) ) ;
#462 = ORIENTED_EDGE ( 'NONE', *, *, #966, .F. ) ;
#463 = LINE ( 'NONE', #381, #177 ) ;
#464 = DIRECTION ( 'NONE',  ( -1.982541115402065110E-16, -0.000000000000000000, 1.000000000000000000 ) ) ;
#465 = VECTOR ( 'NONE', #620, 1000.000000000000000 ) ;
#466 = DIRECTION ( 'NONE',  ( 1.000000000000000000, 0.000000000000000000, 0.000000000000000000 ) ) ;
#467 = ORIENTED_EDGE ( 'NONE', *, *, #332, .T. ) ;
#468 = EDGE_CURVE ( 'NONE', #836, #138, #776, .T. ) ;
#469 = DIRECTION ( 'NONE',  ( 0.000000000000000000, -1.000000000000000000, 0.000000000000000000 ) ) ;
#470 = CARTESIAN_POINT ( 'NONE',  ( 21.49999999999999289, 0.000000000000000000, -4.000000000000000000 ) ) ;
#471 = CARTESIAN_POINT ( 'NONE',  ( 34.75000000000002132, 0.000000000000000000, -21.75000000000000000 ) ) ;
#472 = ORIENTED_EDGE ( 'NONE', *, *, #599, .T. ) ;
#473 = APPROVAL_PERSON_ORGANIZATION ( #492, #474, #638 ) ;
#474 = APPROVAL ( #331, 'UNSPECIFIED' ) ;
#475 = ADVANCED_FACE ( 'NONE', ( #290 ), #922, .F. ) ;
#476 = DIRECTION ( 'NONE',  ( 0.7071067811865479058, 0.000000000000000000, 0.7071067811865472397 ) ) ;
#477 = CARTESIAN_POINT ( 'NONE',  ( 34.75000000000002132, 0.000000000000000000, -25.00000000000000000 ) ) ;
#478 = ORIENTED_EDGE ( 'NONE', *, *, #903, .T. ) ;
#479 = FACE_BOUND ( 'NONE', #446, .T. ) ;
#480 = ADVANCED_FACE ( 'NONE', ( #593 ), #306, .F. ) ;
#481 = CARTESIAN_POINT ( 'NONE',  ( 29.50000000000002487, -4.000000000000000000, -35.00000000000000000 ) ) ;
#482 = ORIENTED_EDGE ( 'NONE', *, *, #70, .T. ) ;
#483 = COORDINATED_UNIVERSAL_TIME_OFFSET ( 5, 0, .BEHIND. ) ;
#484 = CARTESIAN_POINT ( 'NONE',  ( 50.50000000000002132, -4.000000000000000000, -35.00000000000000000 ) ) ;
#485 = DIRECTION ( 'NONE',  ( -0.000000000000000000, 1.000000000000000000, -0.000000000000000000 ) ) ;
#486 = ORIENTED_EDGE ( 'NONE', *, *, #455, .F. ) ;
#487 = APPROVAL_ROLE ( '' ) ;
#488 = CARTESIAN_POINT ( 'NONE',  ( 45.25000000000002842, -4.000000000000000000, -6.749999999999999112 ) ) ;
#489 = AXIS2_PLACEMENT_3D ( 'NONE', #477, #181, #785 ) ;
#490 = LINE ( 'NONE', #352, #819 ) ;
#491 = ORIENTED_EDGE ( 'NONE', *, *, #82, .T. ) ;
#492 = PERSON_AND_ORGANIZATION ( #404, #506 ) ;
#493 = CARTESIAN_POINT ( 'NONE',  ( 100.0000000000000000, 64.00000000000000000, 0.000000000000000000 ) ) ;
#494 = CARTESIAN_POINT ( 'NONE',  ( 45.25000000000002132, 0.000000000000000000, -10.00000000000000178 ) ) ;
#495 = VECTOR ( 'NONE', #91, 1000.000000000000000 ) ;
#496 = VERTEX_POINT ( 'NONE', #391 ) ;
#497 = EDGE_CURVE ( 'NONE', #496, #308, #14, .T. ) ;
#498 = CARTESIAN_POINT ( 'NONE',  ( 96.00000000000000000, 60.00000000000000000, 18.99999999999998224 ) ) ;
#499 = CYLINDRICAL_SURFACE ( 'NONE', #6, 4.000000000000000000 ) ;
#500 = ORIENTED_EDGE ( 'NONE', *, *, #9, .F. ) ;
#501 = ORIENTED_EDGE ( 'NONE', *, *, #201, .T. ) ;
#502 = PLANE ( 'NONE',  #615 ) ;
#503 = VECTOR ( 'NONE', #818, 1000.000000000000000 ) ;
#504 = ADVANCED_FACE ( 'NONE', ( #891 ), #101, .F. ) ;
#505 = CLOSED_SHELL ( 'NONE', ( #13, #918, #175, #53, #504, #480, #435, #475, #907, #645, #529, #423, #115, #745, #719, #289, #402, #860, #565, #301, #408, #668, #440, #217, #260, #451, #245, #397 ) ) ;
#506 = ORGANIZATION ( 'UNSPECIFIED', 'UNSPECIFIED', '' ) ;
#507 = DIRECTION ( 'NONE',  ( 0.000000000000000000, 0.000000000000000000, 1.000000000000000000 ) ) ;
#508 = ORIENTED_EDGE ( 'NONE', *, *, #784, .F. ) ;
#509 = EDGE_LOOP ( 'NONE', ( #330, #871, #125, #567, #368, #841, #416, #276, #533, #394, #3, #906 ) ) ;
#510 = DIRECTION ( 'NONE',  ( -1.000000000000000000, 0.000000000000000000, -1.982541115402065110E-16 ) ) ;
#511 = EDGE_CURVE ( 'NONE', #744, #388, #544, .T. ) ;
#512 = CARTESIAN_POINT ( 'NONE',  ( 96.00000000000000000, 64.00000000000000000, 50.00000000000000000 ) ) ;
#513 = VERTEX_POINT ( 'NONE', #141 ) ;
#514 = VERTEX_POINT ( 'NONE', #470 ) ;
#515 = VECTOR ( 'NONE', #726, 1000.000000000000000 ) ;
#516 = CARTESIAN_POINT ( 'NONE',  ( 52.50000000000001421, 0.000000000000000000, -35.00000000000000000 ) ) ;
#517 = APPROVAL ( #863, 'UNSPECIFIED' ) ;
#518 = DIRECTION ( 'NONE',  ( 0.000000000000000000, 0.000000000000000000, -1.000000000000000000 ) ) ;
#519 = ORIENTED_EDGE ( 'NONE', *, *, #346, .T. ) ;
#520 = EDGE_LOOP ( 'NONE', ( #142, #478, #845, #77, #421, #500, #652, #486 ) ) ;
#521 = FACE_OUTER_BOUND ( 'NONE', #43, .T. ) ;
#522 = AXIS2_PLACEMENT_3D ( 'NONE', #137, #124, #127 ) ;
#523 = DIRECTION ( 'NONE',  ( 1.000000000000000000, -0.000000000000000000, -0.000000000000000000 ) ) ;
#524 = ORIENTED_EDGE ( 'NONE', *, *, #810, .F. ) ;
#525 = EDGE_CURVE ( 'NONE', #100, #304, #770, .T. ) ;
#526 = DIRECTION ( 'NONE',  ( -0.7071067811865500152, -0.000000000000000000, 0.7071067811865451302 ) ) ;
#527 = CARTESIAN_POINT ( 'NONE',  ( 34.75000000000002132, -4.000000000000000000, -21.75000000000000000 ) ) ;
#528 = EDGE_LOOP ( 'NONE', ( #683, #881, #772, #296 ) ) ;
#529 = ADVANCED_FACE ( 'NONE', ( #20 ), #848, .T. ) ;
#530 = CARTESIAN_POINT ( 'NONE',  ( 96.00000000000000000, 60.00000000000000000, 18.99999999999998224 ) ) ;
#531 = VECTOR ( 'NONE', #551, 1000.000000000000000 ) ;
#532 = FACE_BOUND ( 'NONE', #727, .T. ) ;
#533 = ORIENTED_EDGE ( 'NONE', *, *, #625, .T. ) ;
#534 = CARTESIAN_POINT ( 'NONE',  ( 0.000000000000000000, 64.00000000000000000, 0.000000000000000000 ) ) ;
#535 = AXIS2_PLACEMENT_3D ( 'NONE', #516, #728, #808 ) ;
#536 = LINE ( 'NONE', #978, #650 ) ;
#537 = ORIENTED_EDGE ( 'NONE', *, *, #890, .F. ) ;
#538 = VECTOR ( 'NONE', #92, 1000.000000000000000 ) ;
#539 = CARTESIAN_POINT ( 'NONE',  ( 27.50000000000001066, -4.000000000000000000, -33.00000000000000000 ) ) ;
#540 = CARTESIAN_POINT ( 'NONE',  ( 34.75000000000002132, -4.000000000000000000, -6.749999999999999112 ) ) ;
#541 = EDGE_CURVE ( 'NONE', #388, #182, #444, .T. ) ;
#542 = DIRECTION ( 'NONE',  ( 1.000000000000000000, -0.000000000000000000, -0.000000000000000000 ) ) ;
#543 = VERTEX_POINT ( 'NONE', #30 ) ;
#544 = LINE ( 'NONE', #843, #973 ) ;
#545 = VECTOR ( 'NONE', #321, 1000.000000000000000 ) ;
#546 = CC_DESIGN_DATE_AND_TIME_ASSIGNMENT ( #782, #853, ( #50 ) ) ;
#547 = DIRECTION ( 'NONE',  ( 0.000000000000000000, 1.000000000000000000, 0.000000000000000000 ) ) ;
#548 = ORIENTED_EDGE ( 'NONE', *, *, #816, .F. ) ;
#549 = APPROVAL ( #191, 'UNSPECIFIED' ) ;
#550 = CARTESIAN_POINT ( 'NONE',  ( 0.000000000000000000, 0.000000000000000000, -4.000000000000000000 ) ) ;
#551 = DIRECTION ( 'NONE',  ( 1.982541115402065110E-16, 0.000000000000000000, -1.000000000000000000 ) ) ;
#552 = CARTESIAN_POINT ( 'NONE',  ( 0.000000000000000000, -4.000000000000000000, 50.00000000000000000 ) ) ;
#553 = ORIENTED_EDGE ( 'NONE', *, *, #346, .F. ) ;
#554 = PERSON_AND_ORGANIZATION_ROLE ( 'design_owner' ) ;
#555 = EDGE_CURVE ( 'NONE', #158, #594, #556, .T. ) ;
#556 = LINE ( 'NONE', #560, #136 ) ;
#557 = DIRECTION ( 'NONE',  ( 1.000000000000000000, -0.000000000000000000, 0.000000000000000000 ) ) ;
#558 = ORIENTED_EDGE ( 'NONE', *, *, #631, .T. ) ;
#559 = COORDINATED_UNIVERSAL_TIME_OFFSET ( 5, 0, .BEHIND. ) ;
#560 = CARTESIAN_POINT ( 'NONE',  ( 34.75000000000002132, 0.000000000000000000, -13.25000000000000533 ) ) ;
#561 = CARTESIAN_POINT ( 'NONE',  ( 34.75000000000002132, -4.000000000000000000, -10.00000000000000178 ) ) ;
#562 = VERTEX_POINT ( 'NONE', #183 ) ;
#563 = SECURITY_CLASSIFICATION_LEVEL ( 'unclassified' ) ;
#564 = PLANE ( 'NONE',  #921 ) ;
#565 = ADVANCED_FACE ( 'NONE', ( #247 ), #790, .F. ) ;
#566 = CYLINDRICAL_SURFACE ( 'NONE', #386, 3.250000000000002665 ) ;
#567 = ORIENTED_EDGE ( 'NONE', *, *, #784, .T. ) ;
#568 = PERSON_AND_ORGANIZATION_ROLE ( 'design_supplier' ) ;
#569 = VECTOR ( 'NONE', #442, 1000.000000000000000 ) ;
#570 = LINE ( 'NONE', #868, #257 ) ;
#571 = VECTOR ( 'NONE', #523, 1000.000000000000000 ) ;
#572 = EDGE_CURVE ( 'NONE', #251, #49, #855, .T. ) ;
#573 = CARTESIAN_POINT ( 'NONE',  ( 0.000000000000000000, 0.000000000000000000, 3.999999999999989786 ) ) ;
#574 = VERTEX_POINT ( 'NONE', #428 ) ;
#575 = EDGE_LOOP ( 'NONE', ( #54, #558, #659, #920, #441, #954, #887 ) ) ;
#576 = DIRECTION ( 'NONE',  ( -0.000000000000000000, 1.000000000000000000, -0.000000000000000000 ) ) ;
#577 = DIRECTION ( 'NONE',  ( -1.000000000000000000, -0.000000000000000000, -0.000000000000000000 ) ) ;
#578 =( BOUNDED_CURVE ( )  B_SPLINE_CURVE ( 3, ( #761, #5, #163, #11 ),
 .UNSPECIFIED., .F., .F. ) 
 B_SPLINE_CURVE_WITH_KNOTS ( ( 4, 4 ),
 ( 1.570796326794896780, 3.141592653589793116 ),
 .UNSPECIFIED. ) 
 CURVE ( )  GEOMETRIC_REPRESENTATION_ITEM ( )  RATIONAL_B_SPLINE_CURVE ( ( 1.000000000000000000, 0.8047378541243650485, 0.8047378541243650485, 1.000000000000000000 ) ) 
 REPRESENTATION_ITEM ( '' )  );
#579 = ORIENTED_EDGE ( 'NONE', *, *, #39, .T. ) ;
#580 = VERTEX_POINT ( 'NONE', #798 ) ;
#581 = EDGE_CURVE ( 'NONE', #322, #256, #126, .T. ) ;
#582 = CARTESIAN_POINT ( 'NONE',  ( 34.75000000000002132, -4.000000000000000000, -21.75000000000000000 ) ) ;
#583 = DIRECTION ( 'NONE',  ( -0.000000000000000000, -1.000000000000000000, -0.000000000000000000 ) ) ;
#584 = ORIENTED_EDGE ( 'NONE', *, *, #277, .T. ) ;
#585 = ORIENTED_EDGE ( 'NONE', *, *, #959, .F. ) ;
#586 = EDGE_CURVE ( 'NONE', #18, #722, #424, .T. ) ;
#587 = CARTESIAN_POINT ( 'NONE',  ( 45.25000000000002132, -4.000000000000000000, -13.25000000000000533 ) ) ;
#588 = VECTOR ( 'NONE', #894, 1000.000000000000000 ) ;
#589 = VECTOR ( 'NONE', #153, 1000.000000000000000 ) ;
#590 = CARTESIAN_POINT ( 'NONE',  ( 50.50000000000002132, -4.000000000000000000, -35.00000000000000000 ) ) ;
#591 = EDGE_LOOP ( 'NONE', ( #34, #584, #762, #519, #335, #648 ) ) ;
#592 = CARTESIAN_POINT ( 'NONE',  ( -2.750000000000091038, 0.000000000000000000, -2.750000000000109690 ) ) ;
#593 = FACE_OUTER_BOUND ( 'NONE', #870, .T. ) ;
#594 = VERTEX_POINT ( 'NONE', #725 ) ;
#595 = ORIENTED_EDGE ( 'NONE', *, *, #885, .F. ) ;
#596 = VECTOR ( 'NONE', #623, 1000.000000000000000 ) ;
#597 = PLANE ( 'NONE',  #535 ) ;
#598 = PLANE ( 'NONE',  #892 ) ;
#599 = EDGE_CURVE ( 'NONE', #282, #68, #180, .T. ) ;
#600 = DIRECTION ( 'NONE',  ( -0.000000000000000000, -0.000000000000000000, -1.000000000000000000 ) ) ;
#601 = CARTESIAN_POINT ( 'NONE',  ( 0.000000000000000000, 64.00000000000000000, 0.000000000000000000 ) ) ;
#602 = LOCAL_TIME ( 12, 13, 25.00000000000000000, #559 ) ;
#603 = EDGE_CURVE ( 'NONE', #637, #767, #187, .T. ) ;
#604 = DIRECTION ( 'NONE',  ( 0.000000000000000000, 1.000000000000000000, 0.000000000000000000 ) ) ;
#605 = ORIENTED_EDGE ( 'NONE', *, *, #89, .F. ) ;
#606 = DIRECTION ( 'NONE',  ( -0.000000000000000000, -1.000000000000000000, -0.000000000000000000 ) ) ;
#607 = CARTESIAN_POINT ( 'NONE',  ( 0.000000000000000000, 0.000000000000000000, 0.000000000000000000 ) ) ;
#608 = EDGE_LOOP ( 'NONE', ( #236, #437, #154, #73, #642, #313, #179, #139 ) ) ;
#609 = FACE_OUTER_BOUND ( 'NONE', #608, .T. ) ;
#610 = FACE_BOUND ( 'NONE', #924, .T. ) ;
#611 = VERTEX_POINT ( 'NONE', #264 ) ;
#612 = DIRECTION ( 'NONE',  ( 0.000000000000000000, -1.000000000000000000, 0.000000000000000000 ) ) ;
#613 = EDGE_CURVE ( 'NONE', #580, #806, #407, .T. ) ;
#614 = DIRECTION ( 'NONE',  ( 1.000000000000000000, -0.000000000000000000, 0.000000000000000000 ) ) ;
#615 = AXIS2_PLACEMENT_3D ( 'NONE', #130, #61, #612 ) ;
#616 = LINE ( 'NONE', #824, #538 ) ;
#617 = ORIENTED_EDGE ( 'NONE', *, *, #364, .T. ) ;
#618 = VECTOR ( 'NONE', #670, 1000.000000000000000 ) ;
#619 =( LENGTH_UNIT ( ) NAMED_UNIT ( * ) SI_UNIT ( .MILLI., .METRE. ) );
#620 = DIRECTION ( 'NONE',  ( 0.000000000000000000, 1.000000000000000000, 0.000000000000000000 ) ) ;
#621 = CARTESIAN_POINT ( 'NONE',  ( 34.75000000000002132, 0.000000000000000000, -28.25000000000000355 ) ) ;
#622 = ORIENTED_EDGE ( 'NONE', *, *, #26, .T. ) ;
#623 = DIRECTION ( 'NONE',  ( -0.000000000000000000, -0.000000000000000000, -1.000000000000000000 ) ) ;
#624 = VECTOR ( 'NONE', #708, 1000.000000000000000 ) ;
#625 = EDGE_CURVE ( 'NONE', #164, #722, #110, .T. ) ;
#626 = CARTESIAN_POINT ( 'NONE',  ( 45.25000000000002132, 0.000000000000000000, -25.00000000000000000 ) ) ;
#627 = ORIENTED_EDGE ( 'NONE', *, *, #977, .F. ) ;
#628 = DIRECTION ( 'NONE',  ( 0.000000000000000000, 1.000000000000000000, 0.000000000000000000 ) ) ;
#629 = DIRECTION ( 'NONE',  ( -0.000000000000000000, 1.000000000000000000, -0.000000000000000000 ) ) ;
#630 = ORIENTED_EDGE ( 'NONE', *, *, #150, .F. ) ;
#631 = EDGE_CURVE ( 'NONE', #49, #457, #635, .T. ) ;
#632 = VECTOR ( 'NONE', #709, 1000.000000000000000 ) ;
#633 = DATE_TIME_ROLE ( 'creation_date' ) ;
#634 = CC_DESIGN_APPROVAL ( #474, ( #729 ) ) ;
#635 = LINE ( 'NONE', #413, #336 ) ;
#636 = CARTESIAN_POINT ( 'NONE',  ( 62.49999999999994316, 64.00000000000000000, 0.000000000000000000 ) ) ;
#637 = VERTEX_POINT ( 'NONE', #493 ) ;
#638 = APPROVAL_ROLE ( '' ) ;
#639 = CARTESIAN_POINT ( 'NONE',  ( 96.00000000000000000, 64.00000000000000000, 3.999999999999982681 ) ) ;
#640 = AXIS2_PLACEMENT_3D ( 'NONE', #832, #699, #229 ) ;
#641 = DIRECTION ( 'NONE',  ( -0.000000000000000000, 1.000000000000000000, -0.000000000000000000 ) ) ;
#642 = ORIENTED_EDGE ( 'NONE', *, *, #603, .F. ) ;
#643 = PERSON_AND_ORGANIZATION ( #404, #506 ) ;
#644 = LINE ( 'NONE', #943, #624 ) ;
#645 = ADVANCED_FACE ( 'NONE', ( #479, #196, #715 ), #107, .F. ) ;
#646 = DIRECTION ( 'NONE',  ( -0.000000000000000000, 1.000000000000000000, -0.000000000000000000 ) ) ;
#647 = ORIENTED_EDGE ( 'NONE', *, *, #201, .F. ) ;
#648 = ORIENTED_EDGE ( 'NONE', *, *, #740, .F. ) ;
#649 = DIRECTION ( 'NONE',  ( -0.000000000000000000, 1.000000000000000000, -0.000000000000000000 ) ) ;
#650 = VECTOR ( 'NONE', #835, 1000.000000000000000 ) ;
#651 = CARTESIAN_POINT ( 'NONE',  ( 45.25000000000002842, 0.000000000000000000, -21.74999999999992184 ) ) ;
#652 = ORIENTED_EDGE ( 'NONE', *, *, #769, .T. ) ;
#653 = CARTESIAN_POINT ( 'NONE',  ( 17.49999999999994316, -4.000000000000000000, 0.000000000000000000 ) ) ;
#654 = CARTESIAN_POINT ( 'NONE',  ( 34.75000000000002132, 0.000000000000000000, -10.00000000000000178 ) ) ;
#655 = PRODUCT_DEFINITION ( 'UNKNOWN', '', #729, #874 ) ;
#656 = ORIENTED_EDGE ( 'NONE', *, *, #913, .F. ) ;
#657 = CARTESIAN_POINT ( 'NONE',  ( 96.00000000000000000, 64.00000000000000000, 3.999999999999982681 ) ) ;
#658 = CARTESIAN_POINT ( 'NONE',  ( 0.000000000000000000, 60.00000000000000000, 0.000000000000000000 ) ) ;
#659 = ORIENTED_EDGE ( 'NONE', *, *, #839, .T. ) ;
#660 = ORIENTED_EDGE ( 'NONE', *, *, #599, .F. ) ;
#661 = DIRECTION ( 'NONE',  ( -0.000000000000000000, 1.000000000000000000, -0.000000000000000000 ) ) ;
#662 = VECTOR ( 'NONE', #692, 1000.000000000000000 ) ;
#663 = VECTOR ( 'NONE', #629, 1000.000000000000000 ) ;
#664 = CARTESIAN_POINT ( 'NONE',  ( 0.000000000000000000, 4.000000000000003553, -4.000000000000000000 ) ) ;
#665 = ORIENTED_EDGE ( 'NONE', *, *, #700, .F. ) ;
#666 = ORIENTED_EDGE ( 'NONE', *, *, #189, .T. ) ;
#667 = CARTESIAN_POINT ( 'NONE',  ( 34.75000000000002132, -3.061616997868386099E-17, -28.25000000000000355 ) ) ;
#668 = ADVANCED_FACE ( 'NONE', ( #259 ), #564, .F. ) ;
#669 = FACE_OUTER_BOUND ( 'NONE', #781, .T. ) ;
#670 = DIRECTION ( 'NONE',  ( -1.000000000000000000, 0.000000000000000000, 0.000000000000000000 ) ) ;
#671 = VERTEX_POINT ( 'NONE', #343 ) ;
#672 = VECTOR ( 'NONE', #464, 1000.000000000000000 ) ;
#673 = FACE_OUTER_BOUND ( 'NONE', #174, .T. ) ;
#674 = EDGE_CURVE ( 'NONE', #936, #251, #644, .T. ) ;
#675 = CARTESIAN_POINT ( 'NONE',  ( 0.000000000000000000, 0.000000000000000000, 50.00000000000000000 ) ) ;
#676 = VERTEX_POINT ( 'NONE', #488 ) ;
#677 = DIRECTION ( 'NONE',  ( -0.000000000000000000, 1.000000000000000000, -0.000000000000000000 ) ) ;
#678 =( BOUNDED_CURVE ( )  B_SPLINE_CURVE ( 3, ( #184, #167, #777, #409 ),
 .UNSPECIFIED., .F., .T. ) 
 B_SPLINE_CURVE_WITH_KNOTS ( ( 4, 4 ),
 ( 0.000000000000000000, 1.570796326794896114 ),
 .UNSPECIFIED. ) 
 CURVE ( )  GEOMETRIC_REPRESENTATION_ITEM ( )  RATIONAL_B_SPLINE_CURVE ( ( 1.000000000000000000, 0.8047378541243650485, 0.8047378541243650485, 1.000000000000000000 ) ) 
 REPRESENTATION_ITEM ( '' )  );
#679 = VECTOR ( 'NONE', #434, 1000.000000000000000 ) ;
#680 =( GEOMETRIC_REPRESENTATION_CONTEXT ( 3 ) GLOBAL_UNCERTAINTY_ASSIGNED_CONTEXT ( ( #425 ) ) GLOBAL_UNIT_ASSIGNED_CONTEXT ( ( #619, #831, #237 ) ) REPRESENTATION_CONTEXT ( 'NONE', 'WORKASPACE' ) );
#681 = EDGE_CURVE ( 'NONE', #432, #292, #570, .T. ) ;
#682 = DIRECTION ( 'NONE',  ( -0.000000000000000000, -1.000000000000000000, -0.000000000000000000 ) ) ;
#683 = ORIENTED_EDGE ( 'NONE', *, *, #686, .F. ) ;
#684 = DIRECTION ( 'NONE',  ( 0.000000000000000000, 0.000000000000000000, 1.000000000000000000 ) ) ;
#685 = EDGE_LOOP ( 'NONE', ( #405, #410, #969, #55 ) ) ;
#686 = EDGE_CURVE ( 'NONE', #676, #710, #197, .T. ) ;
#687 = LINE ( 'NONE', #302, #927 ) ;
#688 = VECTOR ( 'NONE', #40, 1000.000000000000000 ) ;
#689 = CARTESIAN_POINT ( 'NONE',  ( 96.00000000000000000, 64.00000000000000000, 50.00000000000000000 ) ) ;
#690 = LINE ( 'NONE', #901, #965 ) ;
#691 = ORIENTED_EDGE ( 'NONE', *, *, #951, .T. ) ;
#692 = DIRECTION ( 'NONE',  ( -0.000000000000000000, 1.000000000000000000, -0.000000000000000000 ) ) ;
#693 = LINE ( 'NONE', #86, #596 ) ;
#694 = AXIS2_PLACEMENT_3D ( 'NONE', #314, #395, #759 ) ;
#695 = CARTESIAN_POINT ( 'NONE',  ( 34.75000000000002132, 0.000000000000000000, -13.25000000000000533 ) ) ;
#696 = ORIENTED_EDGE ( 'NONE', *, *, #253, .T. ) ;
#697 = VECTOR ( 'NONE', #542, 1000.000000000000000 ) ;
#698 = LINE ( 'NONE', #539, #412 ) ;
#699 = DIRECTION ( 'NONE',  ( -0.000000000000000000, 0.000000000000000000, -1.000000000000000000 ) ) ;
#700 = EDGE_CURVE ( 'NONE', #836, #744, #64, .T. ) ;
#701 = CARTESIAN_POINT ( 'NONE',  ( 45.25000000000002132, -4.000000000000000000, -21.75000000000000000 ) ) ;
#702 = EDGE_LOOP ( 'NONE', ( #792, #144, #723, #962 ) ) ;
#703 = DIRECTION ( 'NONE',  ( 1.000000000000000000, 0.000000000000000000, 0.000000000000000000 ) ) ;
#704 = LINE ( 'NONE', #401, #672 ) ;
#705 = DIRECTION ( 'NONE',  ( 0.000000000000000000, 0.000000000000000000, 1.000000000000000000 ) ) ;
#706 = ORIENTED_EDGE ( 'NONE', *, *, #828, .F. ) ;
#707 = CALENDAR_DATE ( 2026, 6, 7 ) ;
#708 = DIRECTION ( 'NONE',  ( 0.7071067811865479058, 0.000000000000000000, 0.7071067811865472397 ) ) ;
#709 = DIRECTION ( 'NONE',  ( -0.7071067811865520136, 0.000000000000000000, 0.7071067811865431318 ) ) ;
#710 = VERTEX_POINT ( 'NONE', #587 ) ;
#711 = VECTOR ( 'NONE', #746, 1000.000000000000000 ) ;
#712 = EDGE_CURVE ( 'NONE', #953, #268, #97, .T. ) ;
#713 = VECTOR ( 'NONE', #547, 1000.000000000000000 ) ;
#714 = PERSON_AND_ORGANIZATION ( #404, #506 ) ;
#715 = FACE_OUTER_BOUND ( 'NONE', #509, .T. ) ;
#716 = CARTESIAN_POINT ( 'NONE',  ( 27.50000000000001066, 0.000000000000000000, -33.00000000000000000 ) ) ;
#717 = VERTEX_POINT ( 'NONE', #889 ) ;
#718 = APPROVAL_DATE_TIME ( #116, #517 ) ;
#719 = ADVANCED_FACE ( 'NONE', ( #521 ), #211, .T. ) ;
#720 = DIRECTION ( 'NONE',  ( -1.000000000000000000, -0.000000000000000000, -0.000000000000000000 ) ) ;
#721 = CARTESIAN_POINT ( 'NONE',  ( 29.50000000000002487, 0.000000000000000000, -35.00000000000000000 ) ) ;
#722 = VERTEX_POINT ( 'NONE', #653 ) ;
#723 = ORIENTED_EDGE ( 'NONE', *, *, #460, .T. ) ;
#724 = PERSON_AND_ORGANIZATION ( #404, #506 ) ;
#725 = CARTESIAN_POINT ( 'NONE',  ( 34.75000000000002132, -4.000000000000000000, -13.25000000000000533 ) ) ;
#726 = DIRECTION ( 'NONE',  ( -0.000000000000000000, -0.000000000000000000, 1.000000000000000000 ) ) ;
#727 = EDGE_LOOP ( 'NONE', ( #206, #736, #786, #482 ) ) ;
#728 = DIRECTION ( 'NONE',  ( -0.000000000000000000, 0.000000000000000000, -1.000000000000000000 ) ) ;
#729 = PRODUCT_DEFINITION_FORMATION_WITH_SPECIFIED_SOURCE ( 'ANY', '', #344, .NOT_KNOWN. ) ;
#730 = EDGE_CURVE ( 'NONE', #574, #671, #971, .T. ) ;
#731 = CARTESIAN_POINT ( 'NONE',  ( 17.49999999999994316, 64.00000000000000000, 0.000000000000000000 ) ) ;
#732 = ORIENTED_EDGE ( 'NONE', *, *, #277, .F. ) ;
#733 = CARTESIAN_POINT ( 'NONE',  ( 58.49999999999998579, 0.000000000000000000, -3.999999999999999112 ) ) ;
#734 = CARTESIAN_POINT ( 'NONE',  ( 52.50000000000001421, -4.000000000000000000, -35.00000000000000000 ) ) ;
#735 = EDGE_LOOP ( 'NONE', ( #975, #109, #341, #897 ) ) ;
#736 = ORIENTED_EDGE ( 'NONE', *, *, #951, .F. ) ;
#737 = DIRECTION ( 'NONE',  ( 0.000000000000000000, 0.000000000000000000, 1.000000000000000000 ) ) ;
#738 = DIRECTION ( 'NONE',  ( -0.000000000000000000, -1.000000000000000000, -0.000000000000000000 ) ) ;
#739 = ORIENTED_EDGE ( 'NONE', *, *, #555, .F. ) ;
#740 = EDGE_CURVE ( 'NONE', #214, #7, #56, .T. ) ;
#741 = DIRECTION ( 'NONE',  ( -0.000000000000000000, -1.000000000000000000, -0.000000000000000000 ) ) ;
#742 = CARTESIAN_POINT ( 'NONE',  ( 45.25000000000002132, 0.000000000000000000, -21.75000000000000000 ) ) ;
#743 = LINE ( 'NONE', #915, #16 ) ;
#744 = VERTEX_POINT ( 'NONE', #369 ) ;
#745 = ADVANCED_FACE ( 'NONE', ( #208 ), #597, .T. ) ;
#746 = DIRECTION ( 'NONE',  ( -0.000000000000000000, 1.000000000000000000, -0.000000000000000000 ) ) ;
#747 = CARTESIAN_POINT ( 'NONE',  ( 96.00000000000000000, 0.000000000000000000, 3.999999999999982681 ) ) ;
#748 = VERTEX_POINT ( 'NONE', #293 ) ;
#749 = VECTOR ( 'NONE', #869, 1000.000000000000000 ) ;
#750 = CARTESIAN_POINT ( 'NONE',  ( 34.75000000000002132, -4.000000000000000000, -6.749999999999999112 ) ) ;
#751 = CARTESIAN_POINT ( 'NONE',  ( 27.50000000000001066, -4.000000000000000000, -33.00000000000000000 ) ) ;
#752 = ORIENTED_EDGE ( 'NONE', *, *, #700, .T. ) ;
#753 = DIRECTION ( 'NONE',  ( 0.7071067811865500152, -0.000000000000000000, -0.7071067811865451302 ) ) ;
#754 = CIRCLE ( 'NONE', #111, 3.250000000000002665 ) ;
#755 = EDGE_CURVE ( 'NONE', #543, #285, #814, .T. ) ;
#756 = LOCAL_TIME ( 12, 13, 25.00000000000000000, #417 ) ;
#757 = DIRECTION ( 'NONE',  ( 1.000000000000000000, -0.000000000000000000, -0.000000000000000000 ) ) ;
#758 = ORIENTED_EDGE ( 'NONE', *, *, #686, .T. ) ;
#759 = DIRECTION ( 'NONE',  ( 0.000000000000000000, -0.000000000000000000, 1.000000000000000000 ) ) ;
#760 = CARTESIAN_POINT ( 'NONE',  ( 100.0000000000000000, 64.00000000000000000, 50.00000000000000000 ) ) ;
#761 = CARTESIAN_POINT ( 'NONE',  ( 58.49999999999998579, 0.000000000000000000, -3.999999999999999112 ) ) ;
#762 = ORIENTED_EDGE ( 'NONE', *, *, #613, .F. ) ;
#763 = LINE ( 'NONE', #768, #981 ) ;
#764 = VECTOR ( 'NONE', #254, 1000.000000000000000 ) ;
#765 = CARTESIAN_POINT ( 'NONE',  ( 96.00000000000000000, 64.00000000000000000, 50.00000000000000000 ) ) ;
#766 = CARTESIAN_POINT ( 'NONE',  ( 0.000000000000000000, -4.000000000000000000, 0.000000000000000000 ) ) ;
#767 = VERTEX_POINT ( 'NONE', #601 ) ;
#768 = CARTESIAN_POINT ( 'NONE',  ( 96.00000000000000000, 0.000000000000000000, 3.999999999999982681 ) ) ;
#769 = EDGE_CURVE ( 'NONE', #513, #282, #433, .T. ) ;
#770 = LINE ( 'NONE', #398, #168 ) ;
#771 = PLANE ( 'NONE',  #834 ) ;
#772 = ORIENTED_EDGE ( 'NONE', *, *, #712, .T. ) ;
#773 = VECTOR ( 'NONE', #577, 1000.000000000000000 ) ;
#774 = COORDINATED_UNIVERSAL_TIME_OFFSET ( 5, 0, .BEHIND. ) ;
#775 = EDGE_CURVE ( 'NONE', #767, #580, #351, .T. ) ;
#776 = LINE ( 'NONE', #161, #495 ) ;
#777 = CARTESIAN_POINT ( 'NONE',  ( 19.15685424949234417, 4.653488994024818820E-15, -1.656854249492379472 ) ) ;
#778 = ORIENTED_EDGE ( 'NONE', *, *, #572, .T. ) ;
#779 = DIRECTION ( 'NONE',  ( 0.000000000000000000, -0.000000000000000000, 1.000000000000000000 ) ) ;
#780 = LINE ( 'NONE', #415, #266 ) ;
#781 = EDGE_LOOP ( 'NONE', ( #42, #427, #585, #537 ) ) ;
#782 = DATE_AND_TIME ( #858, #602 ) ;
#783 = CARTESIAN_POINT ( 'NONE',  ( 27.50000000000001066, 0.000000000000000000, -33.00000000000000000 ) ) ;
#784 = EDGE_CURVE ( 'NONE', #562, #948, #140, .T. ) ;
#785 = DIRECTION ( 'NONE',  ( 0.000000000000000000, 0.000000000000000000, 1.000000000000000000 ) ) ;
#786 = ORIENTED_EDGE ( 'NONE', *, *, #294, .F. ) ;
#787 = VECTOR ( 'NONE', #879, 1000.000000000000000 ) ;
#788 = CALENDAR_DATE ( 2026, 6, 7 ) ;
#789 = MANIFOLD_SOLID_BREP ( 'Fillet1', #505 ) ;
#790 = PLANE ( 'NONE',  #240 ) ;
#791 = CARTESIAN_POINT ( 'NONE',  ( 81.00000000000000000, 64.00000000000000000, 3.999999999999998224 ) ) ;
#792 = ORIENTED_EDGE ( 'NONE', *, *, #102, .F. ) ;
#793 = CALENDAR_DATE ( 2026, 6, 7 ) ;
#794 = DIRECTION ( 'NONE',  ( -0.000000000000000000, 1.000000000000000000, -0.000000000000000000 ) ) ;
#795 = VECTOR ( 'NONE', #326, 1000.000000000000000 ) ;
#796 = DIRECTION ( 'NONE',  ( -0.7071067811865510144, 0.000000000000000000, 0.7071067811865441310 ) ) ;
#797 = ORIENTED_EDGE ( 'NONE', *, *, #681, .F. ) ;
#798 = CARTESIAN_POINT ( 'NONE',  ( 0.000000000000000000, 64.00000000000000000, 3.999999999999996447 ) ) ;
#799 = DIRECTION ( 'NONE',  ( -0.000000000000000000, -1.000000000000000000, -0.000000000000000000 ) ) ;
#800 = EDGE_LOOP ( 'NONE', ( #821, #60, #431, #207, #617, #812 ) ) ;
#801 = VERTEX_POINT ( 'NONE', #733 ) ;
#802 = VECTOR ( 'NONE', #600, 1000.000000000000000 ) ;
#803 = CARTESIAN_POINT ( 'NONE',  ( 34.75000000000002132, -4.000000000000000000, -25.00000000000000000 ) ) ;
#804 = CC_DESIGN_PERSON_AND_ORGANIZATION_ASSIGNMENT ( #105, #554, ( #344 ) ) ;
#805 = FACE_OUTER_BOUND ( 'NONE', #340, .T. ) ;
#806 = VERTEX_POINT ( 'NONE', #65 ) ;
#807 = VERTEX_POINT ( 'NONE', #278 ) ;
#808 = DIRECTION ( 'NONE',  ( -1.000000000000000000, 0.000000000000000000, 0.000000000000000000 ) ) ;
#809 = DIRECTION ( 'NONE',  ( 0.000000000000000000, 1.000000000000000000, 0.000000000000000000 ) ) ;
#810 = EDGE_CURVE ( 'NONE', #388, #138, #754, .T. ) ;
#811 = AXIS2_PLACEMENT_3D ( 'NONE', #689, #614, #912 ) ;
#812 = ORIENTED_EDGE ( 'NONE', *, *, #332, .F. ) ;
#813 = ORIENTED_EDGE ( 'NONE', *, *, #681, .T. ) ;
#814 = LINE ( 'NONE', #283, #588 ) ;
#815 = DIRECTION ( 'NONE',  ( 0.000000000000000000, -0.000000000000000000, -1.000000000000000000 ) ) ;
#816 = EDGE_CURVE ( 'NONE', #801, #717, #967, .T. ) ;
#817 = EDGE_LOOP ( 'NONE', ( #696, #357, #48, #63 ) ) ;
#818 = DIRECTION ( 'NONE',  ( -0.7071067811865441310, 0.000000000000000000, -0.7071067811865510144 ) ) ;
#819 = VECTOR ( 'NONE', #267, 1000.000000000000000 ) ;
#820 = CARTESIAN_POINT ( 'NONE',  ( 100.0000000000000000, -4.000000000000000000, 0.000000000000000000 ) ) ;
#821 = ORIENTED_EDGE ( 'NONE', *, *, #631, .F. ) ;
#822 = DIRECTION ( 'NONE',  ( -0.7071067811865451302, 0.000000000000000000, -0.7071067811865500152 ) ) ;
#823 = CC_DESIGN_PERSON_AND_ORGANIZATION_ASSIGNMENT ( #724, #932, ( #50 ) ) ;
#824 = CARTESIAN_POINT ( 'NONE',  ( 45.25000000000002132, 0.000000000000000000, -6.749999999999999112 ) ) ;
#825 = ORIENTED_EDGE ( 'NONE', *, *, #828, .T. ) ;
#826 = VECTOR ( 'NONE', #66, 1000.000000000000000 ) ;
#827 = PLANE ( 'NONE',  #694 ) ;
#828 = EDGE_CURVE ( 'NONE', #59, #182, #135, .T. ) ;
#829 = LINE ( 'NONE', #461, #802 ) ;
#830 = ORIENTED_EDGE ( 'NONE', *, *, #674, .T. ) ;
#831 =( NAMED_UNIT ( * ) PLANE_ANGLE_UNIT ( ) SI_UNIT ( $, .RADIAN. ) );
#832 = CARTESIAN_POINT ( 'NONE',  ( 34.75000000000002132, 0.000000000000000000, -28.25000000000000355 ) ) ;
#833 = AXIS2_PLACEMENT_3D ( 'NONE', #305, #677, #85 ) ;
#834 = AXIS2_PLACEMENT_3D ( 'NONE', #919, #557, #103 ) ;
#835 = DIRECTION ( 'NONE',  ( -1.982541115402065110E-16, -0.000000000000000000, 1.000000000000000000 ) ) ;
#836 = VERTEX_POINT ( 'NONE', #667 ) ;
#837 = LINE ( 'NONE', #298, #963 ) ;
#838 = CARTESIAN_POINT ( 'NONE',  ( 27.50000000000000355, 0.000000000000000000, -2.406712924003484753E-15 ) ) ;
#839 = EDGE_CURVE ( 'NONE', #457, #964, #69, .T. ) ;
#840 = PLANE ( 'NONE',  #914 ) ;
#841 = ORIENTED_EDGE ( 'NONE', *, *, #525, .T. ) ;
#842 = CARTESIAN_POINT ( 'NONE',  ( 50.50000000000002132, 0.000000000000000000, -35.00000000000000000 ) ) ;
#843 = CARTESIAN_POINT ( 'NONE',  ( 34.75000000000002842, 0.000000000000000000, -21.74999999999992184 ) ) ;
#844 = LINE ( 'NONE', #255, #632 ) ;
#845 = ORIENTED_EDGE ( 'NONE', *, *, #816, .T. ) ;
#846 = EDGE_CURVE ( 'NONE', #543, #59, #899, .T. ) ;
#847 = LINE ( 'NONE', #550, #143 ) ;
#848 = PLANE ( 'NONE',  #288 ) ;
#849 = LINE ( 'NONE', #399, #327 ) ;
#850 = ORIENTED_EDGE ( 'NONE', *, *, #228, .F. ) ;
#851 = APPROVAL_PERSON_ORGANIZATION ( #643, #517, #487 ) ;
#852 = CC_DESIGN_PERSON_AND_ORGANIZATION_ASSIGNMENT ( #422, #568, ( #729 ) ) ;
#853 = DATE_TIME_ROLE ( 'classification_date' ) ;
#854 = EDGE_CURVE ( 'NONE', #285, #138, #976, .T. ) ;
#855 = LINE ( 'NONE', #498, #764 ) ;
#856 = LINE ( 'NONE', #621, #361 ) ;
#857 = ORIENTED_EDGE ( 'NONE', *, *, #45, .F. ) ;
#858 = CALENDAR_DATE ( 2026, 6, 7 ) ;
#859 = DIRECTION ( 'NONE',  ( 0.000000000000000000, -1.000000000000000000, 0.000000000000000000 ) ) ;
#860 = ADVANCED_FACE ( 'NONE', ( #673 ), #502, .F. ) ;
#861 = DIRECTION ( 'NONE',  ( 0.000000000000000000, 0.000000000000000000, 1.000000000000000000 ) ) ;
#862 = EDGE_LOOP ( 'NONE', ( #752, #22, #453, #850 ) ) ;
#863 = APPROVAL_STATUS ( 'not_yet_approved' ) ;
#864 = DIRECTION ( 'NONE',  ( -0.000000000000000000, 0.000000000000000000, -1.000000000000000000 ) ) ;
#865 = LINE ( 'NONE', #791, #679 ) ;
#866 = AXIS2_PLACEMENT_3D ( 'NONE', #494, #646, #957 ) ;
#867 = DIRECTION ( 'NONE',  ( 0.000000000000000000, 0.000000000000000000, 1.000000000000000000 ) ) ;
#868 = CARTESIAN_POINT ( 'NONE',  ( 34.75000000000002132, 0.000000000000000000, -6.749999999999999112 ) ) ;
#869 = DIRECTION ( 'NONE',  ( 0.000000000000000000, 1.000000000000000000, 0.000000000000000000 ) ) ;
#870 = EDGE_LOOP ( 'NONE', ( #467, #491, #647, #876, #128, #378 ) ) ;
#871 = ORIENTED_EDGE ( 'NONE', *, *, #581, .T. ) ;
#872 = CARTESIAN_POINT ( 'NONE',  ( 0.000000000000000000, 64.00000000000000000, 0.000000000000000000 ) ) ;
#873 = AXIS2_PLACEMENT_3D ( 'NONE', #122, #649, #950 ) ;
#874 = DESIGN_CONTEXT ( 'detailed design', #95, 'design' ) ;
#875 = LINE ( 'NONE', #721, #749 ) ;
#876 = ORIENTED_EDGE ( 'NONE', *, *, #316, .F. ) ;
#877 = ORIENTED_EDGE ( 'NONE', *, *, #769, .F. ) ;
#878 = EDGE_CURVE ( 'NONE', #251, #214, #79, .T. ) ;
#879 = DIRECTION ( 'NONE',  ( 1.000000000000000000, -0.000000000000000000, -0.000000000000000000 ) ) ;
#880 = FACE_OUTER_BOUND ( 'NONE', #28, .T. ) ;
#881 = ORIENTED_EDGE ( 'NONE', *, *, #131, .F. ) ;
#882 = VECTOR ( 'NONE', #741, 1000.000000000000000 ) ;
#883 = ORIENTED_EDGE ( 'NONE', *, *, #586, .F. ) ;
#884 = CARTESIAN_POINT ( 'NONE',  ( 42.75000000000018474, 0.000000000000000000, -42.74999999999989342 ) ) ;
#885 = EDGE_CURVE ( 'NONE', #671, #322, #90, .T. ) ;
#886 = CARTESIAN_POINT ( 'NONE',  ( 52.50000000000000711, 0.000000000000000000, -10.00000000000003730 ) ) ;
#887 = ORIENTED_EDGE ( 'NONE', *, *, #613, .T. ) ;
#888 = ORIENTED_EDGE ( 'NONE', *, *, #26, .F. ) ;
#889 = CARTESIAN_POINT ( 'NONE',  ( 52.50000000000000711, 0.000000000000000000, -10.00000000000003553 ) ) ;
#890 = EDGE_CURVE ( 'NONE', #964, #637, #687, .T. ) ;
#891 = FACE_OUTER_BOUND ( 'NONE', #800, .T. ) ;
#892 = AXIS2_PLACEMENT_3D ( 'NONE', #895, #310, #96 ) ;
#893 = ORIENTED_EDGE ( 'NONE', *, *, #755, .T. ) ;
#894 = DIRECTION ( 'NONE',  ( 1.000000000000000000, -0.000000000000000000, -0.000000000000000000 ) ) ;
#895 = CARTESIAN_POINT ( 'NONE',  ( 34.75000000000002132, 0.000000000000000000, -6.749999999999999112 ) ) ;
#896 = PLANE ( 'NONE',  #32 ) ;
#897 = ORIENTED_EDGE ( 'NONE', *, *, #390, .T. ) ;
#898 = CARTESIAN_POINT ( 'NONE',  ( 31.25000000000027711, -4.000000000000000000, -31.24999999999997513 ) ) ;
#899 = CIRCLE ( 'NONE', #325, 3.250000000000002665 ) ;
#900 = CC_DESIGN_APPROVAL ( #549, ( #655 ) ) ;
#901 = CARTESIAN_POINT ( 'NONE',  ( 52.50000000000001421, 0.000000000000000000, -33.00000000000000000 ) ) ;
#902 = EDGE_LOOP ( 'NONE', ( #353, #797, #134, #739 ) ) ;
#903 = EDGE_CURVE ( 'NONE', #514, #801, #847, .T. ) ;
#904 = PLANE ( 'NONE',  #265 ) ;
#905 = FACE_OUTER_BOUND ( 'NONE', #520, .T. ) ;
#906 = ORIENTED_EDGE ( 'NONE', *, *, #944, .T. ) ;
#907 = ADVANCED_FACE ( 'NONE', ( #450 ), #827, .T. ) ;
#908 = DIRECTION ( 'NONE',  ( -1.000000000000000000, 0.000000000000000000, 1.040834085586084257E-15 ) ) ;
#909 = DIRECTION ( 'NONE',  ( 0.000000000000000000, 1.000000000000000000, 0.000000000000000000 ) ) ;
#910 = EDGE_LOOP ( 'NONE', ( #262, #656, #813, #691 ) ) ;
#911 = LINE ( 'NONE', #980, #662 ) ;
#912 = DIRECTION ( 'NONE',  ( 0.000000000000000000, 0.000000000000000000, -1.000000000000000000 ) ) ;
#913 = EDGE_CURVE ( 'NONE', #432, #676, #8, .T. ) ;
#914 = AXIS2_PLACEMENT_3D ( 'NONE', #886, #796, #946 ) ;
#915 = CARTESIAN_POINT ( 'NONE',  ( 52.50000000000000711, 0.000000000000000000, -10.00000000000003553 ) ) ;
#916 = EDGE_LOOP ( 'NONE', ( #548, #133, #630, #508, #857 ) ) ;
#917 = FACE_OUTER_BOUND ( 'NONE', #910, .T. ) ;
#918 = ADVANCED_FACE ( 'NONE', ( #609 ), #904, .F. ) ;
#919 = CARTESIAN_POINT ( 'NONE',  ( 0.000000000000000000, 64.00000000000000000, 3.999999999999996447 ) ) ;
#920 = ORIENTED_EDGE ( 'NONE', *, *, #890, .T. ) ;
#921 = AXIS2_PLACEMENT_3D ( 'NONE', #44, #864, #926 ) ;
#922 = PLANE ( 'NONE',  #152 ) ;
#923 = FACE_OUTER_BOUND ( 'NONE', #119, .T. ) ;
#924 = EDGE_LOOP ( 'NONE', ( #665, #244, #524, #373 ) ) ;
#925 = EDGE_CURVE ( 'NONE', #182, #285, #31, .T. ) ;
#926 = DIRECTION ( 'NONE',  ( -1.000000000000000000, 0.000000000000000000, 0.000000000000000000 ) ) ;
#927 = VECTOR ( 'NONE', #19, 1000.000000000000000 ) ;
#928 = AXIS2_PLACEMENT_3D ( 'NONE', #561, #641, #239 ) ;
#929 = PLANE ( 'NONE',  #205 ) ;
#930 = ORIENTED_EDGE ( 'NONE', *, *, #730, .F. ) ;
#931 = LOCAL_TIME ( 12, 13, 25.00000000000000000, #342 ) ;
#932 = PERSON_AND_ORGANIZATION_ROLE ( 'classification_officer' ) ;
#933 = EDGE_CURVE ( 'NONE', #59, #744, #911, .T. ) ;
#934 = DIRECTION ( 'NONE',  ( -0.000000000000000000, -0.000000000000000000, 1.000000000000000000 ) ) ;
#935 = FACE_OUTER_BOUND ( 'NONE', #862, .T. ) ;
#936 = VERTEX_POINT ( 'NONE', #233 ) ;
#937 = CALENDAR_DATE ( 2026, 6, 7 ) ;
#938 = CC_DESIGN_PERSON_AND_ORGANIZATION_ASSIGNMENT ( #714, #35, ( #655 ) ) ;
#939 = DIRECTION ( 'NONE',  ( 0.7071067811865451302, -0.000000000000000000, 0.7071067811865500152 ) ) ;
#940 = AXIS2_PLACEMENT_3D ( 'NONE', #213, #366, #10 ) ;
#941 = FACE_OUTER_BOUND ( 'NONE', #916, .T. ) ;
#942 = EDGE_LOOP ( 'NONE', ( #877, #383, #400, #660 ) ) ;
#943 = CARTESIAN_POINT ( 'NONE',  ( 81.00000000000000000, 60.00000000000000000, 3.999999999999998224 ) ) ;
#944 = EDGE_CURVE ( 'NONE', #68, #275, #698, .T. ) ;
#945 = PRODUCT_DEFINITION_SHAPE ( 'NONE', 'NONE',  #655 ) ;
#946 = DIRECTION ( 'NONE',  ( 0.000000000000000000, -1.000000000000000000, 0.000000000000000000 ) ) ;
#947 = ORIENTED_EDGE ( 'NONE', *, *, #810, .T. ) ;
#948 = VERTEX_POINT ( 'NONE', #74 ) ;
#949 = VECTOR ( 'NONE', #799, 1000.000000000000000 ) ;
#950 = DIRECTION ( 'NONE',  ( 0.000000000000000000, 0.000000000000000000, 1.000000000000000000 ) ) ;
#951 = EDGE_CURVE ( 'NONE', #292, #953, #837, .T. ) ;
#952 = DIRECTION ( 'NONE',  ( -1.000000000000000000, 0.000000000000000000, 0.000000000000000000 ) ) ;
#953 = VERTEX_POINT ( 'NONE', #165 ) ;
#954 = ORIENTED_EDGE ( 'NONE', *, *, #775, .T. ) ;
#955 = DIRECTION ( 'NONE',  ( -0.000000000000000000, 1.000000000000000000, -0.000000000000000000 ) ) ;
#956 = AXIS2_PLACEMENT_3D ( 'NONE', #658, #809, #968 ) ;
#957 = DIRECTION ( 'NONE',  ( 0.000000000000000000, 0.000000000000000000, 1.000000000000000000 ) ) ;
#958 = ORIENTED_EDGE ( 'NONE', *, *, #228, .T. ) ;
#959 = EDGE_CURVE ( 'NONE', #637, #100, #463, .T. ) ;
#960 = DIRECTION ( 'NONE',  ( -0.000000000000000000, -0.000000000000000000, 1.000000000000000000 ) ) ;
#961 = CARTESIAN_POINT ( 'NONE',  ( 27.50000000000000711, 0.000000000000000000, -9.999999999999937828 ) ) ;
#962 = ORIENTED_EDGE ( 'NONE', *, *, #45, .T. ) ;
#963 = VECTOR ( 'NONE', #155, 1000.000000000000000 ) ;
#964 = VERTEX_POINT ( 'NONE', #374 ) ;
#965 = VECTOR ( 'NONE', #909, 1000.000000000000000 ) ;
#966 = EDGE_CURVE ( 'NONE', #319, #7, #763, .T. ) ;
#967 = LINE ( 'NONE', #273, #503 ) ;
#968 = DIRECTION ( 'NONE',  ( 0.000000000000000000, -0.000000000000000000, 1.000000000000000000 ) ) ;
#969 = ORIENTED_EDGE ( 'NONE', *, *, #145, .F. ) ;
#970 = EDGE_LOOP ( 'NONE', ( #210, #732, #830, #778 ) ) ;
#971 = LINE ( 'NONE', #884, #232 ) ;
#972 = PLANE ( 'NONE',  #940 ) ;
#973 = VECTOR ( 'NONE', #172, 1000.000000000000000 ) ;
#974 = LINE ( 'NONE', #230, #221 ) ;
#975 = ORIENTED_EDGE ( 'NONE', *, *, #9, .T. ) ;
#976 = LINE ( 'NONE', #202, #711 ) ;
#977 = EDGE_CURVE ( 'NONE', #214, #936, #4, .T. ) ;
#978 = CARTESIAN_POINT ( 'NONE',  ( 52.50000000000000711, -4.000000000000000000, 0.000000000000000000 ) ) ;
#979 = ORIENTED_EDGE ( 'NONE', *, *, #775, .F. ) ;
#980 = CARTESIAN_POINT ( 'NONE',  ( 34.75000000000002132, 0.000000000000000000, -21.75000000000000000 ) ) ;
#981 = VECTOR ( 'NONE', #225, 1000.000000000000000 ) ;
ENDSEC;
END-ISO-10303-21;
